<svg width="1792" height="452" viewBox="0 0 1792 452" fill="none" xmlns="http://www.w3.org/2000/svg">
<path d="M1757.43 104.736V91.6321H1763.91C1764.65 91.6321 1765.35 91.7978 1766.01 92.1293C1766.68 92.4489 1767.23 92.9283 1767.64 93.5675C1768.07 94.2067 1768.28 94.9938 1768.28 95.929C1768.28 96.8641 1768.06 97.6631 1767.63 98.326C1767.19 98.977 1766.62 99.4742 1765.92 99.8175C1765.23 100.161 1764.51 100.332 1763.75 100.332H1759.23V97.9709H1762.97C1763.44 97.9709 1763.86 97.7992 1764.25 97.456C1764.64 97.1127 1764.84 96.6037 1764.84 95.929C1764.84 95.2187 1764.64 94.7216 1764.25 94.4375C1763.86 94.1534 1763.45 94.0114 1763.03 94.0114H1760.67V104.736H1757.43ZM1765.65 98.6456L1768.74 104.736H1765.19L1762.26 98.6456H1765.65ZM1762.53 112.548C1760.56 112.548 1758.72 112.181 1757.01 111.447C1755.29 110.714 1753.78 109.696 1752.48 108.393C1751.18 107.091 1750.16 105.582 1749.43 103.866C1748.69 102.149 1748.33 100.309 1748.33 98.3438C1748.33 96.3788 1748.69 94.5381 1749.43 92.8217C1750.16 91.1054 1751.18 89.5961 1752.48 88.294C1753.78 86.992 1755.29 85.974 1757.01 85.2401C1758.72 84.5062 1760.56 84.1392 1762.53 84.1392C1764.49 84.1392 1766.34 84.5062 1768.05 85.2401C1769.77 85.974 1771.28 86.992 1772.58 88.294C1773.88 89.5961 1774.9 91.1054 1775.63 92.8217C1776.37 94.5381 1776.73 96.3788 1776.73 98.3438C1776.73 100.309 1776.37 102.149 1775.63 103.866C1774.9 105.582 1773.88 107.091 1772.58 108.393C1771.28 109.696 1769.77 110.714 1768.05 111.447C1766.34 112.181 1764.49 112.548 1762.53 112.548ZM1762.53 108.908C1764.47 108.908 1766.24 108.435 1767.84 107.488C1769.44 106.541 1770.71 105.268 1771.66 103.67C1772.62 102.061 1773.09 100.285 1773.09 98.3438C1773.09 96.4025 1772.62 94.6328 1771.66 93.0348C1770.71 91.425 1769.44 90.1465 1767.84 89.1996C1766.24 88.2526 1764.47 87.7791 1762.53 87.7791C1760.58 87.7791 1758.8 88.2526 1757.2 89.1996C1755.61 90.1465 1754.33 91.425 1753.37 93.0348C1752.42 94.6328 1751.95 96.4025 1751.95 98.3438C1751.95 100.285 1752.42 102.055 1753.37 103.653C1754.33 105.251 1755.61 106.529 1757.2 107.488C1758.8 108.435 1760.58 108.908 1762.53 108.908Z" fill="white"/>
<path d="M200.185 94.6672C203.124 91.1397 206.75 89.376 211.061 89.376C214.98 89.376 218.312 90.7478 221.056 93.4914C223.799 96.235 225.171 99.5665 225.171 103.486C225.171 107.013 224.191 109.855 222.231 112.011L221.937 112.305L150.8 208.135C147.272 212.642 142.765 216.365 137.278 219.305C131.987 222.048 126.205 223.42 119.934 223.42C114.055 223.42 108.47 222.146 103.179 219.599C98.0836 217.051 93.7722 213.524 90.2447 209.016L18.8132 113.48C17.6374 112.109 16.6576 110.639 15.8737 109.071C15.0898 107.307 14.6978 105.446 14.6978 103.486C14.6978 99.5665 16.0696 96.235 18.8132 93.4914C21.5568 90.7478 24.8883 89.376 28.8078 89.376C33.5111 89.376 37.2345 91.2377 39.9781 94.9612L108.47 186.382C109.842 187.95 111.508 189.713 113.467 191.673C115.623 193.437 117.779 194.319 119.934 194.319C122.09 194.319 124.148 193.437 126.107 191.673C128.263 189.713 129.929 187.95 131.105 186.382L200.185 94.6672ZM254.686 103.486C254.686 99.5665 256.058 96.235 258.801 93.4914C261.545 90.7478 264.877 89.376 268.796 89.376H477.211C481.131 89.376 484.462 90.7478 487.206 93.4914C489.949 96.235 491.321 99.5665 491.321 103.486C491.321 107.405 489.949 110.737 487.206 113.48C484.462 116.224 481.131 117.596 477.211 117.596H268.796C264.877 117.596 261.545 116.224 258.801 113.48C256.058 110.737 254.686 107.405 254.686 103.486ZM290.549 217.541C286.237 217.541 281.926 216.659 277.615 214.896C273.303 212.936 269.482 210.29 266.15 206.959C262.819 203.627 260.075 199.61 257.92 194.906C255.764 190.203 254.686 184.912 254.686 179.033V152.577C254.686 147.285 256.156 143.758 259.095 141.994C262.231 140.231 267.032 139.349 273.499 139.349H470.744C474.664 139.349 477.995 140.72 480.739 143.464C483.482 146.208 484.854 149.539 484.854 153.459C484.854 157.378 483.482 160.71 480.739 163.453C477.995 166.197 474.664 167.568 470.744 167.568H282.906V181.972C282.906 183.932 283.69 185.696 285.258 187.264C287.021 188.635 289.275 189.321 292.019 189.321H477.211C481.131 189.321 484.462 190.693 487.206 193.437C489.949 196.18 491.321 199.512 491.321 203.431C491.321 207.351 489.949 210.682 487.206 213.426C484.462 216.169 481.131 217.541 477.211 217.541H290.549ZM720.982 103.486C720.982 99.5665 722.354 96.235 725.097 93.4914C727.841 90.7478 731.172 89.376 735.092 89.376C739.011 89.376 742.343 90.7478 745.086 93.4914C747.83 96.235 749.202 99.5665 749.202 103.486V189.027C749.202 197.062 746.458 203.823 740.971 209.31C735.68 214.798 729.017 217.541 720.982 217.541C718.238 217.541 715.495 217.149 712.751 216.365C710.203 215.581 707.852 214.504 705.696 213.132L571.064 130.824C567.34 128.668 564.205 127.002 561.657 125.827C559.306 124.455 557.346 123.769 555.778 123.769C552.839 123.769 550.977 125.631 550.193 129.354C549.409 133.078 549.017 138.467 549.017 145.522V203.431C549.017 207.351 547.645 210.682 544.902 213.426C542.158 216.169 538.827 217.541 534.907 217.541C530.988 217.541 527.656 216.169 524.913 213.426C522.169 210.682 520.797 207.351 520.797 203.431V117.89C520.797 109.855 523.443 103.094 528.734 97.6068C534.221 92.1196 540.982 89.376 549.017 89.376C551.761 89.376 554.406 89.7679 556.954 90.5518C559.698 91.3357 562.147 92.4135 564.303 93.7853L698.935 176.093C702.659 178.249 705.696 180.013 708.048 181.384C710.595 182.56 712.653 183.148 714.221 183.148C717.16 183.148 719.022 181.286 719.806 177.563C720.59 173.84 720.982 168.45 720.982 161.395V103.486ZM994.936 89.376C998.855 89.376 1002.19 90.7478 1004.93 93.4914C1007.67 96.235 1009.05 99.5665 1009.05 103.486C1009.05 107.405 1007.67 110.737 1004.93 113.48C1002.19 116.224 998.855 117.596 994.936 117.596H907.925V203.431C907.925 207.351 906.553 210.682 903.809 213.426C901.066 216.169 897.734 217.541 893.815 217.541C889.895 217.541 886.564 216.169 883.82 213.426C881.077 210.682 879.705 207.351 879.705 203.431V117.596H791.518C787.99 117.204 784.953 115.734 782.405 113.186C779.857 110.443 778.584 107.209 778.584 103.486C778.584 99.5665 779.955 96.235 782.699 93.4914C785.443 90.7478 788.774 89.376 792.694 89.376H994.936ZM1066.6 153.459C1066.6 156.986 1066.99 160.905 1067.78 165.217C1068.75 169.332 1070.42 173.154 1072.77 176.681C1075.32 180.209 1078.65 183.246 1082.77 185.794C1087.08 188.145 1092.66 189.321 1099.52 189.321H1216.52C1223.18 189.321 1228.67 188.145 1232.98 185.794C1237.29 183.246 1240.62 180.209 1242.97 176.681C1245.52 173.154 1247.19 169.332 1247.97 165.217C1248.95 160.905 1249.44 156.986 1249.44 153.459V103.78C1249.44 99.8604 1250.81 96.5289 1253.56 93.7853C1256.3 91.0417 1259.63 89.6699 1263.55 89.6699C1267.47 89.6699 1270.8 91.0417 1273.54 93.7853C1276.29 96.5289 1277.66 99.8604 1277.66 103.78V153.459C1277.66 160.905 1276.39 168.45 1273.84 176.093C1271.49 183.54 1267.96 190.399 1263.26 196.67C1258.55 202.745 1252.87 207.743 1246.21 211.662C1239.54 215.581 1232 217.541 1223.57 217.541H1089.53C1081.49 217.149 1074.34 214.994 1068.07 211.074C1061.8 206.959 1056.41 201.863 1051.9 195.788C1047.59 189.713 1044.26 182.952 1041.91 175.505C1039.56 168.058 1038.38 160.71 1038.38 153.459V103.78C1038.38 99.8604 1039.75 96.5289 1042.49 93.7853C1045.24 91.0417 1048.57 89.6699 1052.49 89.6699C1056.41 89.6699 1059.74 91.0417 1062.48 93.7853C1065.23 96.5289 1066.6 99.8604 1066.6 103.78V153.459ZM1496.09 167.568C1501.38 170.9 1506.77 174.525 1512.26 178.445C1517.74 182.168 1523.33 186.284 1529.01 190.791C1531.17 192.359 1533.03 194.221 1534.6 196.376C1536.16 198.336 1536.95 200.688 1536.95 203.431C1536.95 207.351 1535.58 210.682 1532.83 213.426C1530.09 216.169 1526.76 217.541 1522.84 217.541C1519.51 217.541 1516.18 216.169 1512.84 213.426C1504.81 207.547 1496.58 201.863 1488.15 196.376C1479.72 190.889 1470.91 185.99 1461.7 181.678C1452.68 177.367 1443.27 173.938 1433.48 171.39C1423.68 168.842 1413.49 167.568 1402.9 167.568H1344.41C1341.86 167.96 1339.7 169.136 1337.94 171.096C1336.18 173.056 1335.29 175.505 1335.29 178.445V203.431C1335.29 207.351 1333.82 210.682 1330.88 213.426C1328.14 216.169 1324.91 217.541 1321.18 217.541C1317.26 217.541 1313.93 216.169 1311.19 213.426C1308.45 210.682 1307.07 207.351 1307.07 203.431V175.211C1307.07 170.312 1307.96 165.707 1309.72 161.395C1311.68 156.888 1314.23 153.067 1317.36 149.931C1320.5 146.6 1324.22 144.052 1328.53 142.288C1332.84 140.328 1337.55 139.349 1342.64 139.349H1498.44C1501.38 139.349 1503.93 138.369 1506.08 136.409C1508.43 134.253 1509.61 131.608 1509.61 128.472C1509.61 125.533 1508.43 122.985 1506.08 120.829C1503.93 118.674 1501.38 117.596 1498.44 117.596H1321.18C1317.26 117.596 1313.93 116.224 1311.19 113.48C1308.45 110.737 1307.07 107.405 1307.07 103.486C1307.07 99.5665 1308.45 96.235 1311.19 93.4914C1313.93 90.7478 1317.26 89.376 1321.18 89.376H1497.26C1502.75 89.376 1507.85 90.4538 1512.55 92.6095C1517.45 94.5692 1521.66 97.3128 1525.19 100.84C1528.91 104.368 1531.76 108.483 1533.71 113.186C1535.87 117.89 1536.95 122.985 1536.95 128.472C1536.95 133.959 1535.87 139.055 1533.71 143.758C1531.76 148.461 1528.91 152.577 1525.19 156.104C1521.66 159.632 1517.45 162.473 1512.55 164.629C1507.85 166.589 1502.75 167.568 1497.26 167.568H1496.09ZM1591.28 212.25C1588.34 215.777 1584.72 217.541 1580.41 217.541C1576.49 217.541 1573.15 216.169 1570.41 213.426C1567.67 210.682 1566.3 207.351 1566.3 203.431C1566.3 199.904 1567.28 197.062 1569.24 194.906L1640.67 98.7826C1644 94.2753 1648.41 90.6498 1653.9 87.9062C1659.38 84.9666 1665.26 83.4968 1671.53 83.4968C1677.41 83.4968 1683 84.7707 1688.29 87.3183C1693.58 89.8659 1697.89 93.3934 1701.22 97.9007L1772.65 193.437C1773.83 194.808 1774.81 196.376 1775.59 198.14C1776.38 199.708 1776.77 201.472 1776.77 203.431C1776.77 207.351 1775.4 210.682 1772.65 213.426C1769.91 216.169 1766.58 217.541 1762.66 217.541C1757.96 217.541 1754.23 215.679 1751.49 211.956L1683 120.535C1681.63 118.968 1679.86 117.302 1677.71 115.538C1675.75 113.578 1673.69 112.599 1671.53 112.599C1669.38 112.599 1667.22 113.578 1665.07 115.538C1663.11 117.302 1661.54 118.968 1660.36 120.535L1591.28 212.25Z" fill="white"/>
<path d="M114.722 286.397C114.383 283.529 113.005 281.302 110.59 279.717C108.174 278.132 105.212 277.339 101.702 277.339C99.1352 277.339 96.8897 277.755 94.9649 278.585C93.0589 279.415 91.5682 280.557 90.4926 282.01C89.4358 283.463 88.9074 285.114 88.9074 286.963C88.9074 288.511 89.2754 289.841 90.0114 290.955C90.7662 292.049 91.7286 292.964 92.8985 293.7C94.0685 294.417 95.2951 295.012 96.5783 295.483C97.8615 295.936 99.0409 296.304 100.117 296.587L106.004 298.173C107.514 298.569 109.193 299.116 111.043 299.814C112.911 300.512 114.694 301.465 116.392 302.673C118.11 303.862 119.525 305.391 120.638 307.259C121.752 309.127 122.308 311.42 122.308 314.137C122.308 317.269 121.487 320.1 119.846 322.629C118.223 325.157 115.845 327.167 112.713 328.658C109.599 330.149 105.815 330.894 101.362 330.894C97.2105 330.894 93.6156 330.224 90.5775 328.884C87.5582 327.544 85.1805 325.676 83.4444 323.28C81.7272 320.883 80.7554 318.1 80.5289 314.93H87.7752C87.9639 317.119 88.6999 318.93 89.983 320.364C91.2851 321.78 92.9268 322.836 94.9083 323.535C96.9085 324.214 99.0598 324.554 101.362 324.554C104.042 324.554 106.448 324.119 108.58 323.251C110.712 322.365 112.401 321.138 113.647 319.572C114.892 317.987 115.515 316.137 115.515 314.024C115.515 312.099 114.977 310.533 113.901 309.325C112.826 308.117 111.411 307.136 109.656 306.381C107.901 305.626 106.004 304.966 103.966 304.4L96.833 302.362C92.3041 301.06 88.7187 299.201 86.0769 296.786C83.435 294.37 82.114 291.209 82.114 287.303C82.114 284.057 82.9915 281.227 84.7465 278.811C86.5203 276.377 88.898 274.49 91.8795 273.15C94.8799 271.792 98.2295 271.112 101.928 271.112C105.664 271.112 108.986 271.782 111.892 273.122C114.798 274.443 117.1 276.254 118.798 278.557C120.516 280.859 121.421 283.472 121.516 286.397H114.722ZM133.741 329.875V286.397H140.195V293.191H140.761C141.667 290.87 143.129 289.068 145.148 287.784C147.168 286.482 149.592 285.831 152.423 285.831C155.291 285.831 157.678 286.482 159.584 287.784C161.509 289.068 163.009 290.87 164.085 293.191H164.538C165.651 290.945 167.321 289.162 169.548 287.841C171.775 286.501 174.445 285.831 177.559 285.831C181.446 285.831 184.626 287.048 187.098 289.483C189.57 291.898 190.806 295.663 190.806 300.777V329.875H184.125V300.777C184.125 297.569 183.248 295.276 181.493 293.898C179.738 292.521 177.672 291.832 175.294 291.832C172.237 291.832 169.869 292.757 168.189 294.606C166.51 296.436 165.67 298.758 165.67 301.569V329.875H158.877V300.097C158.877 297.625 158.075 295.634 156.471 294.125C154.867 292.596 152.8 291.832 150.272 291.832C148.536 291.832 146.913 292.294 145.403 293.219C143.912 294.144 142.705 295.427 141.78 297.069C140.874 298.691 140.421 300.569 140.421 302.701V329.875H133.741ZM216.611 330.894C213.856 330.894 211.355 330.375 209.11 329.337C206.864 328.28 205.081 326.761 203.76 324.78C202.439 322.78 201.779 320.364 201.779 317.534C201.779 315.043 202.269 313.024 203.251 311.476C204.232 309.91 205.543 308.683 207.185 307.797C208.827 306.91 210.638 306.249 212.62 305.815C214.62 305.362 216.63 305.004 218.649 304.739C221.291 304.4 223.433 304.145 225.074 303.975C226.735 303.787 227.943 303.475 228.697 303.041C229.471 302.607 229.858 301.852 229.858 300.777V300.55C229.858 297.757 229.094 295.587 227.565 294.04C226.056 292.493 223.763 291.719 220.687 291.719C217.498 291.719 214.997 292.417 213.186 293.813C211.374 295.21 210.101 296.701 209.365 298.286L203.024 296.021C204.156 293.379 205.666 291.323 207.553 289.851C209.459 288.36 211.535 287.322 213.78 286.737C216.045 286.133 218.271 285.831 220.46 285.831C221.857 285.831 223.461 286.001 225.272 286.341C227.103 286.662 228.867 287.331 230.566 288.35C232.283 289.369 233.708 290.907 234.84 292.964C235.972 295.021 236.538 297.776 236.538 301.23V329.875H229.858V323.987H229.518C229.065 324.931 228.311 325.94 227.254 327.016C226.197 328.092 224.791 329.007 223.036 329.762C221.281 330.517 219.14 330.894 216.611 330.894ZM217.63 324.893C220.272 324.893 222.498 324.374 224.31 323.336C226.14 322.298 227.518 320.959 228.443 319.317C229.386 317.675 229.858 315.949 229.858 314.137V308.023C229.575 308.363 228.952 308.674 227.99 308.957C227.046 309.221 225.952 309.457 224.706 309.665C223.48 309.853 222.281 310.023 221.111 310.174C219.96 310.306 219.026 310.42 218.309 310.514C216.573 310.74 214.95 311.108 213.441 311.618C211.95 312.108 210.742 312.854 209.817 313.854C208.912 314.835 208.459 316.175 208.459 317.873C208.459 320.194 209.317 321.949 211.035 323.138C212.771 324.308 214.969 324.893 217.63 324.893ZM249.528 329.875V286.397H255.982V292.964H256.435C257.227 290.813 258.661 289.068 260.737 287.728C262.813 286.388 265.153 285.718 267.757 285.718C268.247 285.718 268.861 285.727 269.597 285.746C270.333 285.765 270.889 285.793 271.267 285.831V292.625C271.04 292.568 270.521 292.483 269.71 292.37C268.917 292.238 268.078 292.172 267.191 292.172C265.077 292.172 263.19 292.615 261.53 293.502C259.888 294.37 258.586 295.578 257.623 297.125C256.68 298.654 256.208 300.399 256.208 302.362V329.875H249.528ZM301.615 286.397V292.058H279.084V286.397H301.615ZM285.651 275.981H292.331V317.42C292.331 319.308 292.604 320.723 293.152 321.666C293.718 322.591 294.435 323.214 295.303 323.535C296.19 323.836 297.124 323.987 298.105 323.987C298.841 323.987 299.445 323.95 299.917 323.874C300.388 323.78 300.766 323.704 301.049 323.648L302.408 329.649C301.955 329.818 301.323 329.988 300.511 330.158C299.7 330.347 298.671 330.441 297.426 330.441C295.539 330.441 293.689 330.035 291.878 329.224C290.085 328.413 288.594 327.177 287.406 325.516C286.236 323.855 285.651 321.761 285.651 319.232V275.981ZM333.412 278.132V271.905H376.889V278.132H358.66V329.875H351.64V278.132H333.412ZM409.099 312.099V286.397H415.779V329.875H409.099V322.516H408.646C407.627 324.723 406.042 326.601 403.89 328.148C401.739 329.677 399.022 330.441 395.738 330.441C393.021 330.441 390.605 329.847 388.492 328.658C386.378 327.45 384.718 325.639 383.51 323.223C382.302 320.789 381.699 317.722 381.699 314.024V286.397H388.379V313.571C388.379 316.741 389.266 319.27 391.04 321.157C392.832 323.044 395.116 323.987 397.89 323.987C399.55 323.987 401.239 323.563 402.956 322.714C404.692 321.864 406.145 320.562 407.315 318.807C408.504 317.052 409.099 314.816 409.099 312.099ZM428.811 329.875V286.397H435.265V292.964H435.718C436.51 290.813 437.944 289.068 440.02 287.728C442.096 286.388 444.436 285.718 447.04 285.718C447.531 285.718 448.144 285.727 448.88 285.746C449.616 285.765 450.172 285.793 450.55 285.831V292.625C450.323 292.568 449.804 292.483 448.993 292.37C448.2 292.238 447.361 292.172 446.474 292.172C444.36 292.172 442.473 292.615 440.813 293.502C439.171 294.37 437.869 295.578 436.906 297.125C435.963 298.654 435.491 300.399 435.491 302.362V329.875H428.811ZM465.946 303.72V329.875H459.265V286.397H465.719V293.191H466.285C467.304 290.983 468.852 289.209 470.927 287.869C473.003 286.511 475.683 285.831 478.966 285.831C481.91 285.831 484.486 286.435 486.694 287.643C488.902 288.832 490.619 290.643 491.845 293.078C493.072 295.493 493.685 298.55 493.685 302.249V329.875H487.005V302.701C487.005 299.286 486.118 296.625 484.344 294.719C482.571 292.794 480.136 291.832 477.041 291.832C474.909 291.832 473.003 292.294 471.324 293.219C469.663 294.144 468.352 295.493 467.389 297.267C466.427 299.041 465.946 301.192 465.946 303.72ZM506.689 329.875V286.397H513.369V329.875H506.689ZM510.086 279.151C508.784 279.151 507.661 278.708 506.718 277.821C505.793 276.934 505.331 275.868 505.331 274.622C505.331 273.377 505.793 272.311 506.718 271.424C507.661 270.537 508.784 270.093 510.086 270.093C511.388 270.093 512.501 270.537 513.426 271.424C514.37 272.311 514.841 273.377 514.841 274.622C514.841 275.868 514.37 276.934 513.426 277.821C512.501 278.708 511.388 279.151 510.086 279.151ZM533.082 303.72V329.875H526.402V286.397H532.855V293.191H533.421C534.44 290.983 535.988 289.209 538.064 287.869C540.139 286.511 542.819 285.831 546.102 285.831C549.046 285.831 551.622 286.435 553.83 287.643C556.038 288.832 557.755 290.643 558.982 293.078C560.208 295.493 560.821 298.55 560.821 302.249V329.875H554.141V302.701C554.141 299.286 553.254 296.625 551.481 294.719C549.707 292.794 547.272 291.832 544.178 291.832C542.045 291.832 540.139 292.294 538.46 293.219C536.799 294.144 535.488 295.493 534.525 297.267C533.563 299.041 533.082 301.192 533.082 303.72ZM591.375 347.085C588.148 347.085 585.374 346.67 583.053 345.839C580.732 345.028 578.798 343.952 577.25 342.613C575.722 341.292 574.505 339.876 573.599 338.367L578.92 334.63C579.524 335.423 580.289 336.329 581.213 337.348C582.138 338.386 583.402 339.282 585.006 340.037C586.629 340.81 588.752 341.197 591.375 341.197C594.885 341.197 597.782 340.348 600.065 338.65C602.348 336.951 603.49 334.291 603.49 330.668V321.836H602.924C602.433 322.629 601.735 323.61 600.829 324.78C599.942 325.931 598.659 326.96 596.98 327.865C595.319 328.752 593.073 329.196 590.243 329.196C586.733 329.196 583.581 328.365 580.789 326.705C578.015 325.044 575.816 322.629 574.193 319.458C572.589 316.288 571.787 312.439 571.787 307.91C571.787 303.456 572.571 299.578 574.137 296.276C575.703 292.955 577.883 290.388 580.675 288.577C583.468 286.746 586.695 285.831 590.356 285.831C593.187 285.831 595.432 286.303 597.093 287.247C598.772 288.171 600.055 289.228 600.942 290.417C601.848 291.587 602.546 292.549 603.037 293.304H603.716V286.397H610.17V331.12C610.17 334.857 609.321 337.895 607.622 340.235C605.943 342.594 603.679 344.32 600.829 345.415C597.999 346.528 594.847 347.085 591.375 347.085ZM591.149 323.195C593.828 323.195 596.093 322.582 597.942 321.355C599.791 320.128 601.197 318.364 602.159 316.062C603.122 313.76 603.603 311.004 603.603 307.797C603.603 304.664 603.131 301.899 602.188 299.503C601.244 297.106 599.848 295.229 597.999 293.87C596.149 292.511 593.866 291.832 591.149 291.832C588.318 291.832 585.959 292.549 584.072 293.983C582.204 295.417 580.798 297.342 579.855 299.758C578.93 302.173 578.468 304.853 578.468 307.797C578.468 310.816 578.939 313.486 579.883 315.807C580.845 318.109 582.261 319.921 584.129 321.242C586.016 322.544 588.356 323.195 591.149 323.195ZM679.019 286.397C678.679 283.529 677.301 281.302 674.886 279.717C672.471 278.132 669.508 277.339 665.998 277.339C663.432 277.339 661.186 277.755 659.261 278.585C657.355 279.415 655.865 280.557 654.789 282.01C653.732 283.463 653.204 285.114 653.204 286.963C653.204 288.511 653.572 289.841 654.308 290.955C655.063 292.049 656.025 292.964 657.195 293.7C658.365 294.417 659.591 295.012 660.875 295.483C662.158 295.936 663.337 296.304 664.413 296.587L670.301 298.173C671.81 298.569 673.49 299.116 675.339 299.814C677.207 300.512 678.99 301.465 680.689 302.673C682.406 303.862 683.821 305.391 684.935 307.259C686.048 309.127 686.605 311.42 686.605 314.137C686.605 317.269 685.784 320.1 684.142 322.629C682.519 325.157 680.141 327.167 677.009 328.658C673.895 330.149 670.112 330.894 665.658 330.894C661.507 330.894 657.912 330.224 654.874 328.884C651.855 327.544 649.477 325.676 647.741 323.28C646.024 320.883 645.052 318.1 644.825 314.93H652.072C652.26 317.119 652.996 318.93 654.279 320.364C655.582 321.78 657.223 322.836 659.205 323.535C661.205 324.214 663.356 324.554 665.658 324.554C668.338 324.554 670.744 324.119 672.876 323.251C675.009 322.365 676.698 321.138 677.943 319.572C679.189 317.987 679.811 316.137 679.811 314.024C679.811 312.099 679.273 310.533 678.198 309.325C677.122 308.117 675.707 307.136 673.952 306.381C672.197 305.626 670.301 304.966 668.262 304.4L661.129 302.362C656.601 301.06 653.015 299.201 650.373 296.786C647.731 294.37 646.41 291.209 646.41 287.303C646.41 284.057 647.288 281.227 649.043 278.811C650.817 276.377 653.194 274.49 656.176 273.15C659.176 271.792 662.526 271.112 666.224 271.112C669.961 271.112 673.282 271.782 676.188 273.122C679.094 274.443 681.396 276.254 683.095 278.557C684.812 280.859 685.718 283.472 685.812 286.397H679.019ZM715.7 330.781C711.775 330.781 708.331 329.847 705.369 327.979C702.425 326.11 700.123 323.497 698.462 320.138C696.82 316.779 696 312.854 696 308.363C696 303.834 696.82 299.88 698.462 296.502C700.123 293.125 702.425 290.502 705.369 288.633C708.331 286.765 711.775 285.831 715.7 285.831C719.625 285.831 723.06 286.765 726.004 288.633C728.966 290.502 731.269 293.125 732.91 296.502C734.571 299.88 735.401 303.834 735.401 308.363C735.401 312.854 734.571 316.779 732.91 320.138C731.269 323.497 728.966 326.11 726.004 327.979C723.06 329.847 719.625 330.781 715.7 330.781ZM715.7 324.78C718.682 324.78 721.135 324.016 723.06 322.487C724.985 320.959 726.409 318.949 727.334 316.458C728.259 313.967 728.721 311.269 728.721 308.363C728.721 305.457 728.259 302.749 727.334 300.239C726.409 297.729 724.985 295.701 723.06 294.153C721.135 292.606 718.682 291.832 715.7 291.832C712.719 291.832 710.266 292.606 708.341 294.153C706.416 295.701 704.991 297.729 704.067 300.239C703.142 302.749 702.68 305.457 702.68 308.363C702.68 311.269 703.142 313.967 704.067 316.458C704.991 318.949 706.416 320.959 708.341 322.487C710.266 324.016 712.719 324.78 715.7 324.78ZM753.076 271.905V329.875H746.395V271.905H753.076ZM793.508 312.099V286.397H800.188V329.875H793.508V322.516H793.055C792.036 324.723 790.451 326.601 788.3 328.148C786.148 329.677 783.431 330.441 780.148 330.441C777.43 330.441 775.015 329.847 772.901 328.658C770.788 327.45 769.127 325.639 767.919 323.223C766.712 320.789 766.108 317.722 766.108 314.024V286.397H772.788V313.571C772.788 316.741 773.675 319.27 775.449 321.157C777.241 323.044 779.525 323.987 782.299 323.987C783.959 323.987 785.648 323.563 787.366 322.714C789.102 321.864 790.555 320.562 791.725 318.807C792.913 317.052 793.508 314.816 793.508 312.099ZM832.129 286.397V292.058H809.597V286.397H832.129ZM816.164 275.981H822.844V317.42C822.844 319.308 823.118 320.723 823.665 321.666C824.231 322.591 824.948 323.214 825.816 323.535C826.703 323.836 827.637 323.987 828.619 323.987C829.355 323.987 829.958 323.95 830.43 323.874C830.902 323.78 831.279 323.704 831.562 323.648L832.921 329.649C832.468 329.818 831.836 329.988 831.025 330.158C830.213 330.347 829.185 330.441 827.939 330.441C826.052 330.441 824.203 330.035 822.391 329.224C820.599 328.413 819.108 327.177 817.919 325.516C816.749 323.855 816.164 321.761 816.164 319.232V275.981ZM842.974 329.875V286.397H849.654V329.875H842.974ZM846.371 279.151C845.069 279.151 843.946 278.708 843.002 277.821C842.078 276.934 841.615 275.868 841.615 274.622C841.615 273.377 842.078 272.311 843.002 271.424C843.946 270.537 845.069 270.093 846.371 270.093C847.673 270.093 848.786 270.537 849.711 271.424C850.654 272.311 851.126 273.377 851.126 274.622C851.126 275.868 850.654 276.934 849.711 277.821C848.786 278.708 847.673 279.151 846.371 279.151ZM880.349 330.781C876.424 330.781 872.98 329.847 870.018 327.979C867.074 326.11 864.772 323.497 863.111 320.138C861.469 316.779 860.649 312.854 860.649 308.363C860.649 303.834 861.469 299.88 863.111 296.502C864.772 293.125 867.074 290.502 870.018 288.633C872.98 286.765 876.424 285.831 880.349 285.831C884.274 285.831 887.709 286.765 890.653 288.633C893.615 290.502 895.918 293.125 897.559 296.502C899.22 299.88 900.05 303.834 900.05 308.363C900.05 312.854 899.22 316.779 897.559 320.138C895.918 323.497 893.615 326.11 890.653 327.979C887.709 329.847 884.274 330.781 880.349 330.781ZM880.349 324.78C883.331 324.78 885.784 324.016 887.709 322.487C889.634 320.959 891.058 318.949 891.983 316.458C892.908 313.967 893.37 311.269 893.37 308.363C893.37 305.457 892.908 302.749 891.983 300.239C891.058 297.729 889.634 295.701 887.709 294.153C885.784 292.606 883.331 291.832 880.349 291.832C877.368 291.832 874.915 292.606 872.99 294.153C871.065 295.701 869.64 297.729 868.716 300.239C867.791 302.749 867.329 305.457 867.329 308.363C867.329 311.269 867.791 313.967 868.716 316.458C869.64 318.949 871.065 320.959 872.99 322.487C874.915 324.016 877.368 324.78 880.349 324.78ZM917.725 303.72V329.875H911.044V286.397H917.498V293.191H918.064C919.083 290.983 920.631 289.209 922.706 287.869C924.782 286.511 927.462 285.831 930.745 285.831C933.689 285.831 936.265 286.435 938.473 287.643C940.681 288.832 942.398 290.643 943.624 293.078C944.851 295.493 945.464 298.55 945.464 302.249V329.875H938.784V302.701C938.784 299.286 937.897 296.625 936.123 294.719C934.35 292.794 931.915 291.832 928.82 291.832C926.688 291.832 924.782 292.294 923.103 293.219C921.442 294.144 920.131 295.493 919.168 297.267C918.206 299.041 917.725 301.192 917.725 303.72ZM989.265 296.135L983.264 297.833C982.887 296.833 982.33 295.861 981.594 294.917C980.877 293.955 979.896 293.162 978.65 292.54C977.405 291.917 975.81 291.606 973.867 291.606C971.206 291.606 968.989 292.219 967.215 293.445C965.46 294.653 964.582 296.191 964.582 298.059C964.582 299.72 965.186 301.031 966.394 301.994C967.602 302.956 969.489 303.758 972.055 304.4L978.509 305.985C982.396 306.928 985.293 308.372 987.199 310.316C989.105 312.241 990.057 314.722 990.057 317.76C990.057 320.251 989.34 322.478 987.906 324.44C986.491 326.403 984.51 327.95 981.962 329.082C979.415 330.215 976.452 330.781 973.074 330.781C968.639 330.781 964.969 329.818 962.063 327.894C959.157 325.969 957.317 323.157 956.543 319.458L962.884 317.873C963.488 320.213 964.629 321.968 966.309 323.138C968.007 324.308 970.225 324.893 972.961 324.893C976.074 324.893 978.546 324.233 980.377 322.912C982.226 321.572 983.151 319.968 983.151 318.1C983.151 316.59 982.622 315.326 981.566 314.307C980.509 313.269 978.886 312.495 976.697 311.986L969.451 310.287C965.469 309.344 962.544 307.881 960.676 305.9C958.827 303.9 957.902 301.399 957.902 298.399C957.902 295.946 958.591 293.776 959.968 291.889C961.365 290.002 963.261 288.52 965.658 287.445C968.073 286.369 970.81 285.831 973.867 285.831C978.169 285.831 981.547 286.775 984 288.662C986.472 290.549 988.227 293.04 989.265 296.135ZM1025.03 329.875V271.905H1059.79V278.132H1032.05V297.72H1057.19V303.947H1032.05V329.875H1025.03ZM1071.24 329.875V286.397H1077.69V292.964H1078.14C1078.94 290.813 1080.37 289.068 1082.45 287.728C1084.52 286.388 1086.86 285.718 1089.47 285.718C1089.96 285.718 1090.57 285.727 1091.31 285.746C1092.04 285.765 1092.6 285.793 1092.98 285.831V292.625C1092.75 292.568 1092.23 292.483 1091.42 292.37C1090.63 292.238 1089.79 292.172 1088.9 292.172C1086.79 292.172 1084.9 292.615 1083.24 293.502C1081.6 294.37 1080.3 295.578 1079.33 297.125C1078.39 298.654 1077.92 300.399 1077.92 302.362V329.875H1071.24ZM1118.03 330.781C1114.11 330.781 1110.66 329.847 1107.7 327.979C1104.76 326.11 1102.45 323.497 1100.79 320.138C1099.15 316.779 1098.33 312.854 1098.33 308.363C1098.33 303.834 1099.15 299.88 1100.79 296.502C1102.45 293.125 1104.76 290.502 1107.7 288.633C1110.66 286.765 1114.11 285.831 1118.03 285.831C1121.96 285.831 1125.39 286.765 1128.34 288.633C1131.3 290.502 1133.6 293.125 1135.24 296.502C1136.9 299.88 1137.73 303.834 1137.73 308.363C1137.73 312.854 1136.9 316.779 1135.24 320.138C1133.6 323.497 1131.3 326.11 1128.34 327.979C1125.39 329.847 1121.96 330.781 1118.03 330.781ZM1118.03 324.78C1121.01 324.78 1123.47 324.016 1125.39 322.487C1127.32 320.959 1128.74 318.949 1129.67 316.458C1130.59 313.967 1131.05 311.269 1131.05 308.363C1131.05 305.457 1130.59 302.749 1129.67 300.239C1128.74 297.729 1127.32 295.701 1125.39 294.153C1123.47 292.606 1121.01 291.832 1118.03 291.832C1115.05 291.832 1112.6 292.606 1110.67 294.153C1108.75 295.701 1107.32 297.729 1106.4 300.239C1105.47 302.749 1105.01 305.457 1105.01 308.363C1105.01 311.269 1105.47 313.967 1106.4 316.458C1107.32 318.949 1108.75 320.959 1110.67 322.487C1112.6 324.016 1115.05 324.78 1118.03 324.78ZM1148.73 329.875V286.397H1155.18V293.191H1155.75C1156.65 290.87 1158.11 289.068 1160.13 287.784C1162.15 286.482 1164.58 285.831 1167.41 285.831C1170.28 285.831 1172.66 286.482 1174.57 287.784C1176.49 289.068 1178 290.87 1179.07 293.191H1179.52C1180.64 290.945 1182.31 289.162 1184.53 287.841C1186.76 286.501 1189.43 285.831 1192.54 285.831C1196.43 285.831 1199.61 287.048 1202.08 289.483C1204.56 291.898 1205.79 295.663 1205.79 300.777V329.875H1199.11V300.777C1199.11 297.569 1198.23 295.276 1196.48 293.898C1194.72 292.521 1192.66 291.832 1190.28 291.832C1187.22 291.832 1184.85 292.757 1183.17 294.606C1181.5 296.436 1180.66 298.758 1180.66 301.569V329.875H1173.86V300.097C1173.86 297.625 1173.06 295.634 1171.46 294.125C1169.85 292.596 1167.79 291.832 1165.26 291.832C1163.52 291.832 1161.9 292.294 1160.39 293.219C1158.9 294.144 1157.69 295.427 1156.77 297.069C1155.86 298.691 1155.41 300.569 1155.41 302.701V329.875H1148.73ZM1274.63 286.397C1274.29 283.529 1272.91 281.302 1270.49 279.717C1268.08 278.132 1265.12 277.339 1261.61 277.339C1259.04 277.339 1256.79 277.755 1254.87 278.585C1252.96 279.415 1251.47 280.557 1250.4 282.01C1249.34 283.463 1248.81 285.114 1248.81 286.963C1248.81 288.511 1249.18 289.841 1249.91 290.955C1250.67 292.049 1251.63 292.964 1252.8 293.7C1253.97 294.417 1255.2 295.012 1256.48 295.483C1257.77 295.936 1258.94 296.304 1260.02 296.587L1265.91 298.173C1267.42 298.569 1269.1 299.116 1270.95 299.814C1272.81 300.512 1274.6 301.465 1276.3 302.673C1278.01 303.862 1279.43 305.391 1280.54 307.259C1281.66 309.127 1282.21 311.42 1282.21 314.137C1282.21 317.269 1281.39 320.1 1279.75 322.629C1278.13 325.157 1275.75 327.167 1272.62 328.658C1269.5 330.149 1265.72 330.894 1261.27 330.894C1257.11 330.894 1253.52 330.224 1250.48 328.884C1247.46 327.544 1245.08 325.676 1243.35 323.28C1241.63 320.883 1240.66 318.1 1240.43 314.93H1247.68C1247.87 317.119 1248.6 318.93 1249.89 320.364C1251.19 321.78 1252.83 322.836 1254.81 323.535C1256.81 324.214 1258.96 324.554 1261.27 324.554C1263.95 324.554 1266.35 324.119 1268.48 323.251C1270.62 322.365 1272.3 321.138 1273.55 319.572C1274.8 317.987 1275.42 316.137 1275.42 314.024C1275.42 312.099 1274.88 310.533 1273.8 309.325C1272.73 308.117 1271.31 307.136 1269.56 306.381C1267.8 305.626 1265.91 304.966 1263.87 304.4L1256.74 302.362C1252.21 301.06 1248.62 299.201 1245.98 296.786C1243.34 294.37 1242.02 291.209 1242.02 287.303C1242.02 284.057 1242.9 281.227 1244.65 278.811C1246.42 276.377 1248.8 274.49 1251.78 273.15C1254.78 271.792 1258.13 271.112 1261.83 271.112C1265.57 271.112 1268.89 271.782 1271.8 273.122C1274.7 274.443 1277 276.254 1278.7 278.557C1280.42 280.859 1281.32 283.472 1281.42 286.397H1274.63ZM1303.5 329.875L1290.25 286.397H1297.27L1306.67 319.685H1307.12L1316.4 286.397H1323.54L1332.71 319.572H1333.16L1342.56 286.397H1349.58L1336.33 329.875H1329.76L1320.25 296.474H1319.57L1310.06 329.875H1303.5ZM1359.21 329.875V286.397H1365.89V329.875H1359.21ZM1362.6 279.151C1361.3 279.151 1360.18 278.708 1359.23 277.821C1358.31 276.934 1357.85 275.868 1357.85 274.622C1357.85 273.377 1358.31 272.311 1359.23 271.424C1360.18 270.537 1361.3 270.093 1362.6 270.093C1363.9 270.093 1365.02 270.537 1365.94 271.424C1366.89 272.311 1367.36 273.377 1367.36 274.622C1367.36 275.868 1366.89 276.934 1365.94 277.821C1365.02 278.708 1363.9 279.151 1362.6 279.151ZM1397.83 286.397V292.058H1375.29V286.397H1397.83ZM1381.86 275.981H1388.54V317.42C1388.54 319.308 1388.82 320.723 1389.36 321.666C1389.93 322.591 1390.65 323.214 1391.51 323.535C1392.4 323.836 1393.33 323.987 1394.32 323.987C1395.05 323.987 1395.66 323.95 1396.13 323.874C1396.6 323.78 1396.98 323.704 1397.26 323.648L1398.62 329.649C1398.17 329.818 1397.53 329.988 1396.72 330.158C1395.91 330.347 1394.88 330.441 1393.64 330.441C1391.75 330.441 1389.9 330.035 1388.09 329.224C1386.3 328.413 1384.81 327.177 1383.62 325.516C1382.45 323.855 1381.86 321.761 1381.86 319.232V275.981ZM1407.43 329.875V324.78L1432.11 293.078V292.625H1408.22V286.397H1440.71V291.719L1416.71 323.195V323.648H1441.51V329.875H1407.43ZM1471.5 286.397V292.058H1448.97V286.397H1471.5ZM1455.54 275.981H1462.22V317.42C1462.22 319.308 1462.49 320.723 1463.04 321.666C1463.6 322.591 1464.32 323.214 1465.19 323.535C1466.08 323.836 1467.01 323.987 1467.99 323.987C1468.73 323.987 1469.33 323.95 1469.8 323.874C1470.27 323.78 1470.65 323.704 1470.93 323.648L1472.29 329.649C1471.84 329.818 1471.21 329.988 1470.4 330.158C1469.59 330.347 1468.56 330.441 1467.31 330.441C1465.42 330.441 1463.58 330.035 1461.76 329.224C1459.97 328.413 1458.48 327.177 1457.29 325.516C1456.12 323.855 1455.54 321.761 1455.54 319.232V275.981ZM1500.11 330.781C1495.92 330.781 1492.31 329.856 1489.27 328.007C1486.25 326.139 1483.92 323.535 1482.28 320.194C1480.65 316.835 1479.84 312.929 1479.84 308.476C1479.84 304.022 1480.65 300.097 1482.28 296.701C1483.92 293.285 1486.2 290.624 1489.13 288.718C1492.07 286.794 1495.5 285.831 1499.43 285.831C1501.69 285.831 1503.93 286.209 1506.14 286.963C1508.35 287.718 1510.36 288.945 1512.17 290.643C1513.98 292.323 1515.42 294.549 1516.5 297.323C1517.57 300.097 1518.11 303.513 1518.11 307.57V310.401H1484.6V304.626H1511.32C1511.32 302.173 1510.83 299.984 1509.85 298.059C1508.88 296.135 1507.51 294.615 1505.71 293.502C1503.94 292.389 1501.84 291.832 1499.43 291.832C1496.77 291.832 1494.47 292.493 1492.52 293.813C1490.6 295.116 1489.12 296.814 1488.08 298.908C1487.04 301.003 1486.52 303.249 1486.52 305.645V309.495C1486.52 312.778 1487.09 315.562 1488.22 317.845C1489.37 320.11 1490.97 321.836 1493 323.025C1495.04 324.195 1497.41 324.78 1500.11 324.78C1501.86 324.78 1503.45 324.535 1504.86 324.044C1506.3 323.535 1507.53 322.78 1508.57 321.78C1509.61 320.761 1510.41 319.496 1510.98 317.987L1517.43 319.798C1516.75 321.987 1515.61 323.912 1514.01 325.573C1512.4 327.214 1510.42 328.497 1508.06 329.422C1505.7 330.328 1503.05 330.781 1500.11 330.781ZM1529.07 329.875V286.397H1535.52V292.964H1535.98C1536.77 290.813 1538.2 289.068 1540.28 287.728C1542.35 286.388 1544.69 285.718 1547.3 285.718C1547.79 285.718 1548.4 285.727 1549.14 285.746C1549.87 285.765 1550.43 285.793 1550.81 285.831V292.625C1550.58 292.568 1550.06 292.483 1549.25 292.37C1548.46 292.238 1547.62 292.172 1546.73 292.172C1544.62 292.172 1542.73 292.615 1541.07 293.502C1539.43 294.37 1538.13 295.578 1537.17 297.125C1536.22 298.654 1535.75 300.399 1535.75 302.362V329.875H1529.07ZM1566.2 271.905V329.875H1559.52V271.905H1566.2ZM1592.03 330.894C1589.28 330.894 1586.78 330.375 1584.53 329.337C1582.28 328.28 1580.5 326.761 1579.18 324.78C1577.86 322.78 1577.2 320.364 1577.2 317.534C1577.2 315.043 1577.69 313.024 1578.67 311.476C1579.65 309.91 1580.96 308.683 1582.6 307.797C1584.25 306.91 1586.06 306.249 1588.04 305.815C1590.04 305.362 1592.05 305.004 1594.07 304.739C1596.71 304.4 1598.85 304.145 1600.49 303.975C1602.15 303.787 1603.36 303.475 1604.12 303.041C1604.89 302.607 1605.28 301.852 1605.28 300.777V300.55C1605.28 297.757 1604.51 295.587 1602.99 294.04C1601.48 292.493 1599.18 291.719 1596.11 291.719C1592.92 291.719 1590.42 292.417 1588.61 293.813C1586.79 295.21 1585.52 296.701 1584.78 298.286L1578.44 296.021C1579.58 293.379 1581.09 291.323 1582.97 289.851C1584.88 288.36 1586.95 287.322 1589.2 286.737C1591.46 286.133 1593.69 285.831 1595.88 285.831C1597.28 285.831 1598.88 286.001 1600.69 286.341C1602.52 286.662 1604.29 287.331 1605.99 288.35C1607.7 289.369 1609.13 290.907 1610.26 292.964C1611.39 295.021 1611.96 297.776 1611.96 301.23V329.875H1605.28V323.987H1604.94C1604.49 324.931 1603.73 325.94 1602.67 327.016C1601.62 328.092 1600.21 329.007 1598.46 329.762C1596.7 330.517 1594.56 330.894 1592.03 330.894ZM1593.05 324.893C1595.69 324.893 1597.92 324.374 1599.73 323.336C1601.56 322.298 1602.94 320.959 1603.86 319.317C1604.81 317.675 1605.28 315.949 1605.28 314.137V308.023C1604.99 308.363 1604.37 308.674 1603.41 308.957C1602.47 309.221 1601.37 309.457 1600.13 309.665C1598.9 309.853 1597.7 310.023 1596.53 310.174C1595.38 310.306 1594.45 310.42 1593.73 310.514C1591.99 310.74 1590.37 311.108 1588.86 311.618C1587.37 312.108 1586.16 312.854 1585.24 313.854C1584.33 314.835 1583.88 316.175 1583.88 317.873C1583.88 320.194 1584.74 321.949 1586.45 323.138C1588.19 324.308 1590.39 324.893 1593.05 324.893ZM1631.63 303.72V329.875H1624.95V286.397H1631.4V293.191H1631.97C1632.99 290.983 1634.53 289.209 1636.61 287.869C1638.69 286.511 1641.37 285.831 1644.65 285.831C1647.59 285.831 1650.17 286.435 1652.38 287.643C1654.58 288.832 1656.3 290.643 1657.53 293.078C1658.75 295.493 1659.37 298.55 1659.37 302.249V329.875H1652.69V302.701C1652.69 299.286 1651.8 296.625 1650.03 294.719C1648.25 292.794 1645.82 291.832 1642.72 291.832C1640.59 291.832 1638.69 292.294 1637.01 293.219C1635.35 294.144 1634.03 295.493 1633.07 297.267C1632.11 299.041 1631.63 301.192 1631.63 303.72ZM1688.79 330.781C1685.17 330.781 1681.97 329.866 1679.19 328.035C1676.42 326.186 1674.25 323.582 1672.68 320.223C1671.12 316.845 1670.33 312.854 1670.33 308.249C1670.33 303.683 1671.12 299.72 1672.68 296.361C1674.25 293.002 1676.43 290.407 1679.22 288.577C1682.01 286.746 1685.24 285.831 1688.9 285.831C1691.73 285.831 1693.97 286.303 1695.61 287.247C1697.27 288.171 1698.54 289.228 1699.4 290.417C1700.29 291.587 1700.98 292.549 1701.47 293.304H1702.04V271.905H1708.72V329.875H1702.26V323.195H1701.47C1700.98 323.987 1700.28 324.988 1699.38 326.195C1698.47 327.384 1697.18 328.45 1695.5 329.394C1693.82 330.318 1691.58 330.781 1688.79 330.781ZM1689.69 324.78C1692.37 324.78 1694.64 324.082 1696.49 322.685C1698.34 321.27 1699.74 319.317 1700.71 316.826C1701.67 314.316 1702.15 311.42 1702.15 308.136C1702.15 304.89 1701.68 302.05 1700.73 299.616C1699.79 297.163 1698.39 295.257 1696.54 293.898C1694.7 292.521 1692.41 291.832 1689.69 291.832C1686.86 291.832 1684.51 292.559 1682.62 294.012C1680.75 295.446 1679.34 297.399 1678.4 299.871C1677.48 302.324 1677.01 305.079 1677.01 308.136C1677.01 311.231 1677.49 314.043 1678.43 316.571C1679.39 319.081 1680.81 321.081 1682.67 322.572C1684.56 324.044 1686.9 324.78 1689.69 324.78Z" fill="white"/>
<path d="M156.337 434.137V383.375H184.593V386.25H159.435V407.293H183.081V410.168H159.435V431.262H185.188V434.137H156.337ZM221.262 404.269L218.461 405.013C218.015 403.625 217.379 402.427 216.553 401.419C215.726 400.411 214.685 399.634 213.43 399.089C212.19 398.527 210.703 398.246 208.968 398.246C206.175 398.246 203.887 398.94 202.102 400.328C200.334 401.716 199.45 403.526 199.45 405.757C199.45 407.574 200.053 409.078 201.259 410.268C202.466 411.441 204.308 412.333 206.787 412.945L212.636 414.407C215.644 415.15 217.908 416.357 219.428 418.026C220.948 419.678 221.708 421.735 221.708 424.197C221.708 426.296 221.138 428.155 219.998 429.774C218.858 431.394 217.28 432.658 215.264 433.567C213.264 434.475 210.934 434.93 208.274 434.93C204.721 434.93 201.805 434.104 199.524 432.451C197.244 430.782 195.782 428.395 195.137 425.288L198.037 424.544C198.583 427.023 199.714 428.915 201.433 430.22C203.168 431.509 205.44 432.154 208.249 432.154C211.356 432.154 213.859 431.418 215.759 429.948C217.676 428.477 218.635 426.593 218.635 424.297C218.635 422.545 218.073 421.066 216.949 419.86C215.826 418.654 214.124 417.77 211.843 417.208L205.771 415.721C202.664 414.96 200.334 413.746 198.781 412.077C197.228 410.392 196.451 408.318 196.451 405.856C196.451 403.807 196.988 402.006 198.062 400.452C199.136 398.899 200.615 397.684 202.499 396.809C204.383 395.933 206.539 395.495 208.968 395.495C212.19 395.495 214.818 396.255 216.85 397.775C218.882 399.296 220.353 401.46 221.262 404.269ZM247.149 434.93C243.91 434.93 241.06 434.079 238.598 432.377C236.136 430.658 234.211 428.312 232.822 425.338C231.451 422.363 230.765 418.992 230.765 415.225C230.765 411.457 231.459 408.086 232.847 405.112C234.235 402.138 236.16 399.791 238.622 398.073C241.085 396.354 243.918 395.495 247.124 395.495C249.537 395.495 251.734 395.991 253.717 396.982C255.717 397.974 257.369 399.353 258.675 401.121C259.996 402.89 260.839 404.939 261.203 407.268H258.129C257.633 404.691 256.394 402.559 254.411 400.874C252.445 399.172 250.024 398.321 247.149 398.321C244.571 398.321 242.274 399.048 240.258 400.502C238.242 401.939 236.656 403.931 235.499 406.475C234.343 409.004 233.764 411.903 233.764 415.175C233.764 418.397 234.326 421.289 235.45 423.85C236.573 426.395 238.143 428.411 240.159 429.898C242.175 431.385 244.505 432.129 247.149 432.129C249.016 432.129 250.718 431.757 252.255 431.014C253.808 430.27 255.105 429.213 256.146 427.841C257.187 426.47 257.873 424.867 258.204 423.032H261.277C260.914 425.379 260.087 427.444 258.798 429.229C257.51 431.014 255.865 432.41 253.866 433.418C251.867 434.426 249.628 434.93 247.149 434.93ZM286.439 434.93C283.299 434.93 280.507 434.087 278.061 432.402C275.616 430.7 273.691 428.362 272.286 425.387C270.882 422.413 270.179 419.025 270.179 415.225C270.179 411.408 270.882 408.02 272.286 405.062C273.691 402.088 275.616 399.75 278.061 398.048C280.507 396.346 283.299 395.495 286.439 395.495C289.579 395.495 292.371 396.346 294.817 398.048C297.262 399.75 299.187 402.088 300.592 405.062C301.997 408.037 302.699 411.424 302.699 415.225C302.699 419.025 301.997 422.413 300.592 425.387C299.187 428.362 297.262 430.7 294.817 432.402C292.371 434.087 289.579 434.93 286.439 434.93ZM286.439 432.129C289.099 432.129 291.421 431.377 293.404 429.873C295.403 428.37 296.948 426.337 298.039 423.776C299.146 421.215 299.7 418.364 299.7 415.225C299.7 412.085 299.146 409.243 298.039 406.698C296.932 404.137 295.387 402.105 293.404 400.601C291.421 399.081 289.099 398.321 286.439 398.321C283.779 398.321 281.457 399.081 279.474 400.601C277.491 402.105 275.946 404.137 274.839 406.698C273.732 409.243 273.178 412.085 273.178 415.225C273.178 418.364 273.724 421.215 274.814 423.776C275.921 426.337 277.466 428.37 279.449 429.873C281.449 431.377 283.779 432.129 286.439 432.129ZM313.813 434.137V396.065H316.763V401.816H317.06C317.787 399.899 319.043 398.378 320.828 397.255C322.612 396.131 324.76 395.569 327.272 395.569C330.032 395.569 332.254 396.23 333.94 397.552C335.642 398.874 336.864 400.667 337.608 402.931H337.881C338.624 400.7 339.954 398.916 341.871 397.577C343.804 396.239 346.184 395.569 349.01 395.569C352.694 395.569 355.504 396.734 357.437 399.064C359.387 401.378 360.362 404.55 360.362 408.582V434.137H357.338V408.582C357.338 405.41 356.578 402.914 355.057 401.097C353.537 399.279 351.306 398.37 348.365 398.37C345.226 398.37 342.813 399.353 341.128 401.32C339.442 403.286 338.599 405.79 338.599 408.83V434.137H335.575V408.384C335.575 405.426 334.832 403.022 333.345 401.171C331.858 399.304 329.627 398.37 326.652 398.37C324.636 398.37 322.893 398.833 321.423 399.758C319.968 400.684 318.837 401.956 318.027 403.575C317.234 405.195 316.837 407.054 316.837 409.152V434.137H313.813ZM383.696 434.955C381.498 434.955 379.482 434.517 377.648 433.641C375.83 432.765 374.368 431.485 373.261 429.799C372.17 428.114 371.625 426.065 371.625 423.652C371.625 422.066 371.906 420.67 372.468 419.463C373.029 418.257 373.897 417.216 375.07 416.34C376.243 415.464 377.747 414.746 379.581 414.184C381.415 413.605 383.605 413.159 386.149 412.845C388.083 412.614 389.81 412.391 391.33 412.176C392.85 411.945 394.04 411.59 394.899 411.11C395.775 410.631 396.213 409.904 396.213 408.929V407.343C396.213 404.567 395.337 402.361 393.585 400.725C391.834 399.089 389.421 398.271 386.348 398.271C383.621 398.271 381.324 398.874 379.457 400.08C377.607 401.27 376.309 402.807 375.566 404.691L372.715 403.625C373.442 401.807 374.492 400.295 375.863 399.089C377.251 397.883 378.838 396.982 380.622 396.387C382.423 395.792 384.307 395.495 386.273 395.495C387.975 395.495 389.595 395.735 391.132 396.214C392.685 396.693 394.065 397.42 395.271 398.395C396.494 399.37 397.46 400.617 398.171 402.138C398.881 403.641 399.237 405.443 399.237 407.541V434.137H396.213V427.271H395.99C395.329 428.692 394.42 429.989 393.263 431.162C392.123 432.319 390.743 433.244 389.124 433.938C387.521 434.616 385.712 434.955 383.696 434.955ZM383.993 432.154C386.373 432.154 388.479 431.575 390.314 430.419C392.164 429.246 393.61 427.643 394.651 425.61C395.692 423.578 396.213 421.273 396.213 418.695V413.093C395.833 413.424 395.279 413.721 394.552 413.986C393.841 414.233 393.032 414.456 392.123 414.655C391.231 414.837 390.289 415.002 389.297 415.15C388.322 415.283 387.372 415.407 386.447 415.522C383.671 415.853 381.407 416.365 379.656 417.059C377.92 417.737 376.648 418.629 375.838 419.736C375.045 420.843 374.649 422.182 374.649 423.751C374.649 426.346 375.541 428.395 377.326 429.898C379.11 431.402 381.333 432.154 383.993 432.154ZM426.072 396.065V398.767H409.44V396.065H426.072ZM415.067 386.944H418.066V425.139C418.066 426.693 418.363 427.965 418.958 428.956C419.569 429.931 420.363 430.658 421.337 431.138C422.329 431.6 423.386 431.832 424.51 431.832C425.055 431.832 425.526 431.79 425.923 431.708C426.336 431.625 426.724 431.518 427.088 431.385L427.831 434.137C427.369 434.302 426.857 434.442 426.295 434.558C425.733 434.69 425.072 434.756 424.312 434.756C422.726 434.756 421.222 434.401 419.801 433.691C418.396 432.98 417.256 431.947 416.38 430.592C415.504 429.237 415.067 427.601 415.067 425.685V386.944ZM438.134 434.137V396.065H441.133V434.137H438.134ZM439.646 389.323C438.985 389.323 438.407 389.092 437.911 388.629C437.432 388.167 437.192 387.605 437.192 386.944C437.192 386.283 437.432 385.721 437.911 385.258C438.39 384.796 438.969 384.564 439.646 384.564C440.307 384.564 440.877 384.796 441.356 385.258C441.852 385.721 442.1 386.283 442.1 386.944C442.1 387.605 441.86 388.167 441.381 388.629C440.902 389.092 440.324 389.323 439.646 389.323ZM468.774 434.93C465.535 434.93 462.685 434.079 460.223 432.377C457.761 430.658 455.835 428.312 454.447 425.338C453.076 422.363 452.39 418.992 452.39 415.225C452.39 411.457 453.084 408.086 454.472 405.112C455.86 402.138 457.785 399.791 460.247 398.073C462.709 396.354 465.543 395.495 468.749 395.495C471.162 395.495 473.359 395.991 475.342 396.982C477.342 397.974 478.994 399.353 480.299 401.121C481.621 402.89 482.464 404.939 482.828 407.268H479.754C479.258 404.691 478.019 402.559 476.036 400.874C474.07 399.172 471.649 398.321 468.774 398.321C466.196 398.321 463.899 399.048 461.883 400.502C459.867 401.939 458.281 403.931 457.124 406.475C455.968 409.004 455.389 411.903 455.389 415.175C455.389 418.397 455.951 421.289 457.075 423.85C458.198 426.395 459.768 428.411 461.784 429.898C463.8 431.385 466.13 432.129 468.774 432.129C470.641 432.129 472.343 431.757 473.88 431.014C475.433 430.27 476.73 429.213 477.771 427.841C478.812 426.47 479.498 424.867 479.828 423.032H482.902C482.538 425.379 481.712 427.444 480.423 429.229C479.134 431.014 477.49 432.41 475.491 433.418C473.491 434.426 471.252 434.93 468.774 434.93ZM504.111 411.433V393.14H512.439C513.513 393.14 514.488 393.372 515.363 393.834C516.239 394.28 516.925 394.925 517.421 395.768C517.933 396.594 518.189 397.577 518.189 398.717C518.189 399.874 517.933 400.89 517.421 401.766C516.908 402.625 516.206 403.303 515.314 403.798C514.438 404.278 513.447 404.517 512.34 404.517H505.449V402.46H511.893C513.034 402.46 513.942 402.129 514.62 401.468C515.314 400.808 515.661 399.89 515.661 398.717C515.661 397.527 515.314 396.643 514.62 396.065C513.942 395.487 513.042 395.198 511.918 395.198H506.515V411.433H504.111ZM514.422 403.08L518.933 411.433H516.256L511.819 403.08H514.422ZM510.629 422.338C507.886 422.338 505.317 421.826 502.921 420.802C500.525 419.777 498.418 418.356 496.6 416.539C494.783 414.721 493.362 412.614 492.337 410.218C491.313 407.822 490.8 405.253 490.8 402.51C490.8 399.767 491.313 397.197 492.337 394.801C493.362 392.405 494.783 390.298 496.6 388.481C498.418 386.663 500.525 385.242 502.921 384.217C505.317 383.193 507.886 382.681 510.629 382.681C513.372 382.681 515.942 383.193 518.338 384.217C520.734 385.242 522.841 386.663 524.658 388.481C526.476 390.298 527.897 392.405 528.922 394.801C529.946 397.197 530.458 399.767 530.458 402.51C530.458 405.253 529.946 407.822 528.922 410.218C527.897 412.614 526.476 414.721 524.658 416.539C522.841 418.356 520.734 419.777 518.338 420.802C515.942 421.826 513.372 422.338 510.629 422.338ZM510.629 419.686C513.802 419.686 516.685 418.918 519.28 417.381C521.891 415.844 523.964 413.779 525.501 411.185C527.038 408.574 527.806 405.682 527.806 402.51C527.806 399.337 527.03 396.453 525.476 393.859C523.94 391.265 521.874 389.199 519.28 387.663C516.685 386.109 513.802 385.333 510.629 385.333C507.457 385.333 504.565 386.101 501.954 387.638C499.36 389.175 497.294 391.248 495.758 393.859C494.221 396.453 493.452 399.337 493.452 402.51C493.452 405.666 494.221 408.549 495.758 411.16C497.294 413.771 499.36 415.844 501.954 417.381C504.565 418.918 507.457 419.686 510.629 419.686ZM589.786 396.065C589.521 392.909 588.233 390.356 585.919 388.406C583.622 386.456 580.648 385.481 576.996 385.481C574.534 385.481 572.345 385.936 570.428 386.845C568.511 387.753 567.007 388.993 565.917 390.563C564.826 392.132 564.281 393.933 564.281 395.966C564.281 397.271 564.529 398.453 565.024 399.51C565.537 400.551 566.255 401.485 567.181 402.311C568.106 403.121 569.205 403.831 570.477 404.443C571.75 405.054 573.154 405.591 574.691 406.054L580.243 407.69C582.143 408.268 583.895 408.937 585.498 409.698C587.117 410.458 588.522 411.366 589.711 412.424C590.918 413.465 591.851 414.688 592.512 416.092C593.19 417.497 593.529 419.116 593.529 420.95C593.529 423.627 592.835 426.023 591.446 428.138C590.075 430.254 588.117 431.922 585.572 433.145C583.044 434.352 580.061 434.955 576.624 434.955C573.353 434.955 570.502 434.401 568.073 433.294C565.661 432.187 563.752 430.65 562.347 428.684C560.943 426.701 560.15 424.421 559.968 421.843H563.141C563.306 423.941 563.975 425.759 565.148 427.296C566.338 428.816 567.916 429.989 569.882 430.815C571.849 431.642 574.096 432.055 576.624 432.055C579.351 432.055 581.755 431.592 583.837 430.667C585.919 429.725 587.547 428.419 588.72 426.75C589.893 425.081 590.48 423.14 590.48 420.926C590.48 419.141 590.058 417.613 589.216 416.34C588.373 415.068 587.125 413.969 585.473 413.044C583.837 412.118 581.805 411.292 579.376 410.565L573.452 408.78C569.486 407.574 566.454 405.93 564.355 403.848C562.273 401.766 561.232 399.172 561.232 396.065C561.232 393.454 561.926 391.141 563.314 389.125C564.702 387.092 566.586 385.498 568.965 384.341C571.361 383.185 574.063 382.606 577.07 382.606C580.094 382.606 582.763 383.193 585.076 384.366C587.39 385.523 589.224 387.117 590.579 389.15C591.934 391.166 592.686 393.471 592.835 396.065H589.786ZM605.405 448.414V396.065H608.355V404.567H608.726C609.321 402.931 610.156 401.427 611.23 400.056C612.32 398.684 613.667 397.585 615.27 396.759C616.889 395.916 618.79 395.495 620.971 395.495C624.044 395.495 626.721 396.338 629.002 398.023C631.282 399.709 633.05 402.039 634.306 405.013C635.562 407.971 636.19 411.366 636.19 415.2C636.19 419.034 635.553 422.438 634.281 425.412C633.025 428.37 631.257 430.7 628.977 432.402C626.713 434.087 624.061 434.93 621.02 434.93C618.856 434.93 616.955 434.517 615.32 433.691C613.7 432.864 612.337 431.766 611.23 430.394C610.139 429.006 609.305 427.486 608.726 425.833H608.429V448.414H605.405ZM608.379 415.175C608.379 418.414 608.875 421.314 609.867 423.875C610.858 426.42 612.279 428.436 614.13 429.923C615.981 431.394 618.187 432.129 620.748 432.129C623.342 432.129 625.565 431.385 627.415 429.898C629.282 428.395 630.704 426.362 631.678 423.801C632.67 421.24 633.166 418.364 633.166 415.175C633.166 411.986 632.678 409.119 631.703 406.574C630.728 404.03 629.316 402.022 627.465 400.551C625.614 399.064 623.375 398.321 620.748 398.321C618.153 398.321 615.931 399.056 614.08 400.527C612.246 401.981 610.833 403.98 609.842 406.525C608.867 409.053 608.379 411.937 608.379 415.175ZM662.188 434.93C658.751 434.93 655.76 434.079 653.215 432.377C650.671 430.675 648.704 428.345 647.316 425.387C645.928 422.429 645.234 419.058 645.234 415.274C645.234 411.474 645.928 408.086 647.316 405.112C648.721 402.138 650.646 399.791 653.092 398.073C655.537 396.354 658.33 395.495 661.469 395.495C663.601 395.495 665.617 395.925 667.517 396.784C669.434 397.627 671.119 398.849 672.573 400.452C674.044 402.055 675.193 403.988 676.019 406.252C676.862 408.516 677.283 411.061 677.283 413.886V415.77H647.143V413.019H674.259C674.259 410.259 673.697 407.772 672.573 405.558C671.45 403.344 669.921 401.584 667.988 400.279C666.055 398.973 663.882 398.321 661.469 398.321C658.941 398.321 656.686 399.031 654.703 400.452C652.736 401.857 651.175 403.757 650.018 406.153C648.878 408.549 648.283 411.226 648.233 414.184V415.423C648.233 418.596 648.787 421.446 649.894 423.974C651.018 426.486 652.621 428.477 654.703 429.948C656.785 431.402 659.28 432.129 662.188 432.129C664.27 432.129 666.046 431.782 667.517 431.088C669.004 430.377 670.219 429.518 671.161 428.51C672.103 427.502 672.813 426.527 673.292 425.585L676.044 426.701C675.465 427.973 674.565 429.246 673.342 430.518C672.136 431.774 670.599 432.823 668.732 433.666C666.881 434.509 664.7 434.93 662.188 434.93ZM702.668 434.93C699.429 434.93 696.579 434.079 694.117 432.377C691.655 430.658 689.729 428.312 688.341 425.338C686.97 422.363 686.284 418.992 686.284 415.225C686.284 411.457 686.978 408.086 688.366 405.112C689.754 402.138 691.679 399.791 694.141 398.073C696.604 396.354 699.437 395.495 702.643 395.495C705.056 395.495 707.253 395.991 709.236 396.982C711.236 397.974 712.888 399.353 714.193 401.121C715.515 402.89 716.358 404.939 716.722 407.268H713.648C713.152 404.691 711.913 402.559 709.93 400.874C707.964 399.172 705.543 398.321 702.668 398.321C700.09 398.321 697.793 399.048 695.777 400.502C693.761 401.939 692.175 403.931 691.018 406.475C689.862 409.004 689.283 411.903 689.283 415.175C689.283 418.397 689.845 421.289 690.969 423.85C692.092 426.395 693.662 428.411 695.678 429.898C697.694 431.385 700.024 432.129 702.668 432.129C704.535 432.129 706.237 431.757 707.774 431.014C709.327 430.27 710.624 429.213 711.665 427.841C712.706 426.47 713.392 424.867 713.723 423.032H716.796C716.432 425.379 715.606 427.444 714.317 429.229C713.029 431.014 711.384 432.41 709.385 433.418C707.386 434.426 705.147 434.93 702.668 434.93ZM727.954 434.137V396.065H730.953V434.137H727.954ZM729.466 389.323C728.805 389.323 728.226 389.092 727.731 388.629C727.252 388.167 727.012 387.605 727.012 386.944C727.012 386.283 727.252 385.721 727.731 385.258C728.21 384.796 728.788 384.564 729.466 384.564C730.127 384.564 730.697 384.796 731.176 385.258C731.672 385.721 731.92 386.283 731.92 386.944C731.92 387.605 731.68 388.167 731.201 388.629C730.722 389.092 730.143 389.323 729.466 389.323ZM754.405 434.955C752.207 434.955 750.191 434.517 748.357 433.641C746.539 432.765 745.077 431.485 743.97 429.799C742.879 428.114 742.334 426.065 742.334 423.652C742.334 422.066 742.615 420.67 743.177 419.463C743.738 418.257 744.606 417.216 745.779 416.34C746.952 415.464 748.456 414.746 750.29 414.184C752.124 413.605 754.314 413.159 756.859 412.845C758.792 412.614 760.519 412.391 762.039 412.176C763.559 411.945 764.749 411.59 765.608 411.11C766.484 410.631 766.922 409.904 766.922 408.929V407.343C766.922 404.567 766.046 402.361 764.294 400.725C762.543 399.089 760.13 398.271 757.057 398.271C754.33 398.271 752.033 398.874 750.166 400.08C748.316 401.27 747.018 402.807 746.275 404.691L743.424 403.625C744.151 401.807 745.201 400.295 746.572 399.089C747.96 397.883 749.547 396.982 751.331 396.387C753.132 395.792 755.016 395.495 756.982 395.495C758.684 395.495 760.304 395.735 761.841 396.214C763.394 396.693 764.774 397.42 765.98 398.395C767.203 399.37 768.169 400.617 768.88 402.138C769.59 403.641 769.946 405.443 769.946 407.541V434.137H766.922V427.271H766.699C766.038 428.692 765.129 429.989 763.972 431.162C762.832 432.319 761.452 433.244 759.833 433.938C758.23 434.616 756.421 434.955 754.405 434.955ZM754.702 432.154C757.082 432.154 759.188 431.575 761.023 430.419C762.873 429.246 764.319 427.643 765.36 425.61C766.401 423.578 766.922 421.273 766.922 418.695V413.093C766.542 413.424 765.988 413.721 765.261 413.986C764.55 414.233 763.741 414.456 762.832 414.655C761.94 414.837 760.998 415.002 760.006 415.15C759.031 415.283 758.081 415.407 757.156 415.522C754.38 415.853 752.116 416.365 750.365 417.059C748.629 417.737 747.357 418.629 746.547 419.736C745.754 420.843 745.358 422.182 745.358 423.751C745.358 426.346 746.25 428.395 748.035 429.898C749.819 431.402 752.042 432.154 754.702 432.154ZM786.346 383.375V434.137H783.322V383.375H786.346ZM799.709 434.137V396.065H802.708V434.137H799.709ZM801.221 389.323C800.56 389.323 799.982 389.092 799.486 388.629C799.007 388.167 798.767 387.605 798.767 386.944C798.767 386.283 799.007 385.721 799.486 385.258C799.965 384.796 800.544 384.564 801.221 384.564C801.882 384.564 802.452 384.796 802.932 385.258C803.427 385.721 803.675 386.283 803.675 386.944C803.675 387.605 803.436 388.167 802.956 388.629C802.477 389.092 801.899 389.323 801.221 389.323ZM840.264 404.269L837.463 405.013C837.017 403.625 836.38 402.427 835.554 401.419C834.728 400.411 833.687 399.634 832.431 399.089C831.192 398.527 829.705 398.246 827.97 398.246C825.177 398.246 822.888 398.94 821.104 400.328C819.336 401.716 818.452 403.526 818.452 405.757C818.452 407.574 819.055 409.078 820.261 410.268C821.467 411.441 823.31 412.333 825.788 412.945L831.638 414.407C834.645 415.15 836.909 416.357 838.429 418.026C839.95 419.678 840.71 421.735 840.71 424.197C840.71 426.296 840.14 428.155 838.999 429.774C837.859 431.394 836.281 432.658 834.265 433.567C832.266 434.475 829.936 434.93 827.276 434.93C823.723 434.93 820.806 434.104 818.526 432.451C816.246 430.782 814.783 428.395 814.139 425.288L817.039 424.544C817.584 427.023 818.716 428.915 820.435 430.22C822.17 431.509 824.442 432.154 827.251 432.154C830.357 432.154 832.861 431.418 834.761 429.948C836.678 428.477 837.636 426.593 837.636 424.297C837.636 422.545 837.074 421.066 835.951 419.86C834.827 418.654 833.125 417.77 830.845 417.208L824.772 415.721C821.666 414.96 819.336 413.746 817.782 412.077C816.229 410.392 815.453 408.318 815.453 405.856C815.453 403.807 815.99 402.006 817.064 400.452C818.138 398.899 819.617 397.684 821.5 396.809C823.384 395.933 825.541 395.495 827.97 395.495C831.192 395.495 833.819 396.255 835.852 397.775C837.884 399.296 839.355 401.46 840.264 404.269ZM865.333 396.065V398.767H848.701V396.065H865.333ZM854.328 386.944H857.327V425.139C857.327 426.693 857.624 427.965 858.219 428.956C858.83 429.931 859.624 430.658 860.598 431.138C861.59 431.6 862.647 431.832 863.771 431.832C864.316 431.832 864.787 431.79 865.184 431.708C865.597 431.625 865.985 431.518 866.349 431.385L867.092 434.137C866.63 434.302 866.118 434.442 865.556 434.558C864.994 434.69 864.333 434.756 863.573 434.756C861.986 434.756 860.483 434.401 859.062 433.691C857.657 432.98 856.517 431.947 855.641 430.592C854.765 429.237 854.328 427.601 854.328 425.685V386.944ZM900.756 404.269L897.955 405.013C897.509 403.625 896.873 402.427 896.047 401.419C895.22 400.411 894.179 399.634 892.924 399.089C891.684 398.527 890.197 398.246 888.462 398.246C885.67 398.246 883.381 398.94 881.596 400.328C879.828 401.716 878.944 403.526 878.944 405.757C878.944 407.574 879.547 409.078 880.754 410.268C881.96 411.441 883.802 412.333 886.281 412.945L892.13 414.407C895.138 415.15 897.402 416.357 898.922 418.026C900.442 419.678 901.202 421.735 901.202 424.197C901.202 426.296 900.632 428.155 899.492 429.774C898.352 431.394 896.774 432.658 894.758 433.567C892.758 434.475 890.428 434.93 887.768 434.93C884.215 434.93 881.299 434.104 879.019 432.451C876.738 430.782 875.276 428.395 874.631 425.288L877.531 424.544C878.077 427.023 879.209 428.915 880.927 430.22C882.662 431.509 884.934 432.154 887.743 432.154C890.85 432.154 893.353 431.418 895.254 429.948C897.17 428.477 898.129 426.593 898.129 424.297C898.129 422.545 897.567 421.066 896.443 419.86C895.32 418.654 893.618 417.77 891.337 417.208L885.265 415.721C882.158 414.96 879.828 413.746 878.275 412.077C876.722 410.392 875.945 408.318 875.945 405.856C875.945 403.807 876.482 402.006 877.556 400.452C878.63 398.899 880.109 397.684 881.993 396.809C883.877 395.933 886.033 395.495 888.462 395.495C891.684 395.495 894.312 396.255 896.344 397.775C898.377 399.296 899.847 401.46 900.756 404.269ZM961.323 407.318V410.193H926.424V407.318H961.323ZM986.315 386.25V383.375H1021.88V386.25H1005.65V434.137H1002.55V386.25H986.315ZM1041.44 434.93C1038.3 434.93 1035.51 434.087 1033.06 432.402C1030.61 430.7 1028.69 428.362 1027.28 425.387C1025.88 422.413 1025.18 419.025 1025.18 415.225C1025.18 411.408 1025.88 408.02 1027.28 405.062C1028.69 402.088 1030.61 399.75 1033.06 398.048C1035.51 396.346 1038.3 395.495 1041.44 395.495C1044.58 395.495 1047.37 396.346 1049.82 398.048C1052.26 399.75 1054.19 402.088 1055.59 405.062C1057 408.037 1057.7 411.424 1057.7 415.225C1057.7 419.025 1057 422.413 1055.59 425.387C1054.19 428.362 1052.26 430.7 1049.82 432.402C1047.37 434.087 1044.58 434.93 1041.44 434.93ZM1041.44 432.129C1044.1 432.129 1046.42 431.377 1048.4 429.873C1050.4 428.37 1051.95 426.337 1053.04 423.776C1054.14 421.215 1054.7 418.364 1054.7 415.225C1054.7 412.085 1054.14 409.243 1053.04 406.698C1051.93 404.137 1050.39 402.105 1048.4 400.601C1046.42 399.081 1044.1 398.321 1041.44 398.321C1038.78 398.321 1036.46 399.081 1034.47 400.601C1032.49 402.105 1030.94 404.137 1029.84 406.698C1028.73 409.243 1028.18 412.085 1028.18 415.225C1028.18 418.364 1028.72 421.215 1029.81 423.776C1030.92 426.337 1032.47 428.37 1034.45 429.873C1036.45 431.377 1038.78 432.129 1041.44 432.129ZM1082.96 434.93C1079.83 434.93 1077.03 434.087 1074.59 432.402C1072.14 430.7 1070.22 428.362 1068.81 425.387C1067.41 422.413 1066.7 419.025 1066.7 415.225C1066.7 411.408 1067.41 408.02 1068.81 405.062C1070.22 402.088 1072.14 399.75 1074.59 398.048C1077.03 396.346 1079.83 395.495 1082.96 395.495C1086.1 395.495 1088.9 396.346 1091.34 398.048C1093.79 399.75 1095.71 402.088 1097.12 405.062C1098.52 408.037 1099.22 411.424 1099.22 415.225C1099.22 419.025 1098.52 422.413 1097.12 425.387C1095.71 428.362 1093.79 430.7 1091.34 432.402C1088.9 434.087 1086.1 434.93 1082.96 434.93ZM1082.96 432.129C1085.63 432.129 1087.95 431.377 1089.93 429.873C1091.93 428.37 1093.47 426.337 1094.56 423.776C1095.67 421.215 1096.23 418.364 1096.23 415.225C1096.23 412.085 1095.67 409.243 1094.56 406.698C1093.46 404.137 1091.91 402.105 1089.93 400.601C1087.95 399.081 1085.63 398.321 1082.96 398.321C1080.3 398.321 1077.98 399.081 1076 400.601C1074.02 402.105 1072.47 404.137 1071.36 406.698C1070.26 409.243 1069.7 412.085 1069.7 415.225C1069.7 418.364 1070.25 421.215 1071.34 423.776C1072.45 426.337 1073.99 428.37 1075.98 429.873C1077.97 431.377 1080.3 432.129 1082.96 432.129ZM1113.36 383.375V434.137H1110.34V383.375H1113.36ZM1147.97 434.137V383.375H1151.07V407.293H1181.66V383.375H1184.75V434.137H1181.66V410.168H1151.07V434.137H1147.97ZM1213.91 434.93C1210.48 434.93 1207.49 434.079 1204.94 432.377C1202.4 430.675 1200.43 428.345 1199.04 425.387C1197.65 422.429 1196.96 419.058 1196.96 415.274C1196.96 411.474 1197.65 408.086 1199.04 405.112C1200.45 402.138 1202.37 399.791 1204.82 398.073C1207.26 396.354 1210.06 395.495 1213.19 395.495C1215.33 395.495 1217.34 395.925 1219.24 396.784C1221.16 397.627 1222.85 398.849 1224.3 400.452C1225.77 402.055 1226.92 403.988 1227.74 406.252C1228.59 408.516 1229.01 411.061 1229.01 413.886V415.77H1198.87V413.019H1225.98C1225.98 410.259 1225.42 407.772 1224.3 405.558C1223.18 403.344 1221.65 401.584 1219.71 400.279C1217.78 398.973 1215.61 398.321 1213.19 398.321C1210.67 398.321 1208.41 399.031 1206.43 400.452C1204.46 401.857 1202.9 403.757 1201.74 406.153C1200.6 408.549 1200.01 411.226 1199.96 414.184V415.423C1199.96 418.596 1200.51 421.446 1201.62 423.974C1202.74 426.486 1204.35 428.477 1206.43 429.948C1208.51 431.402 1211.01 432.129 1213.91 432.129C1216 432.129 1217.77 431.782 1219.24 431.088C1220.73 430.377 1221.94 429.518 1222.89 428.51C1223.83 427.502 1224.54 426.527 1225.02 425.585L1227.77 426.701C1227.19 427.973 1226.29 429.246 1225.07 430.518C1223.86 431.774 1222.32 432.823 1220.46 433.666C1218.61 434.509 1216.43 434.93 1213.91 434.93ZM1250.2 434.955C1248.01 434.955 1245.99 434.517 1244.16 433.641C1242.34 432.765 1240.88 431.485 1239.77 429.799C1238.68 428.114 1238.13 426.065 1238.13 423.652C1238.13 422.066 1238.41 420.67 1238.98 419.463C1239.54 418.257 1240.41 417.216 1241.58 416.34C1242.75 415.464 1244.26 414.746 1246.09 414.184C1247.92 413.605 1250.11 413.159 1252.66 412.845C1254.59 412.614 1256.32 412.391 1257.84 412.176C1259.36 411.945 1260.55 411.59 1261.41 411.11C1262.28 410.631 1262.72 409.904 1262.72 408.929V407.343C1262.72 404.567 1261.85 402.361 1260.09 400.725C1258.34 399.089 1255.93 398.271 1252.86 398.271C1250.13 398.271 1247.83 398.874 1245.97 400.08C1244.12 401.27 1242.82 402.807 1242.07 404.691L1239.22 403.625C1239.95 401.807 1241 400.295 1242.37 399.089C1243.76 397.883 1245.35 396.982 1247.13 396.387C1248.93 395.792 1250.82 395.495 1252.78 395.495C1254.48 395.495 1256.1 395.735 1257.64 396.214C1259.19 396.693 1260.57 397.42 1261.78 398.395C1263 399.37 1263.97 400.617 1264.68 402.138C1265.39 403.641 1265.75 405.443 1265.75 407.541V434.137H1262.72V427.271H1262.5C1261.84 428.692 1260.93 429.989 1259.77 431.162C1258.63 432.319 1257.25 433.244 1255.63 433.938C1254.03 434.616 1252.22 434.955 1250.2 434.955ZM1250.5 432.154C1252.88 432.154 1254.99 431.575 1256.82 430.419C1258.67 429.246 1260.12 427.643 1261.16 425.61C1262.2 423.578 1262.72 421.273 1262.72 418.695V413.093C1262.34 413.424 1261.79 413.721 1261.06 413.986C1260.35 414.233 1259.54 414.456 1258.63 414.655C1257.74 414.837 1256.8 415.002 1255.81 415.15C1254.83 415.283 1253.88 415.407 1252.96 415.522C1250.18 415.853 1247.92 416.365 1246.16 417.059C1244.43 417.737 1243.16 418.629 1242.35 419.736C1241.55 420.843 1241.16 422.182 1241.16 423.751C1241.16 426.346 1242.05 428.395 1243.83 429.898C1245.62 431.402 1247.84 432.154 1250.5 432.154ZM1292.18 434.93C1289.13 434.93 1286.46 434.087 1284.18 432.402C1281.9 430.716 1280.13 428.395 1278.87 425.437C1277.63 422.462 1277.01 419.05 1277.01 415.2C1277.01 411.383 1277.64 407.996 1278.9 405.038C1280.17 402.063 1281.95 399.733 1284.23 398.048C1286.51 396.346 1289.17 395.495 1292.21 395.495C1294.39 395.495 1296.28 395.916 1297.88 396.759C1299.5 397.585 1300.86 398.684 1301.95 400.056C1303.06 401.427 1303.9 402.931 1304.48 404.567H1304.78V383.375H1307.77V434.137H1304.85V425.833H1304.48C1303.87 427.469 1303.02 428.981 1301.93 430.369C1300.83 431.741 1299.48 432.848 1297.86 433.691C1296.24 434.517 1294.35 434.93 1292.18 434.93ZM1292.46 432.129C1295.03 432.129 1297.24 431.394 1299.07 429.923C1300.93 428.436 1302.34 426.42 1303.31 423.875C1304.3 421.314 1304.8 418.414 1304.8 415.175C1304.8 411.937 1304.3 409.053 1303.31 406.525C1302.34 403.98 1300.93 401.981 1299.07 400.527C1297.24 399.056 1295.03 398.321 1292.46 398.321C1289.85 398.321 1287.61 399.064 1285.74 400.551C1283.89 402.022 1282.47 404.03 1281.48 406.574C1280.5 409.119 1280.01 411.986 1280.01 415.175C1280.01 418.364 1280.5 421.24 1281.48 423.801C1282.47 426.362 1283.89 428.395 1285.74 429.898C1287.61 431.385 1289.85 432.129 1292.46 432.129ZM1346.27 404.269L1343.47 405.013C1343.02 403.625 1342.39 402.427 1341.56 401.419C1340.74 400.411 1339.69 399.634 1338.44 399.089C1337.2 398.527 1335.71 398.246 1333.98 398.246C1331.19 398.246 1328.9 398.94 1327.11 400.328C1325.34 401.716 1324.46 403.526 1324.46 405.757C1324.46 407.574 1325.06 409.078 1326.27 410.268C1327.48 411.441 1329.32 412.333 1331.8 412.945L1337.65 414.407C1340.65 415.15 1342.92 416.357 1344.44 418.026C1345.96 419.678 1346.72 421.735 1346.72 424.197C1346.72 426.296 1346.15 428.155 1345.01 429.774C1343.87 431.394 1342.29 432.658 1340.27 433.567C1338.27 434.475 1335.94 434.93 1333.28 434.93C1329.73 434.93 1326.81 434.104 1324.53 432.451C1322.25 430.782 1320.79 428.395 1320.15 425.288L1323.05 424.544C1323.59 427.023 1324.72 428.915 1326.44 430.22C1328.18 431.509 1330.45 432.154 1333.26 432.154C1336.37 432.154 1338.87 431.418 1340.77 429.948C1342.69 428.477 1343.64 426.593 1343.64 424.297C1343.64 422.545 1343.08 421.066 1341.96 419.86C1340.84 418.654 1339.13 417.77 1336.85 417.208L1330.78 415.721C1327.67 414.96 1325.34 413.746 1323.79 412.077C1322.24 410.392 1321.46 408.318 1321.46 405.856C1321.46 403.807 1322 402.006 1323.07 400.452C1324.15 398.899 1325.62 397.684 1327.51 396.809C1329.39 395.933 1331.55 395.495 1333.98 395.495C1337.2 395.495 1339.83 396.255 1341.86 397.775C1343.89 399.296 1345.36 401.46 1346.27 404.269ZM1406.84 407.318V410.193H1371.94V407.318H1406.84ZM1435.2 434.137V383.375H1438.3V431.262H1463.09V434.137H1435.2ZM1484.18 434.955C1481.99 434.955 1479.97 434.517 1478.14 433.641C1476.32 432.765 1474.86 431.485 1473.75 429.799C1472.66 428.114 1472.11 426.065 1472.11 423.652C1472.11 422.066 1472.39 420.67 1472.96 419.463C1473.52 418.257 1474.38 417.216 1475.56 416.34C1476.73 415.464 1478.23 414.746 1480.07 414.184C1481.9 413.605 1484.09 413.159 1486.64 412.845C1488.57 412.614 1490.3 412.391 1491.82 412.176C1493.34 411.945 1494.53 411.59 1495.39 411.11C1496.26 410.631 1496.7 409.904 1496.7 408.929V407.343C1496.7 404.567 1495.82 402.361 1494.07 400.725C1492.32 399.089 1489.91 398.271 1486.84 398.271C1484.11 398.271 1481.81 398.874 1479.94 400.08C1478.09 401.27 1476.8 402.807 1476.05 404.691L1473.2 403.625C1473.93 401.807 1474.98 400.295 1476.35 399.089C1477.74 397.883 1479.33 396.982 1481.11 396.387C1482.91 395.792 1484.79 395.495 1486.76 395.495C1488.46 395.495 1490.08 395.735 1491.62 396.214C1493.17 396.693 1494.55 397.42 1495.76 398.395C1496.98 399.37 1497.95 400.617 1498.66 402.138C1499.37 403.641 1499.72 405.443 1499.72 407.541V434.137H1496.7V427.271H1496.48C1495.82 428.692 1494.91 429.989 1493.75 431.162C1492.61 432.319 1491.23 433.244 1489.61 433.938C1488.01 434.616 1486.2 434.955 1484.18 434.955ZM1484.48 432.154C1486.86 432.154 1488.97 431.575 1490.8 430.419C1492.65 429.246 1494.1 427.643 1495.14 425.61C1496.18 423.578 1496.7 421.273 1496.7 418.695V413.093C1496.32 413.424 1495.77 413.721 1495.04 413.986C1494.33 414.233 1493.52 414.456 1492.61 414.655C1491.72 414.837 1490.78 415.002 1489.78 415.15C1488.81 415.283 1487.86 415.407 1486.93 415.522C1484.16 415.853 1481.89 416.365 1480.14 417.059C1478.41 417.737 1477.14 418.629 1476.33 419.736C1475.53 420.843 1475.14 422.182 1475.14 423.751C1475.14 426.346 1476.03 428.395 1477.81 429.898C1479.6 431.402 1481.82 432.154 1484.48 432.154ZM1526.56 396.065V398.767H1509.93V396.065H1526.56ZM1515.55 386.944H1518.55V425.139C1518.55 426.693 1518.85 427.965 1519.45 428.956C1520.06 429.931 1520.85 430.658 1521.83 431.138C1522.82 431.6 1523.87 431.832 1525 431.832C1525.54 431.832 1526.01 431.79 1526.41 431.708C1526.82 431.625 1527.21 431.518 1527.58 431.385L1528.32 434.137C1527.86 434.302 1527.34 434.442 1526.78 434.558C1526.22 434.69 1525.56 434.756 1524.8 434.756C1523.21 434.756 1521.71 434.401 1520.29 433.691C1518.88 432.98 1517.74 431.947 1516.87 430.592C1515.99 429.237 1515.55 427.601 1515.55 425.685V386.944ZM1542.31 409.45V434.137H1539.29V383.375H1542.31V402.088H1542.61C1543.5 400.105 1544.93 398.527 1546.88 397.354C1548.84 396.164 1551.2 395.569 1553.94 395.569C1556.5 395.569 1558.76 396.115 1560.71 397.205C1562.66 398.279 1564.18 399.824 1565.27 401.84C1566.37 403.84 1566.93 406.236 1566.93 409.028V434.137H1563.93V409.152C1563.93 405.897 1562.96 403.286 1561.03 401.32C1559.1 399.353 1556.54 398.37 1553.37 398.37C1551.24 398.37 1549.34 398.833 1547.67 399.758C1546 400.684 1544.69 401.981 1543.73 403.65C1542.79 405.302 1542.31 407.235 1542.31 409.45ZM1594.98 434.93C1591.55 434.93 1588.56 434.079 1586.01 432.377C1583.47 430.675 1581.5 428.345 1580.11 425.387C1578.72 422.429 1578.03 419.058 1578.03 415.274C1578.03 411.474 1578.72 408.086 1580.11 405.112C1581.52 402.138 1583.44 399.791 1585.89 398.073C1588.33 396.354 1591.12 395.495 1594.26 395.495C1596.4 395.495 1598.41 395.925 1600.31 396.784C1602.23 397.627 1603.91 398.849 1605.37 400.452C1606.84 402.055 1607.99 403.988 1608.81 406.252C1609.66 408.516 1610.08 411.061 1610.08 413.886V415.77H1579.94V413.019H1607.05C1607.05 410.259 1606.49 407.772 1605.37 405.558C1604.25 403.344 1602.72 401.584 1600.78 400.279C1598.85 398.973 1596.68 398.321 1594.26 398.321C1591.74 398.321 1589.48 399.031 1587.5 400.452C1585.53 401.857 1583.97 403.757 1582.81 406.153C1581.67 408.549 1581.08 411.226 1581.03 414.184V415.423C1581.03 418.596 1581.58 421.446 1582.69 423.974C1583.81 426.486 1585.42 428.477 1587.5 429.948C1589.58 431.402 1592.08 432.129 1594.98 432.129C1597.07 432.129 1598.84 431.782 1600.31 431.088C1601.8 430.377 1603.01 429.518 1603.96 428.51C1604.9 427.502 1605.61 426.527 1606.09 425.585L1608.84 426.701C1608.26 427.973 1607.36 429.246 1606.14 430.518C1604.93 431.774 1603.39 432.823 1601.53 433.666C1599.68 434.509 1597.49 434.93 1594.98 434.93ZM1645.38 404.269L1642.58 405.013C1642.13 403.625 1641.49 402.427 1640.67 401.419C1639.84 400.411 1638.8 399.634 1637.55 399.089C1636.31 398.527 1634.82 398.246 1633.08 398.246C1630.29 398.246 1628 398.94 1626.22 400.328C1624.45 401.716 1623.57 403.526 1623.57 405.757C1623.57 407.574 1624.17 409.078 1625.38 410.268C1626.58 411.441 1628.42 412.333 1630.9 412.945L1636.75 414.407C1639.76 415.15 1642.02 416.357 1643.54 418.026C1645.06 419.678 1645.82 421.735 1645.82 424.197C1645.82 426.296 1645.25 428.155 1644.11 429.774C1642.97 431.394 1641.4 432.658 1639.38 433.567C1637.38 434.475 1635.05 434.93 1632.39 434.93C1628.84 434.93 1625.92 434.104 1623.64 432.451C1621.36 430.782 1619.9 428.395 1619.25 425.288L1622.15 424.544C1622.7 427.023 1623.83 428.915 1625.55 430.22C1627.28 431.509 1629.56 432.154 1632.36 432.154C1635.47 432.154 1637.97 431.418 1639.88 429.948C1641.79 428.477 1642.75 426.593 1642.75 424.297C1642.75 422.545 1642.19 421.066 1641.06 419.86C1639.94 418.654 1638.24 417.77 1635.96 417.208L1629.89 415.721C1626.78 414.96 1624.45 413.746 1622.9 412.077C1621.34 410.392 1620.57 408.318 1620.57 405.856C1620.57 403.807 1621.1 402.006 1622.18 400.452C1623.25 398.899 1624.73 397.684 1626.61 396.809C1628.5 395.933 1630.65 395.495 1633.08 395.495C1636.31 395.495 1638.93 396.255 1640.97 397.775C1643 399.296 1644.47 401.46 1645.38 404.269Z" fill="white"/>
</svg>
