<svg width="1972" height="500" viewBox="0 0 1972 500" fill="none" xmlns="http://www.w3.org/2000/svg">
<path fill-rule="evenodd" clip-rule="evenodd" d="M500 250C500 388.072 388.07 500 250 500C111.93 500 0 388.072 0 250C0 111.93 111.93 0 250 0C388.07 0 500 111.93 500 250ZM27.5 250C27.5 372.883 127.117 472.5 250 472.5C372.883 472.5 472.5 372.883 472.5 250C472.5 127.117 372.883 27.5 250 27.5C127.117 27.5 27.5 127.117 27.5 250ZM250.73 46.25L306.859 78.658V143.473L250.008 175.5V195H250.555C261.91 195 272.473 198.406 281.27 204.256L369.988 255.508L398.035 271.668L426.117 287.916V352.73L369.988 385.138L313.855 352.73L314.5 287.59L298.625 278.422C292.461 289.031 282.891 297.414 271.406 302.066L157.43 367.871L157.375 367.78L129.234 384.027L73.1055 351.619V286.805L129.234 254.398L185.367 287.59L201.836 278.08C197.199 269.967 194.551 260.571 194.551 250.557V250.33H194.453V111.441H194.598V78.658L250.73 46.25ZM230 250L250 270L270 250L250 230L230 250Z" fill="#104D84"/>
<path d="M1943.81 218.058V207.464H1949.05C1949.64 207.464 1950.2 207.598 1950.74 207.866C1951.28 208.125 1951.72 208.512 1952.06 209.029C1952.4 209.546 1952.58 210.182 1952.58 210.938C1952.58 211.694 1952.4 212.34 1952.05 212.876C1951.69 213.402 1951.23 213.804 1950.67 214.082C1950.11 214.359 1949.53 214.498 1948.92 214.498H1945.26V212.589H1948.28C1948.66 212.589 1949 212.45 1949.32 212.173C1949.63 211.895 1949.79 211.484 1949.79 210.938C1949.79 210.364 1949.63 209.962 1949.32 209.732C1949 209.503 1948.67 209.388 1948.33 209.388H1946.42V218.058H1943.81ZM1950.45 213.135L1952.95 218.058H1950.08L1947.71 213.135H1950.45ZM1947.93 224.374C1946.34 224.374 1944.85 224.078 1943.46 223.484C1942.07 222.891 1940.85 222.068 1939.8 221.015C1938.75 219.963 1937.93 218.742 1937.33 217.355C1936.74 215.967 1936.44 214.479 1936.44 212.89C1936.44 211.302 1936.74 209.814 1937.33 208.426C1937.93 207.039 1938.75 205.818 1939.8 204.766C1940.85 203.713 1942.07 202.89 1943.46 202.297C1944.85 201.703 1946.34 201.407 1947.93 201.407C1949.51 201.407 1951 201.703 1952.39 202.297C1953.78 202.89 1955 203.713 1956.05 204.766C1957.1 205.818 1957.93 207.039 1958.52 208.426C1959.11 209.814 1959.41 211.302 1959.41 212.89C1959.41 214.479 1959.11 215.967 1958.52 217.355C1957.93 218.742 1957.1 219.963 1956.05 221.015C1955 222.068 1953.78 222.891 1952.39 223.484C1951 224.078 1949.51 224.374 1947.93 224.374ZM1947.93 221.432C1949.5 221.432 1950.93 221.049 1952.22 220.283C1953.51 219.518 1954.54 218.489 1955.3 217.197C1956.08 215.895 1956.47 214.46 1956.47 212.89C1956.47 211.321 1956.08 209.89 1955.3 208.598C1954.54 207.297 1953.51 206.263 1952.22 205.498C1950.93 204.732 1949.5 204.349 1947.93 204.349C1946.35 204.349 1944.91 204.732 1943.62 205.498C1942.33 206.263 1941.29 207.297 1940.52 208.598C1939.75 209.89 1939.37 211.321 1939.37 212.89C1939.37 214.46 1939.75 215.891 1940.52 217.183C1941.29 218.474 1942.33 219.508 1943.62 220.283C1944.91 221.049 1946.35 221.432 1947.93 221.432Z" fill="#104D84"/>
<path d="M684.84 210.313C687.217 207.462 690.148 206.036 693.633 206.036C696.802 206.036 699.495 207.145 701.713 209.363C703.931 211.581 705.04 214.274 705.04 217.443C705.04 220.295 704.248 222.592 702.664 224.335L702.426 224.573L644.915 302.047C642.063 305.691 638.419 308.701 633.983 311.077C629.705 313.295 625.031 314.405 619.962 314.405C615.209 314.405 610.693 313.375 606.415 311.315C602.296 309.255 598.811 306.404 595.959 302.76L538.21 225.523C537.259 224.414 536.467 223.226 535.833 221.958C535.199 220.532 534.883 219.027 534.883 217.443C534.883 214.274 535.992 211.581 538.21 209.363C540.428 207.145 543.121 206.036 546.29 206.036C550.092 206.036 553.102 207.541 555.321 210.551L610.693 284.461C611.802 285.728 613.149 287.154 614.733 288.738C616.476 290.164 618.219 290.877 619.962 290.877C621.704 290.877 623.368 290.164 624.952 288.738C626.695 287.154 628.042 285.728 628.992 284.461L684.84 210.313ZM728.902 217.443C728.902 214.274 730.011 211.581 732.229 209.363C734.447 207.145 737.141 206.036 740.309 206.036H908.804C911.972 206.036 914.666 207.145 916.884 209.363C919.102 211.581 920.211 214.274 920.211 217.443C920.211 220.612 919.102 223.305 916.884 225.523C914.666 227.741 911.972 228.85 908.804 228.85H740.309C737.141 228.85 734.447 227.741 732.229 225.523C730.011 223.305 728.902 220.612 728.902 217.443ZM757.896 309.651C754.41 309.651 750.924 308.939 747.439 307.513C743.953 305.928 740.864 303.789 738.17 301.096C735.477 298.403 733.259 295.155 731.516 291.352C729.774 287.55 728.902 283.272 728.902 278.519V257.131C728.902 252.853 730.09 250.001 732.467 248.575C735.002 247.149 738.883 246.436 744.112 246.436H903.575C906.744 246.436 909.438 247.545 911.656 249.763C913.874 251.982 914.983 254.675 914.983 257.844C914.983 261.012 913.874 263.706 911.656 265.924C909.438 268.142 906.744 269.251 903.575 269.251H751.717V280.896C751.717 282.48 752.35 283.906 753.618 285.173C755.044 286.282 756.866 286.837 759.084 286.837H908.804C911.972 286.837 914.666 287.946 916.884 290.164C919.102 292.382 920.211 295.076 920.211 298.244C920.211 301.413 919.102 304.106 916.884 306.324C914.666 308.542 911.972 309.651 908.804 309.651H757.896ZM1105.88 217.443C1105.88 214.274 1106.99 211.581 1109.21 209.363C1111.43 207.145 1114.12 206.036 1117.29 206.036C1120.46 206.036 1123.15 207.145 1125.37 209.363C1127.59 211.581 1128.7 214.274 1128.7 217.443V286.599C1128.7 293.095 1126.48 298.561 1122.04 302.997C1117.76 307.433 1112.38 309.651 1105.88 309.651C1103.66 309.651 1101.45 309.335 1099.23 308.701C1097.17 308.067 1095.27 307.196 1093.52 306.087L984.679 239.545C981.669 237.802 979.134 236.455 977.075 235.504C975.173 234.395 973.589 233.841 972.321 233.841C969.945 233.841 968.44 235.346 967.806 238.356C967.172 241.367 966.856 245.723 966.856 251.427V298.244C966.856 301.413 965.746 304.106 963.528 306.324C961.31 308.542 958.617 309.651 955.448 309.651C952.28 309.651 949.586 308.542 947.368 306.324C945.15 304.106 944.041 301.413 944.041 298.244V229.088C944.041 222.592 946.18 217.126 950.458 212.69C954.894 208.254 960.36 206.036 966.856 206.036C969.074 206.036 971.212 206.353 973.272 206.986C975.49 207.62 977.471 208.491 979.213 209.601L1088.06 276.143C1091.07 277.886 1093.52 279.311 1095.42 280.42C1097.48 281.371 1099.15 281.846 1100.42 281.846C1102.79 281.846 1104.3 280.341 1104.93 277.331C1105.56 274.321 1105.88 269.964 1105.88 264.26V217.443ZM1327.36 206.036C1330.53 206.036 1333.22 207.145 1335.44 209.363C1337.66 211.581 1338.77 214.274 1338.77 217.443C1338.77 220.612 1337.66 223.305 1335.44 225.523C1333.22 227.741 1330.53 228.85 1327.36 228.85H1257.02V298.244C1257.02 301.413 1255.91 304.106 1253.69 306.324C1251.47 308.542 1248.78 309.651 1245.61 309.651C1242.44 309.651 1239.75 308.542 1237.53 306.324C1235.31 304.106 1234.2 301.413 1234.2 298.244V228.85H1162.91C1160.05 228.533 1157.6 227.345 1155.54 225.285C1153.48 223.067 1152.45 220.453 1152.45 217.443C1152.45 214.274 1153.56 211.581 1155.78 209.363C1157.99 207.145 1160.69 206.036 1163.86 206.036H1327.36ZM1385.3 257.844C1385.3 260.695 1385.61 263.864 1386.25 267.35C1387.04 270.677 1388.39 273.766 1390.29 276.618C1392.35 279.47 1395.04 281.926 1398.37 283.985C1401.85 285.886 1406.37 286.837 1411.91 286.837H1506.5C1511.89 286.837 1516.32 285.886 1519.81 283.985C1523.29 281.926 1525.99 279.47 1527.89 276.618C1529.95 273.766 1531.29 270.677 1531.93 267.35C1532.72 263.864 1533.12 260.695 1533.12 257.844V217.681C1533.12 214.512 1534.23 211.819 1536.44 209.601C1538.66 207.382 1541.35 206.273 1544.52 206.273C1547.69 206.273 1550.39 207.382 1552.6 209.601C1554.82 211.819 1555.93 214.512 1555.93 217.681V257.844C1555.93 263.864 1554.9 269.964 1552.84 276.143C1550.94 282.163 1548.09 287.708 1544.29 292.778C1540.48 297.69 1535.89 301.73 1530.5 304.898C1525.12 308.067 1519.02 309.651 1512.2 309.651H1403.83C1397.34 309.335 1391.56 307.592 1386.49 304.423C1381.42 301.096 1377.06 296.977 1373.41 292.065C1369.93 287.154 1367.24 281.688 1365.33 275.667C1363.43 269.647 1362.48 263.706 1362.48 257.844V217.681C1362.48 214.512 1363.59 211.819 1365.81 209.601C1368.03 207.382 1370.72 206.273 1373.89 206.273C1377.06 206.273 1379.75 207.382 1381.97 209.601C1384.19 211.819 1385.3 214.512 1385.3 217.681V257.844ZM1732.52 269.251C1736.8 271.944 1741.15 274.875 1745.59 278.044C1750.03 281.054 1754.54 284.381 1759.14 288.025C1760.88 289.293 1762.38 290.798 1763.65 292.541C1764.92 294.125 1765.55 296.026 1765.55 298.244C1765.55 301.413 1764.44 304.106 1762.23 306.324C1760.01 308.542 1757.31 309.651 1754.15 309.651C1751.45 309.651 1748.76 308.542 1746.07 306.324C1739.57 301.571 1732.92 296.977 1726.1 292.541C1719.29 288.104 1712.16 284.144 1704.71 280.658C1697.43 277.173 1689.82 274.4 1681.9 272.34C1673.98 270.281 1665.74 269.251 1657.18 269.251H1609.89C1607.83 269.568 1606.09 270.518 1604.66 272.103C1603.24 273.687 1602.52 275.667 1602.52 278.044V298.244C1602.52 301.413 1601.34 304.106 1598.96 306.324C1596.74 308.542 1594.13 309.651 1591.12 309.651C1587.95 309.651 1585.26 308.542 1583.04 306.324C1580.82 304.106 1579.71 301.413 1579.71 298.244V275.43C1579.71 271.469 1580.42 267.746 1581.85 264.26C1583.43 260.616 1585.49 257.527 1588.03 254.992C1590.56 252.298 1593.57 250.239 1597.06 248.813C1600.54 247.229 1604.35 246.436 1608.47 246.436H1734.42C1736.8 246.436 1738.86 245.644 1740.6 244.06C1742.5 242.317 1743.45 240.178 1743.45 237.643C1743.45 235.267 1742.5 233.207 1740.6 231.464C1738.86 229.722 1736.8 228.85 1734.42 228.85H1591.12C1587.95 228.85 1585.26 227.741 1583.04 225.523C1580.82 223.305 1579.71 220.612 1579.71 217.443C1579.71 214.274 1580.82 211.581 1583.04 209.363C1585.26 207.145 1587.95 206.036 1591.12 206.036H1733.47C1737.91 206.036 1742.03 206.907 1745.83 208.65C1749.79 210.234 1753.2 212.452 1756.05 215.304C1759.06 218.156 1761.35 221.483 1762.94 225.285C1764.68 229.088 1765.55 233.207 1765.55 237.643C1765.55 242.079 1764.68 246.199 1762.94 250.001C1761.35 253.804 1759.06 257.131 1756.05 259.982C1753.2 262.834 1749.79 265.132 1745.83 266.874C1742.03 268.459 1737.91 269.251 1733.47 269.251H1732.52ZM1809.48 305.374C1807.1 308.226 1804.17 309.651 1800.69 309.651C1797.52 309.651 1794.82 308.542 1792.61 306.324C1790.39 304.106 1789.28 301.413 1789.28 298.244C1789.28 295.392 1790.07 293.095 1791.66 291.352L1849.41 213.641C1852.1 209.997 1855.66 207.066 1860.1 204.848C1864.54 202.471 1869.29 201.283 1874.36 201.283C1879.11 201.283 1883.63 202.313 1887.9 204.372C1892.18 206.432 1895.67 209.284 1898.36 212.928L1956.11 290.164C1957.06 291.273 1957.85 292.541 1958.49 293.967C1959.12 295.234 1959.44 296.66 1959.44 298.244C1959.44 301.413 1958.33 304.106 1956.11 306.324C1953.89 308.542 1951.2 309.651 1948.03 309.651C1944.23 309.651 1941.22 308.146 1939 305.136L1883.63 231.227C1882.52 229.959 1881.09 228.613 1879.35 227.187C1877.76 225.602 1876.1 224.81 1874.36 224.81C1872.62 224.81 1870.87 225.602 1869.13 227.187C1867.55 228.613 1866.28 229.959 1865.33 231.227L1809.48 305.374Z" fill="#104D84"/>
</svg>
