<svg width="2230" height="487" viewBox="0 0 2230 487" fill="none" xmlns="http://www.w3.org/2000/svg">
<path d="M2195.12 104.736V91.6321H2201.6C2202.34 91.6321 2203.03 91.7978 2203.7 92.1293C2204.37 92.4489 2204.92 92.9283 2205.33 93.5675C2205.76 94.2067 2205.97 94.9938 2205.97 95.929C2205.97 96.8641 2205.75 97.6631 2205.31 98.326C2204.88 98.977 2204.31 99.4742 2203.61 99.8175C2202.92 100.161 2202.2 100.332 2201.44 100.332H2196.91V97.9709H2200.66C2201.12 97.9709 2201.55 97.7992 2201.94 97.456C2202.33 97.1127 2202.53 96.6037 2202.53 95.929C2202.53 95.2187 2202.33 94.7216 2201.94 94.4375C2201.55 94.1534 2201.14 94.0114 2200.71 94.0114H2198.35V104.736H2195.12ZM2203.34 98.6456L2206.43 104.736H2202.88L2199.95 98.6456H2203.34ZM2200.22 112.548C2198.25 112.548 2196.41 112.181 2194.7 111.447C2192.98 110.714 2191.47 109.696 2190.17 108.393C2188.87 107.091 2187.85 105.582 2187.11 103.866C2186.38 102.149 2186.01 100.309 2186.01 98.3438C2186.01 96.3788 2186.38 94.5381 2187.11 92.8217C2187.85 91.1054 2188.87 89.5961 2190.17 88.294C2191.47 86.992 2192.98 85.974 2194.7 85.2401C2196.41 84.5062 2198.25 84.1392 2200.22 84.1392C2202.18 84.1392 2204.02 84.5062 2205.74 85.2401C2207.46 85.974 2208.96 86.992 2210.27 88.294C2211.57 89.5961 2212.59 91.1054 2213.32 92.8217C2214.05 94.5381 2214.42 96.3788 2214.42 98.3438C2214.42 100.309 2214.05 102.149 2213.32 103.866C2212.59 105.582 2211.57 107.091 2210.27 108.393C2208.96 109.696 2207.46 110.714 2205.74 111.447C2204.02 112.181 2202.18 112.548 2200.22 112.548ZM2200.22 108.908C2202.16 108.908 2203.93 108.435 2205.53 107.488C2207.12 106.541 2208.4 105.268 2209.34 103.67C2210.3 102.061 2210.78 100.285 2210.78 98.3438C2210.78 96.4025 2210.3 94.6328 2209.34 93.0348C2208.4 91.425 2207.12 90.1465 2205.53 89.1996C2203.93 88.2526 2202.16 87.7791 2200.22 87.7791C2198.26 87.7791 2196.49 88.2526 2194.89 89.1996C2193.29 90.1465 2192.01 91.425 2191.06 93.0348C2190.11 94.6328 2189.63 96.4025 2189.63 98.3438C2189.63 100.285 2190.11 102.055 2191.06 103.653C2192.01 105.251 2193.29 106.529 2194.89 107.488C2196.49 108.435 2198.26 108.908 2200.22 108.908Z" fill="black"/>
<path d="M637.872 94.6672C640.812 91.1397 644.437 89.376 648.748 89.376C652.668 89.376 655.999 90.7478 658.743 93.4914C661.487 96.235 662.858 99.5665 662.858 103.486C662.858 107.013 661.879 109.855 659.919 112.011L659.625 112.305L588.487 208.135C584.96 212.642 580.453 216.365 574.965 219.305C569.674 222.048 563.893 223.42 557.622 223.42C551.743 223.42 546.158 222.146 540.866 219.599C535.771 217.051 531.46 213.524 527.932 209.016L456.501 113.48C455.325 112.109 454.345 110.639 453.561 109.071C452.777 107.307 452.385 105.446 452.385 103.486C452.385 99.5665 453.757 96.235 456.501 93.4914C459.244 90.7478 462.576 89.376 466.495 89.376C471.199 89.376 474.922 91.2377 477.666 94.9612L546.158 186.382C547.529 187.95 549.195 189.713 551.155 191.673C553.311 193.437 555.466 194.319 557.622 194.319C559.778 194.319 561.835 193.437 563.795 191.673C565.951 189.713 567.616 187.95 568.792 186.382L637.872 94.6672ZM692.373 103.486C692.373 99.5665 693.745 96.235 696.489 93.4914C699.232 90.7478 702.564 89.376 706.483 89.376H914.899C918.818 89.376 922.15 90.7478 924.893 93.4914C927.637 96.235 929.009 99.5665 929.009 103.486C929.009 107.405 927.637 110.737 924.893 113.48C922.15 116.224 918.818 117.596 914.899 117.596H706.483C702.564 117.596 699.232 116.224 696.489 113.48C693.745 110.737 692.373 107.405 692.373 103.486ZM728.236 217.541C723.925 217.541 719.613 216.659 715.302 214.896C710.991 212.936 707.169 210.29 703.838 206.959C700.506 203.627 697.763 199.61 695.607 194.906C693.451 190.203 692.373 184.912 692.373 179.033V152.577C692.373 147.285 693.843 143.758 696.783 141.994C699.918 140.231 704.72 139.349 711.187 139.349H908.432C912.351 139.349 915.683 140.72 918.426 143.464C921.17 146.208 922.542 149.539 922.542 153.459C922.542 157.378 921.17 160.71 918.426 163.453C915.683 166.197 912.351 167.568 908.432 167.568H720.593V181.972C720.593 183.932 721.377 185.696 722.945 187.264C724.709 188.635 726.962 189.321 729.706 189.321H914.899C918.818 189.321 922.15 190.693 924.893 193.437C927.637 196.18 929.009 199.512 929.009 203.431C929.009 207.351 927.637 210.682 924.893 213.426C922.15 216.169 918.818 217.541 914.899 217.541H728.236ZM1158.67 103.486C1158.67 99.5665 1160.04 96.235 1162.78 93.4914C1165.53 90.7478 1168.86 89.376 1172.78 89.376C1176.7 89.376 1180.03 90.7478 1182.77 93.4914C1185.52 96.235 1186.89 99.5665 1186.89 103.486V189.027C1186.89 197.062 1184.15 203.823 1178.66 209.31C1173.37 214.798 1166.7 217.541 1158.67 217.541C1155.93 217.541 1153.18 217.149 1150.44 216.365C1147.89 215.581 1145.54 214.504 1143.38 213.132L1008.75 130.824C1005.03 128.668 1001.89 127.002 999.345 125.827C996.993 124.455 995.033 123.769 993.466 123.769C990.526 123.769 988.664 125.631 987.88 129.354C987.097 133.078 986.705 138.467 986.705 145.522V203.431C986.705 207.351 985.333 210.682 982.589 213.426C979.846 216.169 976.514 217.541 972.595 217.541C968.675 217.541 965.344 216.169 962.6 213.426C959.857 210.682 958.485 207.351 958.485 203.431V117.89C958.485 109.855 961.13 103.094 966.422 97.6068C971.909 92.1196 978.67 89.376 986.705 89.376C989.448 89.376 992.094 89.7679 994.641 90.5518C997.385 91.3357 999.835 92.4135 1001.99 93.7853L1136.62 176.093C1140.35 178.249 1143.38 180.013 1145.74 181.384C1148.28 182.56 1150.34 183.148 1151.91 183.148C1154.85 183.148 1156.71 181.286 1157.49 177.563C1158.28 173.84 1158.67 168.45 1158.67 161.395V103.486ZM1432.62 89.376C1436.54 89.376 1439.87 90.7478 1442.62 93.4914C1445.36 96.235 1446.73 99.5665 1446.73 103.486C1446.73 107.405 1445.36 110.737 1442.62 113.48C1439.87 116.224 1436.54 117.596 1432.62 117.596H1345.61V203.431C1345.61 207.351 1344.24 210.682 1341.5 213.426C1338.75 216.169 1335.42 217.541 1331.5 217.541C1327.58 217.541 1324.25 216.169 1321.51 213.426C1318.76 210.682 1317.39 207.351 1317.39 203.431V117.596H1229.21C1225.68 117.204 1222.64 115.734 1220.09 113.186C1217.54 110.443 1216.27 107.209 1216.27 103.486C1216.27 99.5665 1217.64 96.235 1220.39 93.4914C1223.13 90.7478 1226.46 89.376 1230.38 89.376H1432.62ZM1504.29 153.459C1504.29 156.986 1504.68 160.905 1505.46 165.217C1506.44 169.332 1508.11 173.154 1510.46 176.681C1513.01 180.209 1516.34 183.246 1520.45 185.794C1524.77 188.145 1530.35 189.321 1537.21 189.321H1654.2C1660.87 189.321 1666.35 188.145 1670.67 185.794C1674.98 183.246 1678.31 180.209 1680.66 176.681C1683.21 173.154 1684.87 169.332 1685.66 165.217C1686.64 160.905 1687.13 156.986 1687.13 153.459V103.78C1687.13 99.8604 1688.5 96.5289 1691.24 93.7853C1693.99 91.0417 1697.32 89.6699 1701.24 89.6699C1705.16 89.6699 1708.49 91.0417 1711.23 93.7853C1713.98 96.5289 1715.35 99.8604 1715.35 103.78V153.459C1715.35 160.905 1714.07 168.45 1711.53 176.093C1709.17 183.54 1705.65 190.399 1700.94 196.67C1696.24 202.745 1690.56 207.743 1683.89 211.662C1677.23 215.581 1669.69 217.541 1661.26 217.541H1527.22C1519.18 217.149 1512.03 214.994 1505.76 211.074C1499.49 206.959 1494.1 201.863 1489.59 195.788C1485.28 189.713 1481.95 182.952 1479.59 175.505C1477.24 168.058 1476.07 160.71 1476.07 153.459V103.78C1476.07 99.8604 1477.44 96.5289 1480.18 93.7853C1482.93 91.0417 1486.26 89.6699 1490.18 89.6699C1494.1 89.6699 1497.43 91.0417 1500.17 93.7853C1502.91 96.5289 1504.29 99.8604 1504.29 103.78V153.459ZM1933.78 167.568C1939.07 170.9 1944.46 174.525 1949.94 178.445C1955.43 182.168 1961.02 186.284 1966.7 190.791C1968.85 192.359 1970.72 194.221 1972.28 196.376C1973.85 198.336 1974.64 200.688 1974.64 203.431C1974.64 207.351 1973.26 210.682 1970.52 213.426C1967.78 216.169 1964.45 217.541 1960.53 217.541C1957.19 217.541 1953.86 216.169 1950.53 213.426C1942.5 207.547 1934.27 201.863 1925.84 196.376C1917.41 190.889 1908.59 185.99 1899.38 181.678C1890.37 177.367 1880.96 173.938 1871.16 171.39C1861.36 168.842 1851.17 167.568 1840.59 167.568H1782.09C1779.55 167.96 1777.39 169.136 1775.63 171.096C1773.86 173.056 1772.98 175.505 1772.98 178.445V203.431C1772.98 207.351 1771.51 210.682 1768.57 213.426C1765.83 216.169 1762.6 217.541 1758.87 217.541C1754.95 217.541 1751.62 216.169 1748.88 213.426C1746.13 210.682 1744.76 207.351 1744.76 203.431V175.211C1744.76 170.312 1745.64 165.707 1747.41 161.395C1749.37 156.888 1751.91 153.067 1755.05 149.931C1758.19 146.6 1761.91 144.052 1766.22 142.288C1770.53 140.328 1775.24 139.349 1780.33 139.349H1936.13C1939.07 139.349 1941.61 138.369 1943.77 136.409C1946.12 134.253 1947.3 131.608 1947.3 128.472C1947.3 125.533 1946.12 122.985 1943.77 120.829C1941.61 118.674 1939.07 117.596 1936.13 117.596H1758.87C1754.95 117.596 1751.62 116.224 1748.88 113.48C1746.13 110.737 1744.76 107.405 1744.76 103.486C1744.76 99.5665 1746.13 96.235 1748.88 93.4914C1751.62 90.7478 1754.95 89.376 1758.87 89.376H1934.95C1940.44 89.376 1945.53 90.4538 1950.24 92.6095C1955.14 94.5692 1959.35 97.3128 1962.88 100.84C1966.6 104.368 1969.44 108.483 1971.4 113.186C1973.56 117.89 1974.64 122.985 1974.64 128.472C1974.64 133.959 1973.56 139.055 1971.4 143.758C1969.44 148.461 1966.6 152.577 1962.88 156.104C1959.35 159.632 1955.14 162.473 1950.24 164.629C1945.53 166.589 1940.44 167.568 1934.95 167.568H1933.78ZM2028.97 212.25C2026.03 215.777 2022.4 217.541 2018.09 217.541C2014.17 217.541 2010.84 216.169 2008.1 213.426C2005.36 210.682 2003.98 207.351 2003.98 203.431C2003.98 199.904 2004.96 197.062 2006.92 194.906L2078.35 98.7826C2081.69 94.2753 2086.1 90.6498 2091.58 87.9062C2097.07 84.9666 2102.95 83.4968 2109.22 83.4968C2115.1 83.4968 2120.68 84.7707 2125.98 87.3183C2131.27 89.8659 2135.58 93.3934 2138.91 97.9007L2210.34 193.437C2211.52 194.808 2212.5 196.376 2213.28 198.14C2214.06 199.708 2214.46 201.472 2214.46 203.431C2214.46 207.351 2213.08 210.682 2210.34 213.426C2207.6 216.169 2204.27 217.541 2200.35 217.541C2195.64 217.541 2191.92 215.679 2189.18 211.956L2120.68 120.535C2119.31 118.968 2117.55 117.302 2115.39 115.538C2113.43 113.578 2111.38 112.599 2109.22 112.599C2107.06 112.599 2104.91 113.578 2102.75 115.538C2100.79 117.302 2099.23 118.968 2098.05 120.535L2028.97 212.25Z" fill="black"/>
<path d="M552.41 286.397C552.07 283.529 550.693 281.302 548.277 279.717C545.862 278.132 542.899 277.339 539.389 277.339C536.823 277.339 534.577 277.755 532.652 278.585C530.746 279.415 529.256 280.557 528.18 282.01C527.123 283.463 526.595 285.114 526.595 286.963C526.595 288.511 526.963 289.841 527.699 290.955C528.454 292.049 529.416 292.964 530.586 293.7C531.756 294.417 532.983 295.012 534.266 295.483C535.549 295.936 536.728 296.304 537.804 296.587L543.692 298.173C545.201 298.569 546.881 299.116 548.73 299.814C550.598 300.512 552.381 301.465 554.08 302.673C555.797 303.862 557.212 305.391 558.326 307.259C559.439 309.127 559.996 311.42 559.996 314.137C559.996 317.269 559.175 320.1 557.533 322.629C555.91 325.157 553.533 327.167 550.4 328.658C547.286 330.149 543.503 330.894 539.049 330.894C534.898 330.894 531.303 330.224 528.265 328.884C525.246 327.544 522.868 325.676 521.132 323.28C519.415 320.883 518.443 318.1 518.216 314.93H525.463C525.651 317.119 526.387 318.93 527.671 320.364C528.973 321.78 530.614 322.836 532.596 323.535C534.596 324.214 536.747 324.554 539.049 324.554C541.729 324.554 544.135 324.119 546.267 323.251C548.4 322.365 550.089 321.138 551.334 319.572C552.58 317.987 553.202 316.137 553.202 314.024C553.202 312.099 552.665 310.533 551.589 309.325C550.513 308.117 549.098 307.136 547.343 306.381C545.588 305.626 543.692 304.966 541.654 304.4L534.521 302.362C529.992 301.06 526.406 299.201 523.764 296.786C521.122 294.37 519.802 291.209 519.802 287.303C519.802 284.057 520.679 281.227 522.434 278.811C524.208 276.377 526.585 274.49 529.567 273.15C532.567 271.792 535.917 271.112 539.616 271.112C543.352 271.112 546.673 271.782 549.579 273.122C552.485 274.443 554.787 276.254 556.486 278.557C558.203 280.859 559.109 283.472 559.203 286.397H552.41ZM571.429 329.875V286.397H577.882V293.191H578.449C579.354 290.87 580.817 289.068 582.836 287.784C584.855 286.482 587.28 285.831 590.111 285.831C592.979 285.831 595.366 286.482 597.272 287.784C599.197 289.068 600.697 290.87 601.772 293.191H602.225C603.339 290.945 605.009 289.162 607.236 287.841C609.462 286.501 612.132 285.831 615.246 285.831C619.133 285.831 622.313 287.048 624.785 289.483C627.257 291.898 628.493 295.663 628.493 300.777V329.875H621.813V300.777C621.813 297.569 620.935 295.276 619.181 293.898C617.426 292.521 615.359 291.832 612.982 291.832C609.925 291.832 607.556 292.757 605.877 294.606C604.197 296.436 603.358 298.758 603.358 301.569V329.875H596.564V300.097C596.564 297.625 595.762 295.634 594.158 294.125C592.554 292.596 590.488 291.832 587.959 291.832C586.223 291.832 584.6 292.294 583.091 293.219C581.6 294.144 580.392 295.427 579.468 297.069C578.562 298.691 578.109 300.569 578.109 302.701V329.875H571.429ZM654.298 330.894C651.543 330.894 649.043 330.375 646.797 329.337C644.552 328.28 642.768 326.761 641.448 324.78C640.127 322.78 639.466 320.364 639.466 317.534C639.466 315.043 639.957 313.024 640.938 311.476C641.919 309.91 643.231 308.683 644.873 307.797C646.514 306.91 648.326 306.249 650.307 305.815C652.308 305.362 654.317 305.004 656.336 304.739C658.978 304.4 661.12 304.145 662.762 303.975C664.422 303.787 665.63 303.475 666.385 303.041C667.159 302.607 667.545 301.852 667.545 300.777V300.55C667.545 297.757 666.781 295.587 665.253 294.04C663.743 292.493 661.45 291.719 658.374 291.719C655.185 291.719 652.685 292.417 650.873 293.813C649.062 295.21 647.788 296.701 647.052 298.286L640.712 296.021C641.844 293.379 643.353 291.323 645.241 289.851C647.146 288.36 649.222 287.322 651.468 286.737C653.732 286.133 655.959 285.831 658.148 285.831C659.544 285.831 661.148 286.001 662.96 286.341C664.79 286.662 666.555 287.331 668.253 288.35C669.97 289.369 671.395 290.907 672.527 292.964C673.66 295.021 674.226 297.776 674.226 301.23V329.875H667.545V323.987H667.206C666.753 324.931 665.998 325.94 664.941 327.016C663.885 328.092 662.479 329.007 660.724 329.762C658.969 330.517 656.827 330.894 654.298 330.894ZM655.317 324.893C657.959 324.893 660.186 324.374 661.998 323.336C663.828 322.298 665.206 320.959 666.13 319.317C667.074 317.675 667.545 315.949 667.545 314.137V308.023C667.262 308.363 666.64 308.674 665.677 308.957C664.734 309.221 663.639 309.457 662.394 309.665C661.167 309.853 659.969 310.023 658.799 310.174C657.648 310.306 656.714 310.42 655.997 310.514C654.261 310.74 652.638 311.108 651.128 311.618C649.637 312.108 648.43 312.854 647.505 313.854C646.599 314.835 646.146 316.175 646.146 317.873C646.146 320.194 647.005 321.949 648.722 323.138C650.458 324.308 652.657 324.893 655.317 324.893ZM687.215 329.875V286.397H693.669V292.964H694.122C694.915 290.813 696.349 289.068 698.425 287.728C700.5 286.388 702.84 285.718 705.444 285.718C705.935 285.718 706.548 285.727 707.284 285.746C708.02 285.765 708.577 285.793 708.954 285.831V292.625C708.728 292.568 708.209 292.483 707.397 292.37C706.605 292.238 705.765 292.172 704.878 292.172C702.765 292.172 700.878 292.615 699.217 293.502C697.575 294.37 696.273 295.578 695.311 297.125C694.367 298.654 693.896 300.399 693.896 302.362V329.875H687.215ZM739.303 286.397V292.058H716.771V286.397H739.303ZM723.338 275.981H730.018V317.42C730.018 319.308 730.292 320.723 730.839 321.666C731.405 322.591 732.122 323.214 732.99 323.535C733.877 323.836 734.811 323.987 735.793 323.987C736.529 323.987 737.132 323.95 737.604 323.874C738.076 323.78 738.453 323.704 738.736 323.648L740.095 329.649C739.642 329.818 739.01 329.988 738.199 330.158C737.387 330.347 736.359 330.441 735.113 330.441C733.226 330.441 731.377 330.035 729.565 329.224C727.773 328.413 726.282 327.177 725.093 325.516C723.923 323.855 723.338 321.761 723.338 319.232V275.981ZM771.099 278.132V271.905H814.577V278.132H796.348V329.875H789.328V278.132H771.099ZM846.786 312.099V286.397H853.466V329.875H846.786V322.516H846.333C845.314 324.723 843.729 326.601 841.578 328.148C839.427 329.677 836.709 330.441 833.426 330.441C830.708 330.441 828.293 329.847 826.179 328.658C824.066 327.45 822.405 325.639 821.198 323.223C819.99 320.789 819.386 317.722 819.386 314.024V286.397H826.066V313.571C826.066 316.741 826.953 319.27 828.727 321.157C830.52 323.044 832.803 323.987 835.577 323.987C837.238 323.987 838.927 323.563 840.644 322.714C842.38 321.864 843.833 320.562 845.003 318.807C846.192 317.052 846.786 314.816 846.786 312.099ZM866.499 329.875V286.397H872.952V292.964H873.405C874.198 290.813 875.632 289.068 877.708 287.728C879.783 286.388 882.123 285.718 884.727 285.718C885.218 285.718 885.831 285.727 886.567 285.746C887.303 285.765 887.86 285.793 888.237 285.831V292.625C888.011 292.568 887.492 292.483 886.681 292.37C885.888 292.238 885.048 292.172 884.161 292.172C882.048 292.172 880.161 292.615 878.5 293.502C876.858 294.37 875.556 295.578 874.594 297.125C873.65 298.654 873.179 300.399 873.179 302.362V329.875H866.499ZM903.633 303.72V329.875H896.953V286.397H903.407V293.191H903.973C904.992 290.983 906.539 289.209 908.615 287.869C910.691 286.511 913.37 285.831 916.654 285.831C919.598 285.831 922.173 286.435 924.381 287.643C926.589 288.832 928.306 290.643 929.533 293.078C930.759 295.493 931.373 298.55 931.373 302.249V329.875H924.693V302.701C924.693 299.286 923.806 296.625 922.032 294.719C920.258 292.794 917.824 291.832 914.729 291.832C912.597 291.832 910.691 292.294 909.011 293.219C907.351 294.144 906.039 295.493 905.077 297.267C904.114 299.041 903.633 301.192 903.633 303.72ZM944.377 329.875V286.397H951.057V329.875H944.377ZM947.773 279.151C946.471 279.151 945.349 278.708 944.405 277.821C943.48 276.934 943.018 275.868 943.018 274.622C943.018 273.377 943.48 272.311 944.405 271.424C945.349 270.537 946.471 270.093 947.773 270.093C949.075 270.093 950.189 270.537 951.113 271.424C952.057 272.311 952.529 273.377 952.529 274.622C952.529 275.868 952.057 276.934 951.113 277.821C950.189 278.708 949.075 279.151 947.773 279.151ZM970.769 303.72V329.875H964.089V286.397H970.543V293.191H971.109C972.128 290.983 973.675 289.209 975.751 287.869C977.827 286.511 980.506 285.831 983.79 285.831C986.734 285.831 989.31 286.435 991.517 287.643C993.725 288.832 995.442 290.643 996.669 293.078C997.896 295.493 998.509 298.55 998.509 302.249V329.875H991.829V302.701C991.829 299.286 990.942 296.625 989.168 294.719C987.394 292.794 984.96 291.832 981.865 291.832C979.733 291.832 977.827 292.294 976.147 293.219C974.487 294.144 973.175 295.493 972.213 297.267C971.251 299.041 970.769 301.192 970.769 303.72ZM1029.06 347.085C1025.84 347.085 1023.06 346.67 1020.74 345.839C1018.42 345.028 1016.49 343.952 1014.94 342.613C1013.41 341.292 1012.19 339.876 1011.29 338.367L1016.61 334.63C1017.21 335.423 1017.98 336.329 1018.9 337.348C1019.83 338.386 1021.09 339.282 1022.69 340.037C1024.32 340.81 1026.44 341.197 1029.06 341.197C1032.57 341.197 1035.47 340.348 1037.75 338.65C1040.04 336.951 1041.18 334.291 1041.18 330.668V321.836H1040.61C1040.12 322.629 1039.42 323.61 1038.52 324.78C1037.63 325.931 1036.35 326.96 1034.67 327.865C1033.01 328.752 1030.76 329.196 1027.93 329.196C1024.42 329.196 1021.27 328.365 1018.48 326.705C1015.7 325.044 1013.5 322.629 1011.88 319.458C1010.28 316.288 1009.47 312.439 1009.47 307.91C1009.47 303.456 1010.26 299.578 1011.82 296.276C1013.39 292.955 1015.57 290.388 1018.36 288.577C1021.16 286.746 1024.38 285.831 1028.04 285.831C1030.87 285.831 1033.12 286.303 1034.78 287.247C1036.46 288.171 1037.74 289.228 1038.63 290.417C1039.54 291.587 1040.23 292.549 1040.72 293.304H1041.4V286.397H1047.86V331.12C1047.86 334.857 1047.01 337.895 1045.31 340.235C1043.63 342.594 1041.37 344.32 1038.52 345.415C1035.69 346.528 1032.53 347.085 1029.06 347.085ZM1028.84 323.195C1031.52 323.195 1033.78 322.582 1035.63 321.355C1037.48 320.128 1038.88 318.364 1039.85 316.062C1040.81 313.76 1041.29 311.004 1041.29 307.797C1041.29 304.664 1040.82 301.899 1039.88 299.503C1038.93 297.106 1037.54 295.229 1035.69 293.87C1033.84 292.511 1031.55 291.832 1028.84 291.832C1026.01 291.832 1023.65 292.549 1021.76 293.983C1019.89 295.417 1018.49 297.342 1017.54 299.758C1016.62 302.173 1016.16 304.853 1016.16 307.797C1016.16 310.816 1016.63 313.486 1017.57 315.807C1018.53 318.109 1019.95 319.921 1021.82 321.242C1023.7 322.544 1026.04 323.195 1028.84 323.195ZM1116.71 286.397C1116.37 283.529 1114.99 281.302 1112.57 279.717C1110.16 278.132 1107.2 277.339 1103.69 277.339C1101.12 277.339 1098.87 277.755 1096.95 278.585C1095.04 279.415 1093.55 280.557 1092.48 282.01C1091.42 283.463 1090.89 285.114 1090.89 286.963C1090.89 288.511 1091.26 289.841 1092 290.955C1092.75 292.049 1093.71 292.964 1094.88 293.7C1096.05 294.417 1097.28 295.012 1098.56 295.483C1099.85 295.936 1101.02 296.304 1102.1 296.587L1107.99 298.173C1109.5 298.569 1111.18 299.116 1113.03 299.814C1114.89 300.512 1116.68 301.465 1118.38 302.673C1120.09 303.862 1121.51 305.391 1122.62 307.259C1123.74 309.127 1124.29 311.42 1124.29 314.137C1124.29 317.269 1123.47 320.1 1121.83 322.629C1120.21 325.157 1117.83 327.167 1114.7 328.658C1111.58 330.149 1107.8 330.894 1103.35 330.894C1099.19 330.894 1095.6 330.224 1092.56 328.884C1089.54 327.544 1087.16 325.676 1085.43 323.28C1083.71 320.883 1082.74 318.1 1082.51 314.93H1089.76C1089.95 317.119 1090.68 318.93 1091.97 320.364C1093.27 321.78 1094.91 322.836 1096.89 323.535C1098.89 324.214 1101.04 324.554 1103.35 324.554C1106.03 324.554 1108.43 324.119 1110.56 323.251C1112.7 322.365 1114.39 321.138 1115.63 319.572C1116.88 317.987 1117.5 316.137 1117.5 314.024C1117.5 312.099 1116.96 310.533 1115.89 309.325C1114.81 308.117 1113.39 307.136 1111.64 306.381C1109.88 305.626 1107.99 304.966 1105.95 304.4L1098.82 302.362C1094.29 301.06 1090.7 299.201 1088.06 296.786C1085.42 294.37 1084.1 291.209 1084.1 287.303C1084.1 284.057 1084.98 281.227 1086.73 278.811C1088.5 276.377 1090.88 274.49 1093.86 273.15C1096.86 271.792 1100.21 271.112 1103.91 271.112C1107.65 271.112 1110.97 271.782 1113.88 273.122C1116.78 274.443 1119.08 276.254 1120.78 278.557C1122.5 280.859 1123.41 283.472 1123.5 286.397H1116.71ZM1153.39 330.781C1149.46 330.781 1146.02 329.847 1143.06 327.979C1140.11 326.11 1137.81 323.497 1136.15 320.138C1134.51 316.779 1133.69 312.854 1133.69 308.363C1133.69 303.834 1134.51 299.88 1136.15 296.502C1137.81 293.125 1140.11 290.502 1143.06 288.633C1146.02 286.765 1149.46 285.831 1153.39 285.831C1157.31 285.831 1160.75 286.765 1163.69 288.633C1166.65 290.502 1168.96 293.125 1170.6 296.502C1172.26 299.88 1173.09 303.834 1173.09 308.363C1173.09 312.854 1172.26 316.779 1170.6 320.138C1168.96 323.497 1166.65 326.11 1163.69 327.979C1160.75 329.847 1157.31 330.781 1153.39 330.781ZM1153.39 324.78C1156.37 324.78 1158.82 324.016 1160.75 322.487C1162.67 320.959 1164.1 318.949 1165.02 316.458C1165.95 313.967 1166.41 311.269 1166.41 308.363C1166.41 305.457 1165.95 302.749 1165.02 300.239C1164.1 297.729 1162.67 295.701 1160.75 294.153C1158.82 292.606 1156.37 291.832 1153.39 291.832C1150.41 291.832 1147.95 292.606 1146.03 294.153C1144.1 295.701 1142.68 297.729 1141.75 300.239C1140.83 302.749 1140.37 305.457 1140.37 308.363C1140.37 311.269 1140.83 313.967 1141.75 316.458C1142.68 318.949 1144.1 320.959 1146.03 322.487C1147.95 324.016 1150.41 324.78 1153.39 324.78ZM1190.76 271.905V329.875H1184.08V271.905H1190.76ZM1231.2 312.099V286.397H1237.88V329.875H1231.2V322.516H1230.74C1229.72 324.723 1228.14 326.601 1225.99 328.148C1223.84 329.677 1221.12 330.441 1217.84 330.441C1215.12 330.441 1212.7 329.847 1210.59 328.658C1208.48 327.45 1206.81 325.639 1205.61 323.223C1204.4 320.789 1203.8 317.722 1203.8 314.024V286.397H1210.48V313.571C1210.48 316.741 1211.36 319.27 1213.14 321.157C1214.93 323.044 1217.21 323.987 1219.99 323.987C1221.65 323.987 1223.34 323.563 1225.05 322.714C1226.79 321.864 1228.24 320.562 1229.41 318.807C1230.6 317.052 1231.2 314.816 1231.2 312.099ZM1269.82 286.397V292.058H1247.28V286.397H1269.82ZM1253.85 275.981H1260.53V317.42C1260.53 319.308 1260.81 320.723 1261.35 321.666C1261.92 322.591 1262.64 323.214 1263.5 323.535C1264.39 323.836 1265.32 323.987 1266.31 323.987C1267.04 323.987 1267.65 323.95 1268.12 323.874C1268.59 323.78 1268.97 323.704 1269.25 323.648L1270.61 329.649C1270.16 329.818 1269.52 329.988 1268.71 330.158C1267.9 330.347 1266.87 330.441 1265.63 330.441C1263.74 330.441 1261.89 330.035 1260.08 329.224C1258.29 328.413 1256.8 327.177 1255.61 325.516C1254.44 323.855 1253.85 321.761 1253.85 319.232V275.981ZM1280.66 329.875V286.397H1287.34V329.875H1280.66ZM1284.06 279.151C1282.76 279.151 1281.63 278.708 1280.69 277.821C1279.77 276.934 1279.3 275.868 1279.3 274.622C1279.3 273.377 1279.77 272.311 1280.69 271.424C1281.63 270.537 1282.76 270.093 1284.06 270.093C1285.36 270.093 1286.47 270.537 1287.4 271.424C1288.34 272.311 1288.81 273.377 1288.81 274.622C1288.81 275.868 1288.34 276.934 1287.4 277.821C1286.47 278.708 1285.36 279.151 1284.06 279.151ZM1318.04 330.781C1314.11 330.781 1310.67 329.847 1307.71 327.979C1304.76 326.11 1302.46 323.497 1300.8 320.138C1299.16 316.779 1298.34 312.854 1298.34 308.363C1298.34 303.834 1299.16 299.88 1300.8 296.502C1302.46 293.125 1304.76 290.502 1307.71 288.633C1310.67 286.765 1314.11 285.831 1318.04 285.831C1321.96 285.831 1325.4 286.765 1328.34 288.633C1331.3 290.502 1333.61 293.125 1335.25 296.502C1336.91 299.88 1337.74 303.834 1337.74 308.363C1337.74 312.854 1336.91 316.779 1335.25 320.138C1333.61 323.497 1331.3 326.11 1328.34 327.979C1325.4 329.847 1321.96 330.781 1318.04 330.781ZM1318.04 324.78C1321.02 324.78 1323.47 324.016 1325.4 322.487C1327.32 320.959 1328.75 318.949 1329.67 316.458C1330.6 313.967 1331.06 311.269 1331.06 308.363C1331.06 305.457 1330.6 302.749 1329.67 300.239C1328.75 297.729 1327.32 295.701 1325.4 294.153C1323.47 292.606 1321.02 291.832 1318.04 291.832C1315.06 291.832 1312.6 292.606 1310.68 294.153C1308.75 295.701 1307.33 297.729 1306.4 300.239C1305.48 302.749 1305.02 305.457 1305.02 308.363C1305.02 311.269 1305.48 313.967 1306.4 316.458C1307.33 318.949 1308.75 320.959 1310.68 322.487C1312.6 324.016 1315.06 324.78 1318.04 324.78ZM1355.41 303.72V329.875H1348.73V286.397H1355.19V293.191H1355.75C1356.77 290.983 1358.32 289.209 1360.39 287.869C1362.47 286.511 1365.15 285.831 1368.43 285.831C1371.38 285.831 1373.95 286.435 1376.16 287.643C1378.37 288.832 1380.09 290.643 1381.31 293.078C1382.54 295.493 1383.15 298.55 1383.15 302.249V329.875H1376.47V302.701C1376.47 299.286 1375.58 296.625 1373.81 294.719C1372.04 292.794 1369.6 291.832 1366.51 291.832C1364.38 291.832 1362.47 292.294 1360.79 293.219C1359.13 294.144 1357.82 295.493 1356.86 297.267C1355.89 299.041 1355.41 301.192 1355.41 303.72ZM1426.95 296.135L1420.95 297.833C1420.57 296.833 1420.02 295.861 1419.28 294.917C1418.56 293.955 1417.58 293.162 1416.34 292.54C1415.09 291.917 1413.5 291.606 1411.55 291.606C1408.89 291.606 1406.68 292.219 1404.9 293.445C1403.15 294.653 1402.27 296.191 1402.27 298.059C1402.27 299.72 1402.87 301.031 1404.08 301.994C1405.29 302.956 1407.18 303.758 1409.74 304.4L1416.2 305.985C1420.08 306.928 1422.98 308.372 1424.89 310.316C1426.79 312.241 1427.74 314.722 1427.74 317.76C1427.74 320.251 1427.03 322.478 1425.59 324.44C1424.18 326.403 1422.2 327.95 1419.65 329.082C1417.1 330.215 1414.14 330.781 1410.76 330.781C1406.33 330.781 1402.66 329.818 1399.75 327.894C1396.84 325.969 1395 323.157 1394.23 319.458L1400.57 317.873C1401.18 320.213 1402.32 321.968 1404 323.138C1405.69 324.308 1407.91 324.893 1410.65 324.893C1413.76 324.893 1416.23 324.233 1418.06 322.912C1419.91 321.572 1420.84 319.968 1420.84 318.1C1420.84 316.59 1420.31 315.326 1419.25 314.307C1418.2 313.269 1416.57 312.495 1414.38 311.986L1407.14 310.287C1403.16 309.344 1400.23 307.881 1398.36 305.9C1396.51 303.9 1395.59 301.399 1395.59 298.399C1395.59 295.946 1396.28 293.776 1397.66 291.889C1399.05 290.002 1400.95 288.52 1403.35 287.445C1405.76 286.369 1408.5 285.831 1411.55 285.831C1415.86 285.831 1419.23 286.775 1421.69 288.662C1424.16 290.549 1425.91 293.04 1426.95 296.135ZM1462.72 329.875V271.905H1497.48V278.132H1469.74V297.72H1494.87V303.947H1469.74V329.875H1462.72ZM1508.93 329.875V286.397H1515.38V292.964H1515.83C1516.62 290.813 1518.06 289.068 1520.13 287.728C1522.21 286.388 1524.55 285.718 1527.15 285.718C1527.64 285.718 1528.26 285.727 1528.99 285.746C1529.73 285.765 1530.29 285.793 1530.66 285.831V292.625C1530.44 292.568 1529.92 292.483 1529.11 292.37C1528.31 292.238 1527.48 292.172 1526.59 292.172C1524.47 292.172 1522.59 292.615 1520.93 293.502C1519.29 294.37 1517.98 295.578 1517.02 297.125C1516.08 298.654 1515.61 300.399 1515.61 302.362V329.875H1508.93ZM1555.72 330.781C1551.79 330.781 1548.35 329.847 1545.39 327.979C1542.44 326.11 1540.14 323.497 1538.48 320.138C1536.84 316.779 1536.02 312.854 1536.02 308.363C1536.02 303.834 1536.84 299.88 1538.48 296.502C1540.14 293.125 1542.44 290.502 1545.39 288.633C1548.35 286.765 1551.79 285.831 1555.72 285.831C1559.64 285.831 1563.08 286.765 1566.02 288.633C1568.99 290.502 1571.29 293.125 1572.93 296.502C1574.59 299.88 1575.42 303.834 1575.42 308.363C1575.42 312.854 1574.59 316.779 1572.93 320.138C1571.29 323.497 1568.99 326.11 1566.02 327.979C1563.08 329.847 1559.64 330.781 1555.72 330.781ZM1555.72 324.78C1558.7 324.78 1561.15 324.016 1563.08 322.487C1565 320.959 1566.43 318.949 1567.35 316.458C1568.28 313.967 1568.74 311.269 1568.74 308.363C1568.74 305.457 1568.28 302.749 1567.35 300.239C1566.43 297.729 1565 295.701 1563.08 294.153C1561.15 292.606 1558.7 291.832 1555.72 291.832C1552.74 291.832 1550.28 292.606 1548.36 294.153C1546.43 295.701 1545.01 297.729 1544.09 300.239C1543.16 302.749 1542.7 305.457 1542.7 308.363C1542.7 311.269 1543.16 313.967 1544.09 316.458C1545.01 318.949 1546.43 320.959 1548.36 322.487C1550.28 324.016 1552.74 324.78 1555.72 324.78ZM1586.41 329.875V286.397H1592.87V293.191H1593.43C1594.34 290.87 1595.8 289.068 1597.82 287.784C1599.84 286.482 1602.27 285.831 1605.1 285.831C1607.96 285.831 1610.35 286.482 1612.26 287.784C1614.18 289.068 1615.68 290.87 1616.76 293.191H1617.21C1618.32 290.945 1619.99 289.162 1622.22 287.841C1624.45 286.501 1627.12 285.831 1630.23 285.831C1634.12 285.831 1637.3 287.048 1639.77 289.483C1642.24 291.898 1643.48 295.663 1643.48 300.777V329.875H1636.8V300.777C1636.8 297.569 1635.92 295.276 1634.17 293.898C1632.41 292.521 1630.34 291.832 1627.97 291.832C1624.91 291.832 1622.54 292.757 1620.86 294.606C1619.18 296.436 1618.34 298.758 1618.34 301.569V329.875H1611.55V300.097C1611.55 297.625 1610.75 295.634 1609.14 294.125C1607.54 292.596 1605.47 291.832 1602.94 291.832C1601.21 291.832 1599.59 292.294 1598.08 293.219C1596.59 294.144 1595.38 295.427 1594.45 297.069C1593.55 298.691 1593.09 300.569 1593.09 302.701V329.875H1586.41ZM1712.31 286.397C1711.97 283.529 1710.6 281.302 1708.18 279.717C1705.77 278.132 1702.8 277.339 1699.29 277.339C1696.73 277.339 1694.48 277.755 1692.56 278.585C1690.65 279.415 1689.16 280.557 1688.08 282.01C1687.03 283.463 1686.5 285.114 1686.5 286.963C1686.5 288.511 1686.87 289.841 1687.6 290.955C1688.36 292.049 1689.32 292.964 1690.49 293.7C1691.66 294.417 1692.89 295.012 1694.17 295.483C1695.45 295.936 1696.63 296.304 1697.71 296.587L1703.6 298.173C1705.1 298.569 1706.78 299.116 1708.63 299.814C1710.5 300.512 1712.29 301.465 1713.98 302.673C1715.7 303.862 1717.12 305.391 1718.23 307.259C1719.34 309.127 1719.9 311.42 1719.9 314.137C1719.9 317.269 1719.08 320.1 1717.44 322.629C1715.81 325.157 1713.44 327.167 1710.3 328.658C1707.19 330.149 1703.41 330.894 1698.95 330.894C1694.8 330.894 1691.21 330.224 1688.17 328.884C1685.15 327.544 1682.77 325.676 1681.04 323.28C1679.32 320.883 1678.35 318.1 1678.12 314.93H1685.37C1685.55 317.119 1686.29 318.93 1687.57 320.364C1688.88 321.78 1690.52 322.836 1692.5 323.535C1694.5 324.214 1696.65 324.554 1698.95 324.554C1701.63 324.554 1704.04 324.119 1706.17 323.251C1708.3 322.365 1709.99 321.138 1711.24 319.572C1712.48 317.987 1713.11 316.137 1713.11 314.024C1713.11 312.099 1712.57 310.533 1711.49 309.325C1710.42 308.117 1709 307.136 1707.25 306.381C1705.49 305.626 1703.6 304.966 1701.56 304.4L1694.42 302.362C1689.9 301.06 1686.31 299.201 1683.67 296.786C1681.03 294.37 1679.71 291.209 1679.71 287.303C1679.71 284.057 1680.58 281.227 1682.34 278.811C1684.11 276.377 1686.49 274.49 1689.47 273.15C1692.47 271.792 1695.82 271.112 1699.52 271.112C1703.26 271.112 1706.58 271.782 1709.48 273.122C1712.39 274.443 1714.69 276.254 1716.39 278.557C1718.11 280.859 1719.01 283.472 1719.11 286.397H1712.31ZM1741.18 329.875L1727.94 286.397H1734.96L1744.35 319.685H1744.81L1754.09 286.397H1761.22L1770.39 319.572H1770.85L1780.24 286.397H1787.26L1774.02 329.875H1767.45L1757.94 296.474H1757.26L1747.75 329.875H1741.18ZM1796.89 329.875V286.397H1803.57V329.875H1796.89ZM1800.29 279.151C1798.99 279.151 1797.86 278.708 1796.92 277.821C1796 276.934 1795.53 275.868 1795.53 274.622C1795.53 273.377 1796 272.311 1796.92 271.424C1797.86 270.537 1798.99 270.093 1800.29 270.093C1801.59 270.093 1802.7 270.537 1803.63 271.424C1804.57 272.311 1805.04 273.377 1805.04 274.622C1805.04 275.868 1804.57 276.934 1803.63 277.821C1802.7 278.708 1801.59 279.151 1800.29 279.151ZM1835.51 286.397V292.058H1812.98V286.397H1835.51ZM1819.55 275.981H1826.23V317.42C1826.23 319.308 1826.5 320.723 1827.05 321.666C1827.62 322.591 1828.33 323.214 1829.2 323.535C1830.09 323.836 1831.02 323.987 1832 323.987C1832.74 323.987 1833.34 323.95 1833.82 323.874C1834.29 323.78 1834.66 323.704 1834.95 323.648L1836.31 329.649C1835.85 329.818 1835.22 329.988 1834.41 330.158C1833.6 330.347 1832.57 330.441 1831.32 330.441C1829.44 330.441 1827.59 330.035 1825.78 329.224C1823.98 328.413 1822.49 327.177 1821.3 325.516C1820.13 323.855 1819.55 321.761 1819.55 319.232V275.981ZM1845.11 329.875V324.78L1869.8 293.078V292.625H1845.91V286.397H1878.4V291.719L1854.4 323.195V323.648H1879.19V329.875H1845.11ZM1909.19 286.397V292.058H1886.66V286.397H1909.19ZM1893.22 275.981H1899.9V317.42C1899.9 319.308 1900.18 320.723 1900.73 321.666C1901.29 322.591 1902.01 323.214 1902.88 323.535C1903.76 323.836 1904.7 323.987 1905.68 323.987C1906.41 323.987 1907.02 323.95 1907.49 323.874C1907.96 323.78 1908.34 323.704 1908.62 323.648L1909.98 329.649C1909.53 329.818 1908.9 329.988 1908.08 330.158C1907.27 330.347 1906.24 330.441 1905 330.441C1903.11 330.441 1901.26 330.035 1899.45 329.224C1897.66 328.413 1896.17 327.177 1894.98 325.516C1893.81 323.855 1893.22 321.761 1893.22 319.232V275.981ZM1937.8 330.781C1933.61 330.781 1929.99 329.856 1926.95 328.007C1923.94 326.139 1921.61 323.535 1919.96 320.194C1918.34 316.835 1917.53 312.929 1917.53 308.476C1917.53 304.022 1918.34 300.097 1919.96 296.701C1921.61 293.285 1923.89 290.624 1926.81 288.718C1929.76 286.794 1933.19 285.831 1937.12 285.831C1939.38 285.831 1941.62 286.209 1943.83 286.963C1946.03 287.718 1948.04 288.945 1949.85 290.643C1951.67 292.323 1953.11 294.549 1954.19 297.323C1955.26 300.097 1955.8 303.513 1955.8 307.57V310.401H1922.28V304.626H1949.01C1949.01 302.173 1948.51 299.984 1947.53 298.059C1946.57 296.135 1945.19 294.615 1943.4 293.502C1941.63 292.389 1939.53 291.832 1937.12 291.832C1934.46 291.832 1932.15 292.493 1930.21 293.813C1928.29 295.116 1926.8 296.814 1925.77 298.908C1924.73 301.003 1924.21 303.249 1924.21 305.645V309.495C1924.21 312.778 1924.78 315.562 1925.91 317.845C1927.06 320.11 1928.65 321.836 1930.69 323.025C1932.73 324.195 1935.1 324.78 1937.8 324.78C1939.55 324.78 1941.14 324.535 1942.55 324.044C1943.99 323.535 1945.22 322.78 1946.26 321.78C1947.3 320.761 1948.1 319.496 1948.67 317.987L1955.12 319.798C1954.44 321.987 1953.3 323.912 1951.69 325.573C1950.09 327.214 1948.11 328.497 1945.75 329.422C1943.39 330.328 1940.74 330.781 1937.8 330.781ZM1966.76 329.875V286.397H1973.21V292.964H1973.66C1974.46 290.813 1975.89 289.068 1977.97 287.728C1980.04 286.388 1982.38 285.718 1984.99 285.718C1985.48 285.718 1986.09 285.727 1986.83 285.746C1987.56 285.765 1988.12 285.793 1988.5 285.831V292.625C1988.27 292.568 1987.75 292.483 1986.94 292.37C1986.15 292.238 1985.31 292.172 1984.42 292.172C1982.31 292.172 1980.42 292.615 1978.76 293.502C1977.12 294.37 1975.82 295.578 1974.85 297.125C1973.91 298.654 1973.44 300.399 1973.44 302.362V329.875H1966.76ZM2003.89 271.905V329.875H1997.21V271.905H2003.89ZM2029.72 330.894C2026.96 330.894 2024.46 330.375 2022.22 329.337C2019.97 328.28 2018.19 326.761 2016.87 324.78C2015.55 322.78 2014.89 320.364 2014.89 317.534C2014.89 315.043 2015.38 313.024 2016.36 311.476C2017.34 309.91 2018.65 308.683 2020.29 307.797C2021.93 306.91 2023.75 306.249 2025.73 305.815C2027.73 305.362 2029.74 305.004 2031.76 304.739C2034.4 304.4 2036.54 304.145 2038.18 303.975C2039.84 303.787 2041.05 303.475 2041.8 303.041C2042.58 302.607 2042.97 301.852 2042.97 300.777V300.55C2042.97 297.757 2042.2 295.587 2040.67 294.04C2039.16 292.493 2036.87 291.719 2033.79 291.719C2030.61 291.719 2028.1 292.417 2026.29 293.813C2024.48 295.21 2023.21 296.701 2022.47 298.286L2016.13 296.021C2017.26 293.379 2018.77 291.323 2020.66 289.851C2022.57 288.36 2024.64 287.322 2026.89 286.737C2029.15 286.133 2031.38 285.831 2033.57 285.831C2034.96 285.831 2036.57 286.001 2038.38 286.341C2040.21 286.662 2041.97 287.331 2043.67 288.35C2045.39 289.369 2046.81 290.907 2047.95 292.964C2049.08 295.021 2049.65 297.776 2049.65 301.23V329.875H2042.97V323.987H2042.63C2042.17 324.931 2041.42 325.94 2040.36 327.016C2039.3 328.092 2037.9 329.007 2036.14 329.762C2034.39 330.517 2032.25 330.894 2029.72 330.894ZM2030.74 324.893C2033.38 324.893 2035.61 324.374 2037.42 323.336C2039.25 322.298 2040.63 320.959 2041.55 319.317C2042.49 317.675 2042.97 315.949 2042.97 314.137V308.023C2042.68 308.363 2042.06 308.674 2041.1 308.957C2040.15 309.221 2039.06 309.457 2037.81 309.665C2036.59 309.853 2035.39 310.023 2034.22 310.174C2033.07 310.306 2032.13 310.42 2031.42 310.514C2029.68 310.74 2028.06 311.108 2026.55 311.618C2025.06 312.108 2023.85 312.854 2022.92 313.854C2022.02 314.835 2021.57 316.175 2021.57 317.873C2021.57 320.194 2022.42 321.949 2024.14 323.138C2025.88 324.308 2028.08 324.893 2030.74 324.893ZM2069.32 303.72V329.875H2062.64V286.397H2069.09V293.191H2069.66C2070.67 290.983 2072.22 289.209 2074.3 287.869C2076.37 286.511 2079.05 285.831 2082.34 285.831C2085.28 285.831 2087.86 286.435 2090.06 287.643C2092.27 288.832 2093.99 290.643 2095.22 293.078C2096.44 295.493 2097.06 298.55 2097.06 302.249V329.875H2090.38V302.701C2090.38 299.286 2089.49 296.625 2087.71 294.719C2085.94 292.794 2083.51 291.832 2080.41 291.832C2078.28 291.832 2076.37 292.294 2074.69 293.219C2073.03 294.144 2071.72 295.493 2070.76 297.267C2069.8 299.041 2069.32 301.192 2069.32 303.72ZM2126.48 330.781C2122.85 330.781 2119.65 329.866 2116.88 328.035C2114.11 326.186 2111.94 323.582 2110.37 320.223C2108.8 316.845 2108.02 312.854 2108.02 308.249C2108.02 303.683 2108.8 299.72 2110.37 296.361C2111.94 293.002 2114.12 290.407 2116.91 288.577C2119.7 286.746 2122.93 285.831 2126.59 285.831C2129.42 285.831 2131.66 286.303 2133.3 287.247C2134.96 288.171 2136.22 289.228 2137.09 290.417C2137.98 291.587 2138.67 292.549 2139.16 293.304H2139.72V271.905H2146.4V329.875H2139.95V323.195H2139.16C2138.67 323.987 2137.97 324.988 2137.06 326.195C2136.16 327.384 2134.86 328.45 2133.18 329.394C2131.51 330.318 2129.27 330.781 2126.48 330.781ZM2127.38 324.78C2130.06 324.78 2132.33 324.082 2134.18 322.685C2136.02 321.27 2137.43 319.317 2138.39 316.826C2139.36 314.316 2139.84 311.42 2139.84 308.136C2139.84 304.89 2139.37 302.05 2138.42 299.616C2137.48 297.163 2136.08 295.257 2134.23 293.898C2132.38 292.521 2130.1 291.832 2127.38 291.832C2124.55 291.832 2122.19 292.559 2120.31 294.012C2118.44 295.446 2117.03 297.399 2116.09 299.871C2115.16 302.324 2114.7 305.079 2114.7 308.136C2114.7 311.231 2115.17 314.043 2116.12 316.571C2117.08 319.081 2118.49 321.081 2120.36 322.572C2122.25 324.044 2124.59 324.78 2127.38 324.78Z" fill="black"/>
<path d="M594.024 434.137V383.375H622.28V386.25H597.122V407.293H620.769V410.168H597.122V431.262H622.875V434.137H594.024ZM658.949 404.269L656.149 405.013C655.702 403.625 655.066 402.427 654.24 401.419C653.414 400.411 652.373 399.634 651.117 399.089C649.878 398.527 648.391 398.246 646.656 398.246C643.863 398.246 641.574 398.94 639.79 400.328C638.022 401.716 637.138 403.526 637.138 405.757C637.138 407.574 637.741 409.078 638.947 410.268C640.153 411.441 641.996 412.333 644.474 412.945L650.324 414.407C653.331 415.15 655.595 416.357 657.115 418.026C658.636 419.678 659.396 421.735 659.396 424.197C659.396 426.296 658.826 428.155 657.685 429.774C656.545 431.394 654.967 432.658 652.951 433.567C650.952 434.475 648.622 434.93 645.961 434.93C642.409 434.93 639.492 434.104 637.212 432.451C634.932 430.782 633.469 428.395 632.825 425.288L635.725 424.544C636.27 427.023 637.402 428.915 639.12 430.22C640.856 431.509 643.128 432.154 645.937 432.154C649.043 432.154 651.547 431.418 653.447 429.948C655.364 428.477 656.322 426.593 656.322 424.297C656.322 422.545 655.76 421.066 654.637 419.86C653.513 418.654 651.811 417.77 649.531 417.208L643.458 415.721C640.352 414.96 638.022 413.746 636.468 412.077C634.915 410.392 634.138 408.318 634.138 405.856C634.138 403.807 634.675 402.006 635.75 400.452C636.824 398.899 638.303 397.684 640.186 396.809C642.07 395.933 644.226 395.495 646.656 395.495C649.878 395.495 652.505 396.255 654.538 397.775C656.57 399.296 658.041 401.46 658.949 404.269ZM684.836 434.93C681.598 434.93 678.747 434.079 676.285 432.377C673.823 430.658 671.898 428.312 670.51 425.338C669.138 422.363 668.453 418.992 668.453 415.225C668.453 411.457 669.147 408.086 670.535 405.112C671.923 402.138 673.848 399.791 676.31 398.073C678.772 396.354 681.606 395.495 684.812 395.495C687.224 395.495 689.422 395.991 691.405 396.982C693.404 397.974 695.057 399.353 696.362 401.121C697.684 402.89 698.527 404.939 698.89 407.268H695.817C695.321 404.691 694.082 402.559 692.099 400.874C690.132 399.172 687.712 398.321 684.836 398.321C682.259 398.321 679.962 399.048 677.946 400.502C675.93 401.939 674.344 403.931 673.187 406.475C672.03 409.004 671.452 411.903 671.452 415.175C671.452 418.397 672.014 421.289 673.137 423.85C674.261 426.395 675.831 428.411 677.847 429.898C679.863 431.385 682.193 432.129 684.836 432.129C686.704 432.129 688.406 431.757 689.942 431.014C691.496 430.27 692.793 429.213 693.834 427.841C694.875 426.47 695.561 424.867 695.891 423.032H698.965C698.601 425.379 697.775 427.444 696.486 429.229C695.197 431.014 693.553 432.41 691.553 433.418C689.554 434.426 687.315 434.93 684.836 434.93ZM724.127 434.93C720.987 434.93 718.194 434.087 715.749 432.402C713.303 430.7 711.378 428.362 709.974 425.387C708.569 422.413 707.867 419.025 707.867 415.225C707.867 411.408 708.569 408.02 709.974 405.062C711.378 402.088 713.303 399.75 715.749 398.048C718.194 396.346 720.987 395.495 724.127 395.495C727.266 395.495 730.059 396.346 732.504 398.048C734.95 399.75 736.875 402.088 738.279 405.062C739.684 408.037 740.386 411.424 740.386 415.225C740.386 419.025 739.684 422.413 738.279 425.387C736.875 428.362 734.95 430.7 732.504 432.402C730.059 434.087 727.266 434.93 724.127 434.93ZM724.127 432.129C726.787 432.129 729.109 431.377 731.091 429.873C733.091 428.37 734.636 426.337 735.726 423.776C736.834 421.215 737.387 418.364 737.387 415.225C737.387 412.085 736.834 409.243 735.726 406.698C734.619 404.137 733.074 402.105 731.091 400.601C729.109 399.081 726.787 398.321 724.127 398.321C721.466 398.321 719.145 399.081 717.162 400.601C715.179 402.105 713.634 404.137 712.527 406.698C711.419 409.243 710.866 412.085 710.866 415.225C710.866 418.364 711.411 421.215 712.502 423.776C713.609 426.337 715.154 428.37 717.137 429.873C719.136 431.377 721.466 432.129 724.127 432.129ZM751.501 434.137V396.065H754.45V401.816H754.748C755.475 399.899 756.731 398.378 758.515 397.255C760.3 396.131 762.448 395.569 764.96 395.569C767.719 395.569 769.942 396.23 771.627 397.552C773.329 398.874 774.552 400.667 775.295 402.931H775.568C776.312 400.7 777.642 398.916 779.559 397.577C781.492 396.239 783.871 395.569 786.697 395.569C790.382 395.569 793.191 396.734 795.124 399.064C797.074 401.378 798.049 404.55 798.049 408.582V434.137H795.025V408.582C795.025 405.41 794.265 402.914 792.745 401.097C791.225 399.279 788.994 398.37 786.053 398.37C782.913 398.37 780.501 399.353 778.815 401.32C777.13 403.286 776.287 405.79 776.287 408.83V434.137H773.263V408.384C773.263 405.426 772.519 403.022 771.032 401.171C769.545 399.304 767.314 398.37 764.34 398.37C762.324 398.37 760.581 398.833 759.11 399.758C757.656 400.684 756.524 401.956 755.714 403.575C754.921 405.195 754.525 407.054 754.525 409.152V434.137H751.501ZM821.383 434.955C819.185 434.955 817.17 434.517 815.335 433.641C813.518 432.765 812.055 431.485 810.948 429.799C809.858 428.114 809.312 426.065 809.312 423.652C809.312 422.066 809.593 420.67 810.155 419.463C810.717 418.257 811.584 417.216 812.758 416.34C813.931 415.464 815.434 414.746 817.269 414.184C819.103 413.605 821.292 413.159 823.837 412.845C825.77 412.614 827.497 412.391 829.017 412.176C830.538 411.945 831.727 411.59 832.587 411.11C833.462 410.631 833.9 409.904 833.9 408.929V407.343C833.9 404.567 833.024 402.361 831.273 400.725C829.521 399.089 827.109 398.271 824.035 398.271C821.309 398.271 819.012 398.874 817.145 400.08C815.294 401.27 813.997 402.807 813.253 404.691L810.403 403.625C811.13 401.807 812.179 400.295 813.551 399.089C814.939 397.883 816.525 396.982 818.31 396.387C820.111 395.792 821.995 395.495 823.961 395.495C825.663 395.495 827.282 395.735 828.819 396.214C830.372 396.693 831.752 397.42 832.958 398.395C834.181 399.37 835.148 400.617 835.858 402.138C836.569 403.641 836.924 405.443 836.924 407.541V434.137H833.9V427.271H833.677C833.016 428.692 832.107 429.989 830.951 431.162C829.81 432.319 828.431 433.244 826.811 433.938C825.208 434.616 823.399 434.955 821.383 434.955ZM821.681 432.154C824.06 432.154 826.167 431.575 828.001 430.419C829.852 429.246 831.298 427.643 832.339 425.61C833.38 423.578 833.9 421.273 833.9 418.695V413.093C833.52 413.424 832.967 413.721 832.24 413.986C831.529 414.233 830.719 414.456 829.81 414.655C828.918 414.837 827.976 415.002 826.985 415.15C826.01 415.283 825.06 415.407 824.134 415.522C821.358 415.853 819.095 416.365 817.343 417.059C815.608 417.737 814.336 418.629 813.526 419.736C812.733 420.843 812.336 422.182 812.336 423.751C812.336 426.346 813.228 428.395 815.013 429.898C816.798 431.402 819.02 432.154 821.681 432.154ZM863.759 396.065V398.767H847.128V396.065H863.759ZM852.754 386.944H855.753V425.139C855.753 426.693 856.051 427.965 856.646 428.956C857.257 429.931 858.05 430.658 859.025 431.138C860.016 431.6 861.074 431.832 862.198 431.832C862.743 431.832 863.214 431.79 863.61 431.708C864.024 431.625 864.412 431.518 864.775 431.385L865.519 434.137C865.056 434.302 864.544 434.442 863.982 434.558C863.42 434.69 862.759 434.756 861.999 434.756C860.413 434.756 858.909 434.401 857.488 433.691C856.084 432.98 854.944 431.947 854.068 430.592C853.192 429.237 852.754 427.601 852.754 425.685V386.944ZM875.822 434.137V396.065H878.821V434.137H875.822ZM877.334 389.323C876.673 389.323 876.094 389.092 875.599 388.629C875.119 388.167 874.88 387.605 874.88 386.944C874.88 386.283 875.119 385.721 875.599 385.258C876.078 384.796 876.656 384.564 877.334 384.564C877.995 384.564 878.565 384.796 879.044 385.258C879.54 385.721 879.787 386.283 879.787 386.944C879.787 387.605 879.548 388.167 879.069 388.629C878.589 389.092 878.011 389.323 877.334 389.323ZM906.461 434.93C903.223 434.93 900.372 434.079 897.91 432.377C895.448 430.658 893.523 428.312 892.135 425.338C890.763 422.363 890.078 418.992 890.078 415.225C890.078 411.457 890.772 408.086 892.16 405.112C893.548 402.138 895.473 399.791 897.935 398.073C900.397 396.354 903.231 395.495 906.437 395.495C908.849 395.495 911.047 395.991 913.03 396.982C915.029 397.974 916.682 399.353 917.987 401.121C919.309 402.89 920.152 404.939 920.515 407.268H917.442C916.946 404.691 915.707 402.559 913.724 400.874C911.757 399.172 909.337 398.321 906.461 398.321C903.884 398.321 901.587 399.048 899.571 400.502C897.555 401.939 895.969 403.931 894.812 406.475C893.655 409.004 893.077 411.903 893.077 415.175C893.077 418.397 893.639 421.289 894.762 423.85C895.886 426.395 897.456 428.411 899.472 429.898C901.488 431.385 903.817 432.129 906.461 432.129C908.329 432.129 910.031 431.757 911.567 431.014C913.121 430.27 914.418 429.213 915.459 427.841C916.5 426.47 917.186 424.867 917.516 423.032H920.589C920.226 425.379 919.4 427.444 918.111 429.229C916.822 431.014 915.178 432.41 913.178 433.418C911.179 434.426 908.94 434.93 906.461 434.93ZM941.798 411.433V393.14H950.126C951.2 393.14 952.175 393.372 953.051 393.834C953.927 394.28 954.613 394.925 955.108 395.768C955.62 396.594 955.877 397.577 955.877 398.717C955.877 399.874 955.62 400.89 955.108 401.766C954.596 402.625 953.894 403.303 953.001 403.798C952.126 404.278 951.134 404.517 950.027 404.517H943.137V402.46H949.581C950.721 402.46 951.63 402.129 952.307 401.468C953.001 400.808 953.348 399.89 953.348 398.717C953.348 397.527 953.001 396.643 952.307 396.065C951.63 395.487 950.729 395.198 949.606 395.198H944.202V411.433H941.798ZM952.109 403.08L956.62 411.433H953.943L949.507 403.08H952.109ZM948.317 422.338C945.574 422.338 943.004 421.826 940.608 420.802C938.212 419.777 936.105 418.356 934.288 416.539C932.47 414.721 931.049 412.614 930.025 410.218C929 407.822 928.488 405.253 928.488 402.51C928.488 399.767 929 397.197 930.025 394.801C931.049 392.405 932.47 390.298 934.288 388.481C936.105 386.663 938.212 385.242 940.608 384.217C943.004 383.193 945.574 382.681 948.317 382.681C951.06 382.681 953.629 383.193 956.025 384.217C958.421 385.242 960.528 386.663 962.346 388.481C964.163 390.298 965.585 392.405 966.609 394.801C967.634 397.197 968.146 399.767 968.146 402.51C968.146 405.253 967.634 407.822 966.609 410.218C965.585 412.614 964.163 414.721 962.346 416.539C960.528 418.356 958.421 419.777 956.025 420.802C953.629 421.826 951.06 422.338 948.317 422.338ZM948.317 419.686C951.489 419.686 954.373 418.918 956.967 417.381C959.578 415.844 961.652 413.779 963.189 411.185C964.725 408.574 965.494 405.682 965.494 402.51C965.494 399.337 964.717 396.453 963.164 393.859C961.627 391.265 959.562 389.199 956.967 387.663C954.373 386.109 951.489 385.333 948.317 385.333C945.144 385.333 942.252 386.101 939.642 387.638C937.047 389.175 934.982 391.248 933.445 393.859C931.908 396.453 931.14 399.337 931.14 402.51C931.14 405.666 931.908 408.549 933.445 411.16C934.982 413.771 937.047 415.844 939.642 417.381C942.252 418.918 945.144 419.686 948.317 419.686ZM1027.47 396.065C1027.21 392.909 1025.92 390.356 1023.61 388.406C1021.31 386.456 1018.34 385.481 1014.68 385.481C1012.22 385.481 1010.03 385.936 1008.12 386.845C1006.2 387.753 1004.69 388.993 1003.6 390.563C1002.51 392.132 1001.97 393.933 1001.97 395.966C1001.97 397.271 1002.22 398.453 1002.71 399.51C1003.22 400.551 1003.94 401.485 1004.87 402.311C1005.79 403.121 1006.89 403.831 1008.16 404.443C1009.44 405.054 1010.84 405.591 1012.38 406.054L1017.93 407.69C1019.83 408.268 1021.58 408.937 1023.19 409.698C1024.8 410.458 1026.21 411.366 1027.4 412.424C1028.61 413.465 1029.54 414.688 1030.2 416.092C1030.88 417.497 1031.22 419.116 1031.22 420.95C1031.22 423.627 1030.52 426.023 1029.13 428.138C1027.76 430.254 1025.8 431.922 1023.26 433.145C1020.73 434.352 1017.75 434.955 1014.31 434.955C1011.04 434.955 1008.19 434.401 1005.76 433.294C1003.35 432.187 1001.44 430.65 1000.03 428.684C998.63 426.701 997.837 424.421 997.655 421.843H1000.83C1000.99 423.941 1001.66 425.759 1002.84 427.296C1004.03 428.816 1005.6 429.989 1007.57 430.815C1009.54 431.642 1011.78 432.055 1014.31 432.055C1017.04 432.055 1019.44 431.592 1021.52 430.667C1023.61 429.725 1025.23 428.419 1026.41 426.75C1027.58 425.081 1028.17 423.14 1028.17 420.926C1028.17 419.141 1027.75 417.613 1026.9 416.34C1026.06 415.068 1024.81 413.969 1023.16 413.044C1021.52 412.118 1019.49 411.292 1017.06 410.565L1011.14 408.78C1007.17 407.574 1004.14 405.93 1002.04 403.848C999.961 401.766 998.92 399.172 998.92 396.065C998.92 393.454 999.614 391.141 1001 389.125C1002.39 387.092 1004.27 385.498 1006.65 384.341C1009.05 383.185 1011.75 382.606 1014.76 382.606C1017.78 382.606 1020.45 383.193 1022.76 384.366C1025.08 385.523 1026.91 387.117 1028.27 389.15C1029.62 391.166 1030.37 393.471 1030.52 396.065H1027.47ZM1043.09 448.414V396.065H1046.04V404.567H1046.41C1047.01 402.931 1047.84 401.427 1048.92 400.056C1050.01 398.684 1051.35 397.585 1052.96 396.759C1054.58 395.916 1056.48 395.495 1058.66 395.495C1061.73 395.495 1064.41 396.338 1066.69 398.023C1068.97 399.709 1070.74 402.039 1071.99 405.013C1073.25 407.971 1073.88 411.366 1073.88 415.2C1073.88 419.034 1073.24 422.438 1071.97 425.412C1070.71 428.37 1068.94 430.7 1066.66 432.402C1064.4 434.087 1061.75 434.93 1058.71 434.93C1056.54 434.93 1054.64 434.517 1053.01 433.691C1051.39 432.864 1050.02 431.766 1048.92 430.394C1047.83 429.006 1046.99 427.486 1046.41 425.833H1046.12V448.414H1043.09ZM1046.07 415.175C1046.07 418.414 1046.56 421.314 1047.55 423.875C1048.55 426.42 1049.97 428.436 1051.82 429.923C1053.67 431.394 1055.87 432.129 1058.44 432.129C1061.03 432.129 1063.25 431.385 1065.1 429.898C1066.97 428.395 1068.39 426.362 1069.37 423.801C1070.36 421.24 1070.85 418.364 1070.85 415.175C1070.85 411.986 1070.37 409.119 1069.39 406.574C1068.42 404.03 1067 402.022 1065.15 400.551C1063.3 399.064 1061.06 398.321 1058.44 398.321C1055.84 398.321 1053.62 399.056 1051.77 400.527C1049.93 401.981 1048.52 403.98 1047.53 406.525C1046.55 409.053 1046.07 411.937 1046.07 415.175ZM1099.88 434.93C1096.44 434.93 1093.45 434.079 1090.9 432.377C1088.36 430.675 1086.39 428.345 1085 425.387C1083.62 422.429 1082.92 419.058 1082.92 415.274C1082.92 411.474 1083.62 408.086 1085 405.112C1086.41 402.138 1088.33 399.791 1090.78 398.073C1093.22 396.354 1096.02 395.495 1099.16 395.495C1101.29 395.495 1103.3 395.925 1105.2 396.784C1107.12 397.627 1108.81 398.849 1110.26 400.452C1111.73 402.055 1112.88 403.988 1113.71 406.252C1114.55 408.516 1114.97 411.061 1114.97 413.886V415.77H1084.83V413.019H1111.95C1111.95 410.259 1111.38 407.772 1110.26 405.558C1109.14 403.344 1107.61 401.584 1105.68 400.279C1103.74 398.973 1101.57 398.321 1099.16 398.321C1096.63 398.321 1094.37 399.031 1092.39 400.452C1090.42 401.857 1088.86 403.757 1087.71 406.153C1086.57 408.549 1085.97 411.226 1085.92 414.184V415.423C1085.92 418.596 1086.47 421.446 1087.58 423.974C1088.71 426.486 1090.31 428.477 1092.39 429.948C1094.47 431.402 1096.97 432.129 1099.88 432.129C1101.96 432.129 1103.73 431.782 1105.2 431.088C1106.69 430.377 1107.91 429.518 1108.85 428.51C1109.79 427.502 1110.5 426.527 1110.98 425.585L1113.73 426.701C1113.15 427.973 1112.25 429.246 1111.03 430.518C1109.82 431.774 1108.29 432.823 1106.42 433.666C1104.57 434.509 1102.39 434.93 1099.88 434.93ZM1140.36 434.93C1137.12 434.93 1134.27 434.079 1131.8 432.377C1129.34 430.658 1127.42 428.312 1126.03 425.338C1124.66 422.363 1123.97 418.992 1123.97 415.225C1123.97 411.457 1124.67 408.086 1126.05 405.112C1127.44 402.138 1129.37 399.791 1131.83 398.073C1134.29 396.354 1137.12 395.495 1140.33 395.495C1142.74 395.495 1144.94 395.991 1146.92 396.982C1148.92 397.974 1150.58 399.353 1151.88 401.121C1153.2 402.89 1154.05 404.939 1154.41 407.268H1151.34C1150.84 404.691 1149.6 402.559 1147.62 400.874C1145.65 399.172 1143.23 398.321 1140.36 398.321C1137.78 398.321 1135.48 399.048 1133.46 400.502C1131.45 401.939 1129.86 403.931 1128.71 406.475C1127.55 409.004 1126.97 411.903 1126.97 415.175C1126.97 418.397 1127.53 421.289 1128.66 423.85C1129.78 426.395 1131.35 428.411 1133.37 429.898C1135.38 431.385 1137.71 432.129 1140.36 432.129C1142.22 432.129 1143.92 431.757 1145.46 431.014C1147.01 430.27 1148.31 429.213 1149.35 427.841C1150.39 426.47 1151.08 424.867 1151.41 423.032H1154.48C1154.12 425.379 1153.29 427.444 1152 429.229C1150.72 431.014 1149.07 432.41 1147.07 433.418C1145.07 434.426 1142.83 434.93 1140.36 434.93ZM1165.64 434.137V396.065H1168.64V434.137H1165.64ZM1167.15 389.323C1166.49 389.323 1165.91 389.092 1165.42 388.629C1164.94 388.167 1164.7 387.605 1164.7 386.944C1164.7 386.283 1164.94 385.721 1165.42 385.258C1165.9 384.796 1166.48 384.564 1167.15 384.564C1167.81 384.564 1168.38 384.796 1168.86 385.258C1169.36 385.721 1169.61 386.283 1169.61 386.944C1169.61 387.605 1169.37 388.167 1168.89 388.629C1168.41 389.092 1167.83 389.323 1167.15 389.323ZM1192.09 434.955C1189.89 434.955 1187.88 434.517 1186.04 433.641C1184.23 432.765 1182.76 431.485 1181.66 429.799C1180.57 428.114 1180.02 426.065 1180.02 423.652C1180.02 422.066 1180.3 420.67 1180.86 419.463C1181.43 418.257 1182.29 417.216 1183.47 416.34C1184.64 415.464 1186.14 414.746 1187.98 414.184C1189.81 413.605 1192 413.159 1194.55 412.845C1196.48 412.614 1198.21 412.391 1199.73 412.176C1201.25 411.945 1202.44 411.59 1203.3 411.11C1204.17 410.631 1204.61 409.904 1204.61 408.929V407.343C1204.61 404.567 1203.73 402.361 1201.98 400.725C1200.23 399.089 1197.82 398.271 1194.74 398.271C1192.02 398.271 1189.72 398.874 1187.85 400.08C1186 401.27 1184.71 402.807 1183.96 404.691L1181.11 403.625C1181.84 401.807 1182.89 400.295 1184.26 399.089C1185.65 397.883 1187.23 396.982 1189.02 396.387C1190.82 395.792 1192.7 395.495 1194.67 395.495C1196.37 395.495 1197.99 395.735 1199.53 396.214C1201.08 396.693 1202.46 397.42 1203.67 398.395C1204.89 399.37 1205.86 400.617 1206.57 402.138C1207.28 403.641 1207.63 405.443 1207.63 407.541V434.137H1204.61V427.271H1204.39C1203.73 428.692 1202.82 429.989 1201.66 431.162C1200.52 432.319 1199.14 433.244 1197.52 433.938C1195.92 434.616 1194.11 434.955 1192.09 434.955ZM1192.39 432.154C1194.77 432.154 1196.88 431.575 1198.71 430.419C1200.56 429.246 1202.01 427.643 1203.05 425.61C1204.09 423.578 1204.61 421.273 1204.61 418.695V413.093C1204.23 413.424 1203.68 413.721 1202.95 413.986C1202.24 414.233 1201.43 414.456 1200.52 414.655C1199.63 414.837 1198.69 415.002 1197.69 415.15C1196.72 415.283 1195.77 415.407 1194.84 415.522C1192.07 415.853 1189.8 416.365 1188.05 417.059C1186.32 417.737 1185.04 418.629 1184.23 419.736C1183.44 420.843 1183.05 422.182 1183.05 423.751C1183.05 426.346 1183.94 428.395 1185.72 429.898C1187.51 431.402 1189.73 432.154 1192.39 432.154ZM1224.03 383.375V434.137H1221.01V383.375H1224.03ZM1237.4 434.137V396.065H1240.4V434.137H1237.4ZM1238.91 389.323C1238.25 389.323 1237.67 389.092 1237.17 388.629C1236.69 388.167 1236.45 387.605 1236.45 386.944C1236.45 386.283 1236.69 385.721 1237.17 385.258C1237.65 384.796 1238.23 384.564 1238.91 384.564C1239.57 384.564 1240.14 384.796 1240.62 385.258C1241.11 385.721 1241.36 386.283 1241.36 386.944C1241.36 387.605 1241.12 388.167 1240.64 388.629C1240.16 389.092 1239.59 389.323 1238.91 389.323ZM1277.95 404.269L1275.15 405.013C1274.7 403.625 1274.07 402.427 1273.24 401.419C1272.42 400.411 1271.37 399.634 1270.12 399.089C1268.88 398.527 1267.39 398.246 1265.66 398.246C1262.86 398.246 1260.58 398.94 1258.79 400.328C1257.02 401.716 1256.14 403.526 1256.14 405.757C1256.14 407.574 1256.74 409.078 1257.95 410.268C1259.15 411.441 1261 412.333 1263.48 412.945L1269.33 414.407C1272.33 415.15 1274.6 416.357 1276.12 418.026C1277.64 419.678 1278.4 421.735 1278.4 424.197C1278.4 426.296 1277.83 428.155 1276.69 429.774C1275.55 431.394 1273.97 432.658 1271.95 433.567C1269.95 434.475 1267.62 434.93 1264.96 434.93C1261.41 434.93 1258.49 434.104 1256.21 432.451C1253.93 430.782 1252.47 428.395 1251.83 425.288L1254.73 424.544C1255.27 427.023 1256.4 428.915 1258.12 430.22C1259.86 431.509 1262.13 432.154 1264.94 432.154C1268.04 432.154 1270.55 431.418 1272.45 429.948C1274.37 428.477 1275.32 426.593 1275.32 424.297C1275.32 422.545 1274.76 421.066 1273.64 419.86C1272.51 418.654 1270.81 417.77 1268.53 417.208L1262.46 415.721C1259.35 414.96 1257.02 413.746 1255.47 412.077C1253.92 410.392 1253.14 408.318 1253.14 405.856C1253.14 403.807 1253.68 402.006 1254.75 400.452C1255.83 398.899 1257.3 397.684 1259.19 396.809C1261.07 395.933 1263.23 395.495 1265.66 395.495C1268.88 395.495 1271.51 396.255 1273.54 397.775C1275.57 399.296 1277.04 401.46 1277.95 404.269ZM1303.02 396.065V398.767H1286.39V396.065H1303.02ZM1292.02 386.944H1295.01V425.139C1295.01 426.693 1295.31 427.965 1295.91 428.956C1296.52 429.931 1297.31 430.658 1298.29 431.138C1299.28 431.6 1300.33 431.832 1301.46 431.832C1302 431.832 1302.47 431.79 1302.87 431.708C1303.28 431.625 1303.67 431.518 1304.04 431.385L1304.78 434.137C1304.32 434.302 1303.81 434.442 1303.24 434.558C1302.68 434.69 1302.02 434.756 1301.26 434.756C1299.67 434.756 1298.17 434.401 1296.75 433.691C1295.34 432.98 1294.2 431.947 1293.33 430.592C1292.45 429.237 1292.02 427.601 1292.02 425.685V386.944ZM1338.44 404.269L1335.64 405.013C1335.2 403.625 1334.56 402.427 1333.73 401.419C1332.91 400.411 1331.87 399.634 1330.61 399.089C1329.37 398.527 1327.88 398.246 1326.15 398.246C1323.36 398.246 1321.07 398.94 1319.28 400.328C1317.52 401.716 1316.63 403.526 1316.63 405.757C1316.63 407.574 1317.23 409.078 1318.44 410.268C1319.65 411.441 1321.49 412.333 1323.97 412.945L1329.82 414.407C1332.83 415.15 1335.09 416.357 1336.61 418.026C1338.13 419.678 1338.89 421.735 1338.89 424.197C1338.89 426.296 1338.32 428.155 1337.18 429.774C1336.04 431.394 1334.46 432.658 1332.45 433.567C1330.45 434.475 1328.12 434.93 1325.46 434.93C1321.9 434.93 1318.99 434.104 1316.71 432.451C1314.43 430.782 1312.96 428.395 1312.32 425.288L1315.22 424.544C1315.76 427.023 1316.9 428.915 1318.61 430.22C1320.35 431.509 1322.62 432.154 1325.43 432.154C1328.54 432.154 1331.04 431.418 1332.94 429.948C1334.86 428.477 1335.82 426.593 1335.82 424.297C1335.82 422.545 1335.25 421.066 1334.13 419.86C1333.01 418.654 1331.31 417.77 1329.02 417.208L1322.95 415.721C1319.85 414.96 1317.52 413.746 1315.96 412.077C1314.41 410.392 1313.63 408.318 1313.63 405.856C1313.63 403.807 1314.17 402.006 1315.24 400.452C1316.32 398.899 1317.8 397.684 1319.68 396.809C1321.56 395.933 1323.72 395.495 1326.15 395.495C1329.37 395.495 1332 396.255 1334.03 397.775C1336.06 399.296 1337.53 401.46 1338.44 404.269ZM1399.01 407.318V410.193H1364.11V407.318H1399.01ZM1424 386.25V383.375H1459.57V386.25H1443.34V434.137H1440.24V386.25H1424ZM1479.13 434.93C1475.99 434.93 1473.19 434.087 1470.75 432.402C1468.3 430.7 1466.38 428.362 1464.97 425.387C1463.57 422.413 1462.87 419.025 1462.87 415.225C1462.87 411.408 1463.57 408.02 1464.97 405.062C1466.38 402.088 1468.3 399.75 1470.75 398.048C1473.19 396.346 1475.99 395.495 1479.13 395.495C1482.26 395.495 1485.06 396.346 1487.5 398.048C1489.95 399.75 1491.87 402.088 1493.28 405.062C1494.68 408.037 1495.38 411.424 1495.38 415.225C1495.38 419.025 1494.68 422.413 1493.28 425.387C1491.87 428.362 1489.95 430.7 1487.5 432.402C1485.06 434.087 1482.26 434.93 1479.13 434.93ZM1479.13 432.129C1481.79 432.129 1484.11 431.377 1486.09 429.873C1488.09 428.37 1489.63 426.337 1490.73 423.776C1491.83 421.215 1492.39 418.364 1492.39 415.225C1492.39 412.085 1491.83 409.243 1490.73 406.698C1489.62 404.137 1488.07 402.105 1486.09 400.601C1484.11 399.081 1481.79 398.321 1479.13 398.321C1476.46 398.321 1474.14 399.081 1472.16 400.601C1470.18 402.105 1468.63 404.137 1467.53 406.698C1466.42 409.243 1465.86 412.085 1465.86 415.225C1465.86 418.364 1466.41 421.215 1467.5 423.776C1468.61 426.337 1470.15 428.37 1472.14 429.873C1474.13 431.377 1476.46 432.129 1479.13 432.129ZM1520.65 434.93C1517.51 434.93 1514.72 434.087 1512.27 432.402C1509.83 430.7 1507.9 428.362 1506.5 425.387C1505.09 422.413 1504.39 419.025 1504.39 415.225C1504.39 411.408 1505.09 408.02 1506.5 405.062C1507.9 402.088 1509.83 399.75 1512.27 398.048C1514.72 396.346 1517.51 395.495 1520.65 395.495C1523.79 395.495 1526.58 396.346 1529.03 398.048C1531.48 399.75 1533.4 402.088 1534.81 405.062C1536.21 408.037 1536.91 411.424 1536.91 415.225C1536.91 419.025 1536.21 422.413 1534.81 425.387C1533.4 428.362 1531.48 430.7 1529.03 432.402C1526.58 434.087 1523.79 434.93 1520.65 434.93ZM1520.65 432.129C1523.31 432.129 1525.63 431.377 1527.62 429.873C1529.62 428.37 1531.16 426.337 1532.25 423.776C1533.36 421.215 1533.91 418.364 1533.91 415.225C1533.91 412.085 1533.36 409.243 1532.25 406.698C1531.15 404.137 1529.6 402.105 1527.62 400.601C1525.63 399.081 1523.31 398.321 1520.65 398.321C1517.99 398.321 1515.67 399.081 1513.69 400.601C1511.7 402.105 1510.16 404.137 1509.05 406.698C1507.95 409.243 1507.39 412.085 1507.39 415.225C1507.39 418.364 1507.94 421.215 1509.03 423.776C1510.13 426.337 1511.68 428.37 1513.66 429.873C1515.66 431.377 1517.99 432.129 1520.65 432.129ZM1551.05 383.375V434.137H1548.03V383.375H1551.05ZM1585.66 434.137V383.375H1588.76V407.293H1619.34V383.375H1622.44V434.137H1619.34V410.168H1588.76V434.137H1585.66ZM1651.6 434.93C1648.16 434.93 1645.17 434.079 1642.63 432.377C1640.08 430.675 1638.12 428.345 1636.73 425.387C1635.34 422.429 1634.65 419.058 1634.65 415.274C1634.65 411.474 1635.34 408.086 1636.73 405.112C1638.13 402.138 1640.06 399.791 1642.5 398.073C1644.95 396.354 1647.74 395.495 1650.88 395.495C1653.01 395.495 1655.03 395.925 1656.93 396.784C1658.85 397.627 1660.53 398.849 1661.99 400.452C1663.46 402.055 1664.61 403.988 1665.43 406.252C1666.27 408.516 1666.7 411.061 1666.7 413.886V415.77H1636.56V413.019H1663.67C1663.67 410.259 1663.11 407.772 1661.99 405.558C1660.86 403.344 1659.33 401.584 1657.4 400.279C1655.47 398.973 1653.29 398.321 1650.88 398.321C1648.35 398.321 1646.1 399.031 1644.12 400.452C1642.15 401.857 1640.59 403.757 1639.43 406.153C1638.29 408.549 1637.7 411.226 1637.65 414.184V415.423C1637.65 418.596 1638.2 421.446 1639.31 423.974C1640.43 426.486 1642.03 428.477 1644.12 429.948C1646.2 431.402 1648.69 432.129 1651.6 432.129C1653.68 432.129 1655.46 431.782 1656.93 431.088C1658.42 430.377 1659.63 429.518 1660.57 428.51C1661.52 427.502 1662.23 426.527 1662.71 425.585L1665.46 426.701C1664.88 427.973 1663.98 429.246 1662.76 430.518C1661.55 431.774 1660.01 432.823 1658.14 433.666C1656.29 434.509 1654.11 434.93 1651.6 434.93ZM1687.89 434.955C1685.69 434.955 1683.68 434.517 1681.84 433.641C1680.03 432.765 1678.56 431.485 1677.46 429.799C1676.37 428.114 1675.82 426.065 1675.82 423.652C1675.82 422.066 1676.1 420.67 1676.66 419.463C1677.23 418.257 1678.09 417.216 1679.27 416.34C1680.44 415.464 1681.94 414.746 1683.78 414.184C1685.61 413.605 1687.8 413.159 1690.35 412.845C1692.28 412.614 1694.01 412.391 1695.53 412.176C1697.05 411.945 1698.24 411.59 1699.1 411.11C1699.97 410.631 1700.41 409.904 1700.41 408.929V407.343C1700.41 404.567 1699.53 402.361 1697.78 400.725C1696.03 399.089 1693.62 398.271 1690.54 398.271C1687.82 398.271 1685.52 398.874 1683.65 400.08C1681.8 401.27 1680.51 402.807 1679.76 404.691L1676.91 403.625C1677.64 401.807 1678.69 400.295 1680.06 399.089C1681.45 397.883 1683.03 396.982 1684.82 396.387C1686.62 395.792 1688.5 395.495 1690.47 395.495C1692.17 395.495 1693.79 395.735 1695.33 396.214C1696.88 396.693 1698.26 397.42 1699.47 398.395C1700.69 399.37 1701.66 400.617 1702.37 402.138C1703.08 403.641 1703.43 405.443 1703.43 407.541V434.137H1700.41V427.271H1700.19C1699.53 428.692 1698.62 429.989 1697.46 431.162C1696.32 432.319 1694.94 433.244 1693.32 433.938C1691.72 434.616 1689.91 434.955 1687.89 434.955ZM1688.19 432.154C1690.57 432.154 1692.68 431.575 1694.51 430.419C1696.36 429.246 1697.81 427.643 1698.85 425.61C1699.89 423.578 1700.41 421.273 1700.41 418.695V413.093C1700.03 413.424 1699.48 413.721 1698.75 413.986C1698.04 414.233 1697.23 414.456 1696.32 414.655C1695.43 414.837 1694.49 415.002 1693.49 415.15C1692.52 415.283 1691.57 415.407 1690.64 415.522C1687.87 415.853 1685.6 416.365 1683.85 417.059C1682.12 417.737 1680.84 418.629 1680.03 419.736C1679.24 420.843 1678.85 422.182 1678.85 423.751C1678.85 426.346 1679.74 428.395 1681.52 429.898C1683.31 431.402 1685.53 432.154 1688.19 432.154ZM1729.87 434.93C1726.81 434.93 1724.15 434.087 1721.87 432.402C1719.59 430.716 1717.82 428.395 1716.56 425.437C1715.32 422.462 1714.7 419.05 1714.7 415.2C1714.7 411.383 1715.33 407.996 1716.59 405.038C1717.86 402.063 1719.63 399.733 1721.92 398.048C1724.2 396.346 1726.86 395.495 1729.9 395.495C1732.08 395.495 1733.97 395.916 1735.57 396.759C1737.19 397.585 1738.55 398.684 1739.64 400.056C1740.74 401.427 1741.59 402.931 1742.17 404.567H1742.46V383.375H1745.46V434.137H1742.54V425.833H1742.17C1741.55 427.469 1740.7 428.981 1739.61 430.369C1738.52 431.741 1737.17 432.848 1735.55 433.691C1733.93 434.517 1732.04 434.93 1729.87 434.93ZM1730.14 432.129C1732.72 432.129 1734.93 431.394 1736.76 429.923C1738.61 428.436 1740.03 426.42 1741 423.875C1741.99 421.314 1742.49 418.414 1742.49 415.175C1742.49 411.937 1741.99 409.053 1741 406.525C1740.03 403.98 1738.61 401.981 1736.76 400.527C1734.93 399.056 1732.72 398.321 1730.14 398.321C1727.53 398.321 1725.29 399.064 1723.43 400.551C1721.58 402.022 1720.16 404.03 1719.16 406.574C1718.19 409.119 1717.7 411.986 1717.7 415.175C1717.7 418.364 1718.19 421.24 1719.16 423.801C1720.16 426.362 1721.58 428.395 1723.43 429.898C1725.29 431.385 1727.53 432.129 1730.14 432.129ZM1783.96 404.269L1781.16 405.013C1780.71 403.625 1780.08 402.427 1779.25 401.419C1778.42 400.411 1777.38 399.634 1776.13 399.089C1774.89 398.527 1773.4 398.246 1771.67 398.246C1768.87 398.246 1766.58 398.94 1764.8 400.328C1763.03 401.716 1762.15 403.526 1762.15 405.757C1762.15 407.574 1762.75 409.078 1763.96 410.268C1765.16 411.441 1767.01 412.333 1769.48 412.945L1775.33 414.407C1778.34 415.15 1780.6 416.357 1782.12 418.026C1783.65 419.678 1784.41 421.735 1784.41 424.197C1784.41 426.296 1783.84 428.155 1782.69 429.774C1781.55 431.394 1779.98 432.658 1777.96 433.567C1775.96 434.475 1773.63 434.93 1770.97 434.93C1767.42 434.93 1764.5 434.104 1762.22 432.451C1759.94 430.782 1758.48 428.395 1757.83 425.288L1760.73 424.544C1761.28 427.023 1762.41 428.915 1764.13 430.22C1765.87 431.509 1768.14 432.154 1770.95 432.154C1774.05 432.154 1776.56 431.418 1778.46 429.948C1780.37 428.477 1781.33 426.593 1781.33 424.297C1781.33 422.545 1780.77 421.066 1779.65 419.86C1778.52 418.654 1776.82 417.77 1774.54 417.208L1768.47 415.721C1765.36 414.96 1763.03 413.746 1761.48 412.077C1759.92 410.392 1759.15 408.318 1759.15 405.856C1759.15 403.807 1759.69 402.006 1760.76 400.452C1761.83 398.899 1763.31 397.684 1765.2 396.809C1767.08 395.933 1769.24 395.495 1771.67 395.495C1774.89 395.495 1777.51 396.255 1779.55 397.775C1781.58 399.296 1783.05 401.46 1783.96 404.269ZM1844.53 407.318V410.193H1809.63V407.318H1844.53ZM1872.89 434.137V383.375H1875.99V431.262H1900.77V434.137H1872.89ZM1921.87 434.955C1919.67 434.955 1917.66 434.517 1915.82 433.641C1914.01 432.765 1912.54 431.485 1911.44 429.799C1910.35 428.114 1909.8 426.065 1909.8 423.652C1909.8 422.066 1910.08 420.67 1910.64 419.463C1911.2 418.257 1912.07 417.216 1913.25 416.34C1914.42 415.464 1915.92 414.746 1917.76 414.184C1919.59 413.605 1921.78 413.159 1924.32 412.845C1926.26 412.614 1927.98 412.391 1929.5 412.176C1931.03 411.945 1932.21 411.59 1933.07 411.11C1933.95 410.631 1934.39 409.904 1934.39 408.929V407.343C1934.39 404.567 1933.51 402.361 1931.76 400.725C1930.01 399.089 1927.6 398.271 1924.52 398.271C1921.8 398.271 1919.5 398.874 1917.63 400.08C1915.78 401.27 1914.48 402.807 1913.74 404.691L1910.89 403.625C1911.62 401.807 1912.67 400.295 1914.04 399.089C1915.43 397.883 1917.01 396.982 1918.8 396.387C1920.6 395.792 1922.48 395.495 1924.45 395.495C1926.15 395.495 1927.77 395.735 1929.31 396.214C1930.86 396.693 1932.24 397.42 1933.45 398.395C1934.67 399.37 1935.64 400.617 1936.35 402.138C1937.06 403.641 1937.41 405.443 1937.41 407.541V434.137H1934.39V427.271H1934.16C1933.5 428.692 1932.59 429.989 1931.44 431.162C1930.3 432.319 1928.92 433.244 1927.3 433.938C1925.7 434.616 1923.89 434.955 1921.87 434.955ZM1922.17 432.154C1924.55 432.154 1926.65 431.575 1928.49 430.419C1930.34 429.246 1931.79 427.643 1932.83 425.61C1933.87 423.578 1934.39 421.273 1934.39 418.695V413.093C1934.01 413.424 1933.45 413.721 1932.73 413.986C1932.02 414.233 1931.21 414.456 1930.3 414.655C1929.41 414.837 1928.46 415.002 1927.47 415.15C1926.5 415.283 1925.55 415.407 1924.62 415.522C1921.85 415.853 1919.58 416.365 1917.83 417.059C1916.1 417.737 1914.82 418.629 1914.01 419.736C1913.22 420.843 1912.82 422.182 1912.82 423.751C1912.82 426.346 1913.72 428.395 1915.5 429.898C1917.29 431.402 1919.51 432.154 1922.17 432.154ZM1964.25 396.065V398.767H1947.62V396.065H1964.25ZM1953.24 386.944H1956.24V425.139C1956.24 426.693 1956.54 427.965 1957.13 428.956C1957.74 429.931 1958.54 430.658 1959.51 431.138C1960.5 431.6 1961.56 431.832 1962.69 431.832C1963.23 431.832 1963.7 431.79 1964.1 431.708C1964.51 431.625 1964.9 431.518 1965.26 431.385L1966.01 434.137C1965.54 434.302 1965.03 434.442 1964.47 434.558C1963.91 434.69 1963.25 434.756 1962.49 434.756C1960.9 434.756 1959.4 434.401 1957.98 433.691C1956.57 432.98 1955.43 431.947 1954.56 430.592C1953.68 429.237 1953.24 427.601 1953.24 425.685V386.944ZM1980 409.45V434.137H1976.98V383.375H1980V402.088H1980.3C1981.19 400.105 1982.61 398.527 1984.56 397.354C1986.53 396.164 1988.88 395.569 1991.63 395.569C1994.19 395.569 1996.44 396.115 1998.39 397.205C2000.34 398.279 2001.86 399.824 2002.95 401.84C2004.06 403.84 2004.62 406.236 2004.62 409.028V434.137H2001.62V409.152C2001.62 405.897 2000.65 403.286 1998.72 401.32C1996.78 399.353 1994.23 398.37 1991.06 398.37C1988.93 398.37 1987.03 398.833 1985.36 399.758C1983.69 400.684 1982.37 401.981 1981.42 403.65C1980.47 405.302 1980 407.235 1980 409.45ZM2032.67 434.93C2029.23 434.93 2026.24 434.079 2023.7 432.377C2021.15 430.675 2019.19 428.345 2017.8 425.387C2016.41 422.429 2015.72 419.058 2015.72 415.274C2015.72 411.474 2016.41 408.086 2017.8 405.112C2019.2 402.138 2021.13 399.791 2023.57 398.073C2026.02 396.354 2028.81 395.495 2031.95 395.495C2034.08 395.495 2036.1 395.925 2038 396.784C2039.92 397.627 2041.6 398.849 2043.06 400.452C2044.53 402.055 2045.68 403.988 2046.5 406.252C2047.34 408.516 2047.77 411.061 2047.77 413.886V415.77H2017.63V413.019H2044.74C2044.74 410.259 2044.18 407.772 2043.06 405.558C2041.93 403.344 2040.4 401.584 2038.47 400.279C2036.54 398.973 2034.36 398.321 2031.95 398.321C2029.42 398.321 2027.17 399.031 2025.19 400.452C2023.22 401.857 2021.66 403.757 2020.5 406.153C2019.36 408.549 2018.77 411.226 2018.72 414.184V415.423C2018.72 418.596 2019.27 421.446 2020.38 423.974C2021.5 426.486 2023.1 428.477 2025.19 429.948C2027.27 431.402 2029.76 432.129 2032.67 432.129C2034.75 432.129 2036.53 431.782 2038 431.088C2039.49 430.377 2040.7 429.518 2041.64 428.51C2042.59 427.502 2043.3 426.527 2043.78 425.585L2046.53 426.701C2045.95 427.973 2045.05 429.246 2043.82 430.518C2042.62 431.774 2041.08 432.823 2039.21 433.666C2037.36 434.509 2035.18 434.93 2032.67 434.93ZM2083.07 404.269L2080.26 405.013C2079.82 403.625 2079.18 402.427 2078.36 401.419C2077.53 400.411 2076.49 399.634 2075.23 399.089C2073.99 398.527 2072.51 398.246 2070.77 398.246C2067.98 398.246 2065.69 398.94 2063.91 400.328C2062.14 401.716 2061.25 403.526 2061.25 405.757C2061.25 407.574 2061.86 409.078 2063.06 410.268C2064.27 411.441 2066.11 412.333 2068.59 412.945L2074.44 414.407C2077.45 415.15 2079.71 416.357 2081.23 418.026C2082.75 419.678 2083.51 421.735 2083.51 424.197C2083.51 426.296 2082.94 428.155 2081.8 429.774C2080.66 431.394 2079.08 432.658 2077.07 433.567C2075.07 434.475 2072.74 434.93 2070.08 434.93C2066.52 434.93 2063.61 434.104 2061.33 432.451C2059.05 430.782 2057.58 428.395 2056.94 425.288L2059.84 424.544C2060.39 427.023 2061.52 428.915 2063.24 430.22C2064.97 431.509 2067.24 432.154 2070.05 432.154C2073.16 432.154 2075.66 431.418 2077.56 429.948C2079.48 428.477 2080.44 426.593 2080.44 424.297C2080.44 422.545 2079.88 421.066 2078.75 419.86C2077.63 418.654 2075.93 417.77 2073.65 417.208L2067.57 415.721C2064.47 414.96 2062.14 413.746 2060.58 412.077C2059.03 410.392 2058.25 408.318 2058.25 405.856C2058.25 403.807 2058.79 402.006 2059.87 400.452C2060.94 398.899 2062.42 397.684 2064.3 396.809C2066.19 395.933 2068.34 395.495 2070.77 395.495C2073.99 395.495 2076.62 396.255 2078.65 397.775C2080.69 399.296 2082.16 401.46 2083.07 404.269Z" fill="black"/>
<path fill-rule="evenodd" clip-rule="evenodd" d="M457.37 258.017C457.37 384.317 354.984 486.702 228.685 486.702C102.386 486.702 0 384.317 0 258.017C0 131.718 102.386 29.332 228.685 29.332C354.984 29.332 457.37 131.718 457.37 258.017ZM25.1553 258.017C25.1553 370.423 116.279 461.547 228.685 461.547C341.091 461.547 432.215 370.423 432.215 258.017C432.215 145.611 341.091 54.4874 228.685 54.4874C116.279 54.4874 25.1553 145.611 25.1553 258.017ZM229.353 71.6388L280.697 101.284V160.572L228.692 189.869V207.706H229.192C239.58 207.706 249.241 210.822 257.288 216.173L338.443 263.055L364.099 277.838L389.786 292.7V351.989L338.443 381.634L287.096 351.989L287.686 292.402L273.164 284.016C267.526 293.72 258.771 301.389 248.266 305.644L144.007 365.838L143.957 365.755L118.216 380.617L66.8725 350.972V291.684L118.216 262.041L169.563 292.402L184.627 283.703C180.386 276.282 177.964 267.686 177.964 258.526V258.319H177.874V131.272H178.006V101.284L229.353 71.6388ZM210.39 258.017L228.685 276.312L246.98 258.017L228.685 239.722L210.39 258.017Z" fill="black"/>
</svg>
