<svg width="500" height="500" viewBox="0 0 500 500" fill="none" xmlns="http://www.w3.org/2000/svg">
<path fill-rule="evenodd" clip-rule="evenodd" d="M500 250C500 388.072 388.07 500 250 500C111.93 500 0 388.072 0 250C0 111.93 111.93 0 250 0C388.07 0 500 111.93 500 250ZM27.5 250C27.5 372.883 127.117 472.5 250 472.5C372.883 472.5 472.5 372.883 472.5 250C472.5 127.117 372.883 27.5 250 27.5C127.117 27.5 27.5 127.117 27.5 250ZM250.73 46.25L306.859 78.658V143.473L250.008 175.5V195H250.555C261.91 195 272.473 198.406 281.27 204.256L369.988 255.508L398.035 271.668L426.117 287.916V352.73L369.988 385.138L313.855 352.73L314.5 287.59L298.625 278.422C292.461 289.031 282.891 297.414 271.406 302.066L157.43 367.871L157.375 367.78L129.234 384.027L73.1055 351.619V286.805L129.234 254.398L185.367 287.59L201.836 278.08C197.199 269.967 194.551 260.571 194.551 250.557V250.33H194.453V111.441H194.598V78.658L250.73 46.25ZM230 250L250 270L270 250L250 230L230 250Z" fill="white"/>
</svg>
