<svg width="1449" height="232" viewBox="0 0 1449 232" fill="none" xmlns="http://www.w3.org/2000/svg">
<path d="M1420.81 84.0582V73.4644H1426.05C1426.64 73.4644 1427.2 73.5984 1427.74 73.8663C1428.28 74.1247 1428.72 74.5123 1429.06 75.0291C1429.4 75.5458 1429.58 76.1822 1429.58 76.9382C1429.58 77.6943 1429.4 78.3402 1429.05 78.8761C1428.69 79.4025 1428.23 79.8044 1427.67 80.0819C1427.11 80.3594 1426.53 80.4982 1425.92 80.4982H1422.26V78.589H1425.28C1425.66 78.589 1426 78.4503 1426.32 78.1727C1426.63 77.8952 1426.79 77.4837 1426.79 76.9382C1426.79 76.3641 1426.63 75.9621 1426.32 75.7325C1426 75.5028 1425.67 75.3879 1425.33 75.3879H1423.42V84.0582H1420.81ZM1427.45 79.1345L1429.95 84.0582H1427.08L1424.71 79.1345H1427.45ZM1424.93 90.3742C1423.34 90.3742 1421.85 90.0775 1420.46 89.4842C1419.07 88.8909 1417.85 88.0679 1416.8 87.0152C1415.75 85.9625 1414.93 84.7424 1414.33 83.3548C1413.74 81.9672 1413.44 80.4791 1413.44 78.8905C1413.44 77.3019 1413.74 75.8138 1414.33 74.4262C1414.93 73.0386 1415.75 71.8184 1416.8 70.7657C1417.85 69.7131 1419.07 68.8901 1420.46 68.2967C1421.85 67.7034 1423.34 67.4067 1424.93 67.4067C1426.51 67.4067 1428 67.7034 1429.39 68.2967C1430.78 68.8901 1432 69.7131 1433.05 70.7657C1434.1 71.8184 1434.93 73.0386 1435.52 74.4262C1436.11 75.8138 1436.41 77.3019 1436.41 78.8905C1436.41 80.4791 1436.11 81.9672 1435.52 83.3548C1434.93 84.7424 1434.1 85.9625 1433.05 87.0152C1432 88.0679 1430.78 88.8909 1429.39 89.4842C1428 90.0775 1426.51 90.3742 1424.93 90.3742ZM1424.93 87.4315C1426.5 87.4315 1427.93 87.0487 1429.22 86.2831C1430.51 85.5175 1431.54 84.4888 1432.3 83.1969C1433.08 81.8954 1433.47 80.4599 1433.47 78.8905C1433.47 77.321 1433.08 75.8904 1432.3 74.5984C1431.54 73.2969 1430.51 72.2634 1429.22 71.4978C1427.93 70.7322 1426.5 70.3494 1424.93 70.3494C1423.35 70.3494 1421.91 70.7322 1420.62 71.4978C1419.33 72.2634 1418.29 73.2969 1417.52 74.5984C1416.75 75.8904 1416.37 77.321 1416.37 78.8905C1416.37 80.4599 1416.75 81.8906 1417.52 83.1825C1418.29 84.4744 1419.33 85.508 1420.62 86.2831C1421.91 87.0487 1423.35 87.4315 1424.93 87.4315Z" fill="#104D84"/>
<path d="M161.84 76.3135C164.217 73.4617 167.148 72.0358 170.633 72.0358C173.802 72.0358 176.495 73.1448 178.713 75.3629C180.931 77.5809 182.04 80.2743 182.04 83.443C182.04 86.2948 181.248 88.5921 179.664 90.3349L179.426 90.5725L121.915 168.047C119.063 171.691 115.419 174.701 110.983 177.077C106.705 179.295 102.031 180.405 96.9615 180.405C92.2085 180.405 87.6931 179.375 83.4154 177.315C79.2961 175.255 75.8106 172.404 72.9588 168.76L15.2097 91.5231C14.259 90.4141 13.4669 89.2258 12.8331 87.9584C12.1994 86.5324 11.8825 85.0273 11.8825 83.443C11.8825 80.2743 12.9916 77.5809 15.2097 75.3629C17.4277 73.1448 20.1211 72.0358 23.2898 72.0358C27.0922 72.0358 30.1024 73.5409 32.3205 76.5511L87.6931 150.461C88.8022 151.728 90.1489 153.154 91.7332 154.738C93.476 156.164 95.2187 156.877 96.9615 156.877C98.7043 156.877 100.368 156.164 101.952 154.738C103.695 153.154 105.042 151.728 105.992 150.461L161.84 76.3135ZM205.902 83.443C205.902 80.2743 207.011 77.5809 209.229 75.3629C211.447 73.1448 214.141 72.0358 217.309 72.0358H385.804C388.972 72.0358 391.666 73.1448 393.884 75.3629C396.102 77.5809 397.211 80.2743 397.211 83.443C397.211 86.6117 396.102 89.305 393.884 91.5231C391.666 93.7412 388.972 94.8502 385.804 94.8502H217.309C214.141 94.8502 211.447 93.7412 209.229 91.5231C207.011 89.305 205.902 86.6117 205.902 83.443ZM234.896 175.651C231.41 175.651 227.924 174.939 224.439 173.513C220.953 171.928 217.864 169.789 215.17 167.096C212.477 164.403 210.259 161.155 208.516 157.352C206.774 153.55 205.902 149.272 205.902 144.519V123.131C205.902 118.853 207.09 116.001 209.467 114.575C212.002 113.149 215.883 112.436 221.112 112.436H380.575C383.744 112.436 386.438 113.545 388.656 115.763C390.874 117.982 391.983 120.675 391.983 123.844C391.983 127.012 390.874 129.706 388.656 131.924C386.438 134.142 383.744 135.251 380.575 135.251H228.717V146.896C228.717 148.48 229.35 149.906 230.618 151.173C232.044 152.282 233.866 152.837 236.084 152.837H385.804C388.972 152.837 391.666 153.946 393.884 156.164C396.102 158.382 397.211 161.076 397.211 164.244C397.211 167.413 396.102 170.106 393.884 172.324C391.666 174.542 388.972 175.651 385.804 175.651H234.896ZM582.881 83.443C582.881 80.2743 583.99 77.5809 586.208 75.3629C588.426 73.1448 591.12 72.0358 594.288 72.0358C597.457 72.0358 600.151 73.1448 602.369 75.3629C604.587 77.5809 605.696 80.2743 605.696 83.443V152.599C605.696 159.095 603.478 164.561 599.041 168.997C594.764 173.433 589.377 175.651 582.881 175.651C580.663 175.651 578.445 175.335 576.227 174.701C574.167 174.067 572.266 173.196 570.523 172.087L461.679 105.545C458.669 103.802 456.134 102.455 454.075 101.504C452.173 100.395 450.589 99.8409 449.321 99.8409C446.945 99.8409 445.44 101.346 444.806 104.356C444.172 107.367 443.856 111.723 443.856 117.427V164.244C443.856 167.413 442.746 170.106 440.528 172.324C438.31 174.542 435.617 175.651 432.448 175.651C429.28 175.651 426.586 174.542 424.368 172.324C422.15 170.106 421.041 167.413 421.041 164.244V95.0879C421.041 88.5921 423.18 83.1261 427.458 78.69C431.894 74.2538 437.36 72.0358 443.856 72.0358C446.074 72.0358 448.212 72.3526 450.272 72.9864C452.49 73.6201 454.471 74.4915 456.213 75.6005L565.057 142.143C568.068 143.886 570.523 145.311 572.425 146.42C574.484 147.371 576.148 147.846 577.415 147.846C579.792 147.846 581.297 146.341 581.931 143.331C582.564 140.321 582.881 135.964 582.881 130.26V83.443ZM804.361 72.0358C807.529 72.0358 810.223 73.1448 812.441 75.3629C814.659 77.5809 815.768 80.2743 815.768 83.443C815.768 86.6117 814.659 89.305 812.441 91.5231C810.223 93.7412 807.529 94.8502 804.361 94.8502H734.016V164.244C734.016 167.413 732.907 170.106 730.689 172.324C728.471 174.542 725.777 175.651 722.609 175.651C719.44 175.651 716.747 174.542 714.529 172.324C712.311 170.106 711.201 167.413 711.201 164.244V94.8502H639.906C637.054 94.5334 634.599 93.3451 632.539 91.2855C630.479 89.0674 629.45 86.4532 629.45 83.443C629.45 80.2743 630.559 77.5809 632.777 75.3629C634.995 73.1448 637.688 72.0358 640.857 72.0358H804.361ZM862.297 123.844C862.297 126.695 862.614 129.864 863.248 133.35C864.04 136.677 865.387 139.766 867.288 142.618C869.348 145.47 872.041 147.926 875.368 149.985C878.854 151.886 883.369 152.837 888.914 152.837H983.499C988.886 152.837 993.322 151.886 996.808 149.985C1000.29 147.926 1002.99 145.47 1004.89 142.618C1006.95 139.766 1008.29 136.677 1008.93 133.35C1009.72 129.864 1010.12 126.695 1010.12 123.844V83.6806C1010.12 80.512 1011.23 77.8186 1013.44 75.6005C1015.66 73.3824 1018.35 72.2734 1021.52 72.2734C1024.69 72.2734 1027.39 73.3824 1029.6 75.6005C1031.82 77.8186 1032.93 80.512 1032.93 83.6806V123.844C1032.93 129.864 1031.9 135.964 1029.84 142.143C1027.94 148.163 1025.09 153.708 1021.29 158.778C1017.48 163.69 1012.89 167.73 1007.5 170.898C1002.12 174.067 996.015 175.651 989.203 175.651H880.834C874.338 175.335 868.555 173.592 863.485 170.423C858.416 167.096 854.059 162.977 850.415 158.065C846.929 153.154 844.236 147.688 842.335 141.667C840.433 135.647 839.483 129.706 839.483 123.844V83.6806C839.483 80.512 840.592 77.8186 842.81 75.6005C845.028 73.3824 847.721 72.2734 850.89 72.2734C854.059 72.2734 856.752 73.3824 858.97 75.6005C861.188 77.8186 862.297 80.512 862.297 83.6806V123.844ZM1209.52 135.251C1213.8 137.944 1218.15 140.875 1222.59 144.044C1227.03 147.054 1231.54 150.381 1236.14 154.025C1237.88 155.293 1239.38 156.798 1240.65 158.541C1241.92 160.125 1242.55 162.026 1242.55 164.244C1242.55 167.413 1241.44 170.106 1239.23 172.324C1237.01 174.542 1234.31 175.651 1231.15 175.651C1228.45 175.651 1225.76 174.542 1223.07 172.324C1216.57 167.571 1209.92 162.977 1203.1 158.541C1196.29 154.104 1189.16 150.144 1181.71 146.658C1174.43 143.173 1166.82 140.4 1158.9 138.34C1150.98 136.281 1142.74 135.251 1134.18 135.251H1086.89C1084.83 135.568 1083.09 136.518 1081.66 138.103C1080.24 139.687 1079.52 141.667 1079.52 144.044V164.244C1079.52 167.413 1078.34 170.106 1075.96 172.324C1073.74 174.542 1071.13 175.651 1068.12 175.651C1064.95 175.651 1062.26 174.542 1060.04 172.324C1057.82 170.106 1056.71 167.413 1056.71 164.244V141.43C1056.71 137.469 1057.42 133.746 1058.85 130.26C1060.43 126.616 1062.49 123.527 1065.03 120.992C1067.56 118.298 1070.57 116.239 1074.06 114.813C1077.54 113.229 1081.35 112.436 1085.47 112.436H1211.42C1213.8 112.436 1215.86 111.644 1217.6 110.06C1219.5 108.317 1220.45 106.178 1220.45 103.643C1220.45 101.267 1219.5 99.2072 1217.6 97.4644C1215.86 95.7216 1213.8 94.8502 1211.42 94.8502H1068.12C1064.95 94.8502 1062.26 93.7412 1060.04 91.5231C1057.82 89.305 1056.71 86.6117 1056.71 83.443C1056.71 80.2743 1057.82 77.5809 1060.04 75.3629C1062.26 73.1448 1064.95 72.0358 1068.12 72.0358H1210.47C1214.91 72.0358 1219.03 72.9071 1222.83 74.6499C1226.79 76.2342 1230.2 78.4523 1233.05 81.3041C1236.06 84.1559 1238.35 87.4831 1239.94 91.2855C1241.68 95.0879 1242.55 99.2072 1242.55 103.643C1242.55 108.079 1241.68 112.199 1239.94 116.001C1238.35 119.804 1236.06 123.131 1233.05 125.982C1230.2 128.834 1226.79 131.132 1222.83 132.874C1219.03 134.459 1214.91 135.251 1210.47 135.251H1209.52ZM1286.48 171.374C1284.1 174.226 1281.17 175.651 1277.69 175.651C1274.52 175.651 1271.82 174.542 1269.61 172.324C1267.39 170.106 1266.28 167.413 1266.28 164.244C1266.28 161.392 1267.07 159.095 1268.66 157.352L1326.41 79.6406C1329.1 75.9966 1332.66 73.0656 1337.1 70.8475C1341.54 68.471 1346.29 67.2827 1351.36 67.2827C1356.11 67.2827 1360.63 68.3126 1364.9 70.3722C1369.18 72.4318 1372.67 75.2836 1375.36 78.9276L1433.11 156.164C1434.06 157.273 1434.85 158.541 1435.49 159.967C1436.12 161.234 1436.44 162.66 1436.44 164.244C1436.44 167.413 1435.33 170.106 1433.11 172.324C1430.89 174.542 1428.2 175.651 1425.03 175.651C1421.23 175.651 1418.22 174.146 1416 171.136L1360.63 97.2267C1359.52 95.9593 1358.09 94.6126 1356.35 93.1867C1354.76 91.6023 1353.1 90.8102 1351.36 90.8102C1349.62 90.8102 1347.87 91.6023 1346.13 93.1867C1344.55 94.6126 1343.28 95.9593 1342.33 97.2267L1286.48 171.374Z" fill="#104D84"/>
</svg>
