<svg width="1449" height="732" viewBox="0 0 1449 732" fill="none" xmlns="http://www.w3.org/2000/svg">
<path fill-rule="evenodd" clip-rule="evenodd" d="M974 250C974 388.072 862.07 500 724 500C585.93 500 474 388.072 474 250C474 111.93 585.93 0 724 0C862.07 0 974 111.93 974 250ZM501.5 250C501.5 372.883 601.117 472.5 724 472.5C846.883 472.5 946.5 372.883 946.5 250C946.5 127.117 846.883 27.5 724 27.5C601.117 27.5 501.5 127.117 501.5 250ZM724.73 46.25L780.859 78.658V143.473L724.008 175.5V195H724.555C735.91 195 746.473 198.406 755.27 204.256L843.988 255.508L872.035 271.668L900.117 287.916V352.73L843.988 385.138L787.855 352.73L788.5 287.59L772.625 278.422C766.461 289.031 756.891 297.414 745.406 302.066L631.43 367.871L631.375 367.78L603.234 384.027L547.105 351.619V286.805L603.234 254.398L659.367 287.59L675.836 278.08C671.199 269.967 668.551 260.571 668.551 250.557V250.33H668.453V111.441H668.598V78.658L724.73 46.25ZM704 250L724 270L744 250L724 230L704 250Z" fill="black"/>
<path d="M1420.81 584.058V573.464H1426.05C1426.64 573.464 1427.2 573.598 1427.74 573.866C1428.28 574.125 1428.72 574.512 1429.06 575.029C1429.4 575.546 1429.58 576.182 1429.58 576.938C1429.58 577.694 1429.4 578.34 1429.05 578.876C1428.69 579.402 1428.23 579.804 1427.67 580.082C1427.11 580.359 1426.53 580.498 1425.92 580.498H1422.26V578.589H1425.28C1425.66 578.589 1426 578.45 1426.32 578.173C1426.63 577.895 1426.79 577.484 1426.79 576.938C1426.79 576.364 1426.63 575.962 1426.32 575.732C1426 575.503 1425.67 575.388 1425.33 575.388H1423.42V584.058H1420.81ZM1427.45 579.135L1429.95 584.058H1427.08L1424.71 579.135H1427.45ZM1424.93 590.374C1423.34 590.374 1421.85 590.078 1420.46 589.484C1419.07 588.891 1417.85 588.068 1416.8 587.015C1415.75 585.963 1414.93 584.742 1414.33 583.355C1413.74 581.967 1413.44 580.479 1413.44 578.89C1413.44 577.302 1413.74 575.814 1414.33 574.426C1414.93 573.039 1415.75 571.818 1416.8 570.766C1417.85 569.713 1419.07 568.89 1420.46 568.297C1421.85 567.703 1423.34 567.407 1424.93 567.407C1426.51 567.407 1428 567.703 1429.39 568.297C1430.78 568.89 1432 569.713 1433.05 570.766C1434.1 571.818 1434.93 573.039 1435.52 574.426C1436.11 575.814 1436.41 577.302 1436.41 578.89C1436.41 580.479 1436.11 581.967 1435.52 583.355C1434.93 584.742 1434.1 585.963 1433.05 587.015C1432 588.068 1430.78 588.891 1429.39 589.484C1428 590.078 1426.51 590.374 1424.93 590.374ZM1424.93 587.432C1426.5 587.432 1427.93 587.049 1429.22 586.283C1430.51 585.518 1431.54 584.489 1432.3 583.197C1433.08 581.895 1433.47 580.46 1433.47 578.89C1433.47 577.321 1433.08 575.89 1432.3 574.598C1431.54 573.297 1430.51 572.263 1429.22 571.498C1427.93 570.732 1426.5 570.349 1424.93 570.349C1423.35 570.349 1421.91 570.732 1420.62 571.498C1419.33 572.263 1418.29 573.297 1417.52 574.598C1416.75 575.89 1416.37 577.321 1416.37 578.89C1416.37 580.46 1416.75 581.891 1417.52 583.183C1418.29 584.474 1419.33 585.508 1420.62 586.283C1421.91 587.049 1423.35 587.432 1424.93 587.432Z" fill="black"/>
<path d="M161.84 576.313C164.217 573.462 167.148 572.036 170.633 572.036C173.802 572.036 176.495 573.145 178.713 575.363C180.931 577.581 182.04 580.274 182.04 583.443C182.04 586.295 181.248 588.592 179.664 590.335L179.426 590.573L121.915 668.047C119.063 671.691 115.419 674.701 110.983 677.077C106.705 679.295 102.031 680.405 96.9615 680.405C92.2085 680.405 87.6931 679.375 83.4154 677.315C79.2961 675.255 75.8106 672.404 72.9588 668.76L15.2097 591.523C14.259 590.414 13.4669 589.226 12.8331 587.958C12.1994 586.532 11.8825 585.027 11.8825 583.443C11.8825 580.274 12.9916 577.581 15.2097 575.363C17.4277 573.145 20.1211 572.036 23.2898 572.036C27.0922 572.036 30.1024 573.541 32.3205 576.551L87.6931 650.461C88.8022 651.728 90.1489 653.154 91.7332 654.738C93.476 656.164 95.2187 656.877 96.9615 656.877C98.7043 656.877 100.368 656.164 101.952 654.738C103.695 653.154 105.042 651.728 105.992 650.461L161.84 576.313ZM205.902 583.443C205.902 580.274 207.011 577.581 209.229 575.363C211.447 573.145 214.141 572.036 217.309 572.036H385.804C388.972 572.036 391.666 573.145 393.884 575.363C396.102 577.581 397.211 580.274 397.211 583.443C397.211 586.612 396.102 589.305 393.884 591.523C391.666 593.741 388.972 594.85 385.804 594.85H217.309C214.141 594.85 211.447 593.741 209.229 591.523C207.011 589.305 205.902 586.612 205.902 583.443ZM234.896 675.651C231.41 675.651 227.924 674.939 224.439 673.513C220.953 671.928 217.864 669.789 215.17 667.096C212.477 664.403 210.259 661.155 208.516 657.352C206.774 653.55 205.902 649.272 205.902 644.519V623.131C205.902 618.853 207.09 616.001 209.467 614.575C212.002 613.149 215.883 612.436 221.112 612.436H380.575C383.744 612.436 386.438 613.545 388.656 615.763C390.874 617.982 391.983 620.675 391.983 623.844C391.983 627.012 390.874 629.706 388.656 631.924C386.438 634.142 383.744 635.251 380.575 635.251H228.717V646.896C228.717 648.48 229.35 649.906 230.618 651.173C232.044 652.282 233.866 652.837 236.084 652.837H385.804C388.972 652.837 391.666 653.946 393.884 656.164C396.102 658.382 397.211 661.076 397.211 664.244C397.211 667.413 396.102 670.106 393.884 672.324C391.666 674.542 388.972 675.651 385.804 675.651H234.896ZM582.881 583.443C582.881 580.274 583.99 577.581 586.208 575.363C588.426 573.145 591.12 572.036 594.288 572.036C597.457 572.036 600.151 573.145 602.369 575.363C604.587 577.581 605.696 580.274 605.696 583.443V652.599C605.696 659.095 603.478 664.561 599.041 668.997C594.764 673.433 589.377 675.651 582.881 675.651C580.663 675.651 578.445 675.335 576.227 674.701C574.167 674.067 572.266 673.196 570.523 672.087L461.679 605.545C458.669 603.802 456.134 602.455 454.075 601.504C452.173 600.395 450.589 599.841 449.321 599.841C446.945 599.841 445.44 601.346 444.806 604.356C444.172 607.367 443.856 611.723 443.856 617.427V664.244C443.856 667.413 442.746 670.106 440.528 672.324C438.31 674.542 435.617 675.651 432.448 675.651C429.28 675.651 426.586 674.542 424.368 672.324C422.15 670.106 421.041 667.413 421.041 664.244V595.088C421.041 588.592 423.18 583.126 427.458 578.69C431.894 574.254 437.36 572.036 443.856 572.036C446.074 572.036 448.212 572.353 450.272 572.986C452.49 573.62 454.471 574.491 456.213 575.601L565.057 642.143C568.068 643.886 570.523 645.311 572.425 646.42C574.484 647.371 576.148 647.846 577.415 647.846C579.792 647.846 581.297 646.341 581.931 643.331C582.564 640.321 582.881 635.964 582.881 630.26V583.443ZM804.361 572.036C807.529 572.036 810.223 573.145 812.441 575.363C814.659 577.581 815.768 580.274 815.768 583.443C815.768 586.612 814.659 589.305 812.441 591.523C810.223 593.741 807.529 594.85 804.361 594.85H734.016V664.244C734.016 667.413 732.907 670.106 730.689 672.324C728.471 674.542 725.777 675.651 722.609 675.651C719.44 675.651 716.747 674.542 714.529 672.324C712.311 670.106 711.201 667.413 711.201 664.244V594.85H639.906C637.054 594.533 634.599 593.345 632.539 591.285C630.479 589.067 629.45 586.453 629.45 583.443C629.45 580.274 630.559 577.581 632.777 575.363C634.995 573.145 637.688 572.036 640.857 572.036H804.361ZM862.297 623.844C862.297 626.695 862.614 629.864 863.248 633.35C864.04 636.677 865.387 639.766 867.288 642.618C869.348 645.47 872.041 647.926 875.368 649.985C878.854 651.886 883.369 652.837 888.914 652.837H983.499C988.886 652.837 993.322 651.886 996.808 649.985C1000.29 647.926 1002.99 645.47 1004.89 642.618C1006.95 639.766 1008.29 636.677 1008.93 633.35C1009.72 629.864 1010.12 626.695 1010.12 623.844V583.681C1010.12 580.512 1011.23 577.819 1013.44 575.601C1015.66 573.382 1018.35 572.273 1021.52 572.273C1024.69 572.273 1027.39 573.382 1029.6 575.601C1031.82 577.819 1032.93 580.512 1032.93 583.681V623.844C1032.93 629.864 1031.9 635.964 1029.84 642.143C1027.94 648.163 1025.09 653.708 1021.29 658.778C1017.48 663.69 1012.89 667.73 1007.5 670.898C1002.12 674.067 996.015 675.651 989.203 675.651H880.834C874.338 675.335 868.555 673.592 863.485 670.423C858.416 667.096 854.059 662.977 850.415 658.065C846.929 653.154 844.236 647.688 842.335 641.667C840.433 635.647 839.483 629.706 839.483 623.844V583.681C839.483 580.512 840.592 577.819 842.81 575.601C845.028 573.382 847.721 572.273 850.89 572.273C854.059 572.273 856.752 573.382 858.97 575.601C861.188 577.819 862.297 580.512 862.297 583.681V623.844ZM1209.52 635.251C1213.8 637.944 1218.15 640.875 1222.59 644.044C1227.03 647.054 1231.54 650.381 1236.14 654.025C1237.88 655.293 1239.38 656.798 1240.65 658.541C1241.92 660.125 1242.55 662.026 1242.55 664.244C1242.55 667.413 1241.44 670.106 1239.23 672.324C1237.01 674.542 1234.31 675.651 1231.15 675.651C1228.45 675.651 1225.76 674.542 1223.07 672.324C1216.57 667.571 1209.92 662.977 1203.1 658.541C1196.29 654.104 1189.16 650.144 1181.71 646.658C1174.43 643.173 1166.82 640.4 1158.9 638.34C1150.98 636.281 1142.74 635.251 1134.18 635.251H1086.89C1084.83 635.568 1083.09 636.518 1081.66 638.103C1080.24 639.687 1079.52 641.667 1079.52 644.044V664.244C1079.52 667.413 1078.34 670.106 1075.96 672.324C1073.74 674.542 1071.13 675.651 1068.12 675.651C1064.95 675.651 1062.26 674.542 1060.04 672.324C1057.82 670.106 1056.71 667.413 1056.71 664.244V641.43C1056.71 637.469 1057.42 633.746 1058.85 630.26C1060.43 626.616 1062.49 623.527 1065.03 620.992C1067.56 618.298 1070.57 616.239 1074.06 614.813C1077.54 613.229 1081.35 612.436 1085.47 612.436H1211.42C1213.8 612.436 1215.86 611.644 1217.6 610.06C1219.5 608.317 1220.45 606.178 1220.45 603.643C1220.45 601.267 1219.5 599.207 1217.6 597.464C1215.86 595.722 1213.8 594.85 1211.42 594.85H1068.12C1064.95 594.85 1062.26 593.741 1060.04 591.523C1057.82 589.305 1056.71 586.612 1056.71 583.443C1056.71 580.274 1057.82 577.581 1060.04 575.363C1062.26 573.145 1064.95 572.036 1068.12 572.036H1210.47C1214.91 572.036 1219.03 572.907 1222.83 574.65C1226.79 576.234 1230.2 578.452 1233.05 581.304C1236.06 584.156 1238.35 587.483 1239.94 591.285C1241.68 595.088 1242.55 599.207 1242.55 603.643C1242.55 608.079 1241.68 612.199 1239.94 616.001C1238.35 619.804 1236.06 623.131 1233.05 625.982C1230.2 628.834 1226.79 631.132 1222.83 632.874C1219.03 634.459 1214.91 635.251 1210.47 635.251H1209.52ZM1286.48 671.374C1284.1 674.226 1281.17 675.651 1277.69 675.651C1274.52 675.651 1271.82 674.542 1269.61 672.324C1267.39 670.106 1266.28 667.413 1266.28 664.244C1266.28 661.392 1267.07 659.095 1268.66 657.352L1326.41 579.641C1329.1 575.997 1332.66 573.066 1337.1 570.848C1341.54 568.471 1346.29 567.283 1351.36 567.283C1356.11 567.283 1360.63 568.313 1364.9 570.372C1369.18 572.432 1372.67 575.284 1375.36 578.928L1433.11 656.164C1434.06 657.273 1434.85 658.541 1435.49 659.967C1436.12 661.234 1436.44 662.66 1436.44 664.244C1436.44 667.413 1435.33 670.106 1433.11 672.324C1430.89 674.542 1428.2 675.651 1425.03 675.651C1421.23 675.651 1418.22 674.146 1416 671.136L1360.63 597.227C1359.52 595.959 1358.09 594.613 1356.35 593.187C1354.76 591.602 1353.1 590.81 1351.36 590.81C1349.62 590.81 1347.87 591.602 1346.13 593.187C1344.55 594.613 1343.28 595.959 1342.33 597.227L1286.48 671.374Z" fill="black"/>
</svg>
