<svg width="500" height="581" viewBox="0 0 500 581" fill="none" xmlns="http://www.w3.org/2000/svg">
<path d="M490.389 529.552V525.895H492.198C492.403 525.895 492.597 525.941 492.782 526.034C492.971 526.123 493.123 526.257 493.238 526.435C493.357 526.614 493.417 526.833 493.417 527.094C493.417 527.355 493.356 527.578 493.233 527.763C493.111 527.945 492.953 528.083 492.758 528.179C492.566 528.275 492.365 528.323 492.153 528.323H490.89V527.664H491.935C492.064 527.664 492.183 527.616 492.292 527.52C492.401 527.424 492.455 527.282 492.455 527.094C492.455 526.896 492.401 526.757 492.292 526.678C492.183 526.599 492.069 526.559 491.95 526.559H491.291V529.552H490.389ZM492.683 527.852L493.545 529.552H492.555L491.737 527.852H492.683ZM491.811 531.732C491.263 531.732 490.749 531.629 490.271 531.424C489.792 531.22 489.37 530.935 489.007 530.572C488.644 530.209 488.36 529.788 488.155 529.309C487.95 528.83 487.848 528.316 487.848 527.768C487.848 527.22 487.95 526.706 488.155 526.227C488.36 525.748 488.644 525.327 489.007 524.964C489.37 524.6 489.792 524.316 490.271 524.111C490.749 523.907 491.263 523.804 491.811 523.804C492.36 523.804 492.873 523.907 493.352 524.111C493.831 524.316 494.252 524.6 494.616 524.964C494.979 525.327 495.263 525.748 495.468 526.227C495.673 526.706 495.775 527.22 495.775 527.768C495.775 528.316 495.673 528.83 495.468 529.309C495.263 529.788 494.979 530.209 494.616 530.572C494.252 530.935 493.831 531.22 493.352 531.424C492.873 531.629 492.36 531.732 491.811 531.732ZM491.811 530.716C492.353 530.716 492.847 530.584 493.293 530.319C493.739 530.055 494.094 529.7 494.358 529.254C494.626 528.805 494.759 528.31 494.759 527.768C494.759 527.226 494.626 526.732 494.358 526.287C494.094 525.837 493.739 525.481 493.293 525.216C492.847 524.952 492.353 524.82 491.811 524.82C491.266 524.82 490.771 524.952 490.325 525.216C489.879 525.481 489.522 525.837 489.255 526.287C488.991 526.732 488.859 527.226 488.859 527.768C488.859 528.31 488.991 528.803 489.255 529.249C489.522 529.695 489.879 530.052 490.325 530.319C490.771 530.584 491.266 530.716 491.811 530.716Z" fill="white"/>
<path d="M55.859 526.726C56.6792 525.741 57.6909 525.249 58.8939 525.249C59.9876 525.249 60.9172 525.632 61.6827 526.398C62.4483 527.163 62.8311 528.093 62.8311 529.187C62.8311 530.171 62.5577 530.964 62.0108 531.565L61.9288 531.647L42.0788 558.387C41.0945 559.645 39.8368 560.684 38.3056 561.504C36.8292 562.27 35.216 562.653 33.4662 562.653C31.8257 562.653 30.2672 562.297 28.7907 561.586C27.369 560.875 26.1659 559.891 25.1816 558.633L5.24959 531.975C4.92149 531.593 4.64808 531.182 4.42935 530.745C4.21061 530.253 4.10125 529.733 4.10125 529.187C4.10125 528.093 4.48403 527.163 5.24959 526.398C6.01516 525.632 6.94478 525.249 8.03844 525.249C9.35084 525.249 10.3898 525.769 11.1554 526.808L30.2672 552.318C30.65 552.755 31.1148 553.247 31.6616 553.794C32.2631 554.286 32.8646 554.532 33.4662 554.532C34.0677 554.532 34.6419 554.286 35.1887 553.794C35.7902 553.247 36.255 552.755 36.5831 552.318L55.859 526.726ZM71.0669 529.187C71.0669 528.093 71.4497 527.163 72.2152 526.398C72.9808 525.632 73.9104 525.249 75.0041 525.249H133.16C134.253 525.249 135.183 525.632 135.949 526.398C136.714 527.163 137.097 528.093 137.097 529.187C137.097 530.28 136.714 531.21 135.949 531.975C135.183 532.741 134.253 533.124 133.16 533.124H75.0041C73.9104 533.124 72.9808 532.741 72.2152 531.975C71.4497 531.21 71.0669 530.28 71.0669 529.187ZM81.0739 561.012C79.8709 561.012 78.6679 560.766 77.4648 560.274C76.2618 559.727 75.1955 558.989 74.2659 558.059C73.3363 557.13 72.5707 556.009 71.9692 554.696C71.3677 553.384 71.0669 551.907 71.0669 550.267V542.885C71.0669 541.408 71.477 540.424 72.2973 539.932C73.1722 539.44 74.5119 539.194 76.3165 539.194H131.355C132.449 539.194 133.378 539.576 134.144 540.342C134.91 541.107 135.292 542.037 135.292 543.131C135.292 544.224 134.91 545.154 134.144 545.92C133.378 546.685 132.449 547.068 131.355 547.068H78.9413V551.087C78.9413 551.634 79.16 552.126 79.5975 552.564C80.0896 552.946 80.7185 553.138 81.4841 553.138H133.16C134.253 553.138 135.183 553.521 135.949 554.286C136.714 555.052 137.097 555.981 137.097 557.075C137.097 558.169 136.714 559.098 135.949 559.864C135.183 560.629 134.253 561.012 133.16 561.012H81.0739ZM201.181 529.187C201.181 528.093 201.564 527.163 202.329 526.398C203.095 525.632 204.024 525.249 205.118 525.249C206.212 525.249 207.141 525.632 207.907 526.398C208.672 527.163 209.055 528.093 209.055 529.187V553.056C209.055 555.298 208.29 557.184 206.759 558.715C205.282 560.247 203.423 561.012 201.181 561.012C200.415 561.012 199.65 560.903 198.884 560.684C198.173 560.465 197.517 560.165 196.916 559.782L159.348 536.815C158.309 536.213 157.434 535.749 156.723 535.42C156.067 535.038 155.52 534.846 155.083 534.846C154.263 534.846 153.743 535.366 153.524 536.405C153.306 537.444 153.196 538.947 153.196 540.916V557.075C153.196 558.169 152.813 559.098 152.048 559.864C151.282 560.629 150.353 561.012 149.259 561.012C148.165 561.012 147.236 560.629 146.47 559.864C145.705 559.098 145.322 558.169 145.322 557.075V533.206C145.322 530.964 146.06 529.077 147.537 527.546C149.068 526.015 150.954 525.249 153.196 525.249C153.962 525.249 154.7 525.359 155.411 525.577C156.177 525.796 156.86 526.097 157.462 526.48L195.029 549.447C196.068 550.048 196.916 550.54 197.572 550.923C198.283 551.251 198.857 551.415 199.294 551.415C200.115 551.415 200.634 550.896 200.853 549.857C201.071 548.818 201.181 547.314 201.181 545.345V529.187ZM277.624 525.249C278.718 525.249 279.647 525.632 280.413 526.398C281.179 527.163 281.561 528.093 281.561 529.187C281.561 530.28 281.179 531.21 280.413 531.975C279.647 532.741 278.718 533.124 277.624 533.124H253.345V557.075C253.345 558.169 252.962 559.098 252.196 559.864C251.431 560.629 250.501 561.012 249.408 561.012C248.314 561.012 247.384 560.629 246.619 559.864C245.853 559.098 245.47 558.169 245.47 557.075V533.124H220.863C219.879 533.014 219.031 532.604 218.32 531.893C217.609 531.128 217.254 530.225 217.254 529.187C217.254 528.093 217.637 527.163 218.402 526.398C219.168 525.632 220.097 525.249 221.191 525.249H277.624ZM297.621 543.131C297.621 544.115 297.73 545.209 297.949 546.412C298.223 547.56 298.687 548.626 299.344 549.611C300.054 550.595 300.984 551.443 302.132 552.153C303.335 552.81 304.894 553.138 306.808 553.138H339.454C341.313 553.138 342.844 552.81 344.047 552.153C345.25 551.443 346.18 550.595 346.836 549.611C347.547 548.626 348.012 547.56 348.23 546.412C348.504 545.209 348.64 544.115 348.64 543.131V529.269C348.64 528.175 349.023 527.245 349.789 526.48C350.554 525.714 351.484 525.331 352.578 525.331C353.671 525.331 354.601 525.714 355.367 526.48C356.132 527.245 356.515 528.175 356.515 529.269V543.131C356.515 545.209 356.159 547.314 355.449 549.447C354.792 551.525 353.808 553.439 352.496 555.188C351.183 556.884 349.597 558.278 347.738 559.372C345.879 560.465 343.774 561.012 341.422 561.012H304.019C301.777 560.903 299.781 560.301 298.031 559.208C296.281 558.059 294.777 556.638 293.52 554.942C292.317 553.247 291.387 551.361 290.731 549.283C290.075 547.205 289.747 545.154 289.747 543.131V529.269C289.747 528.175 290.129 527.245 290.895 526.48C291.661 525.714 292.59 525.331 293.684 525.331C294.777 525.331 295.707 525.714 296.473 526.48C297.238 527.245 297.621 528.175 297.621 529.269V543.131ZM417.465 547.068C418.941 547.998 420.445 549.009 421.976 550.103C423.507 551.142 425.065 552.29 426.651 553.548C427.253 553.985 427.772 554.505 428.21 555.106C428.647 555.653 428.866 556.309 428.866 557.075C428.866 558.169 428.483 559.098 427.718 559.864C426.952 560.629 426.022 561.012 424.929 561.012C423.999 561.012 423.07 560.629 422.14 559.864C419.898 558.223 417.601 556.638 415.25 555.106C412.898 553.575 410.438 552.208 407.868 551.005C405.352 549.802 402.727 548.845 399.993 548.134C397.259 547.423 394.416 547.068 391.463 547.068H375.14C374.429 547.177 373.827 547.505 373.335 548.052C372.843 548.599 372.597 549.283 372.597 550.103V557.075C372.597 558.169 372.187 559.098 371.367 559.864C370.601 560.629 369.699 561.012 368.66 561.012C367.566 561.012 366.636 560.629 365.871 559.864C365.105 559.098 364.722 558.169 364.722 557.075V549.201C364.722 547.834 364.969 546.548 365.461 545.345C366.008 544.088 366.718 543.021 367.593 542.146C368.468 541.217 369.507 540.506 370.71 540.014C371.913 539.467 373.226 539.194 374.648 539.194H418.121C418.941 539.194 419.652 538.92 420.253 538.373C420.91 537.772 421.238 537.034 421.238 536.159C421.238 535.338 420.91 534.628 420.253 534.026C419.652 533.424 418.941 533.124 418.121 533.124H368.66C367.566 533.124 366.636 532.741 365.871 531.975C365.105 531.21 364.722 530.28 364.722 529.187C364.722 528.093 365.105 527.163 365.871 526.398C366.636 525.632 367.566 525.249 368.66 525.249H417.793C419.324 525.249 420.746 525.55 422.058 526.152C423.425 526.698 424.601 527.464 425.585 528.448C426.624 529.433 427.417 530.581 427.964 531.893C428.565 533.206 428.866 534.628 428.866 536.159C428.866 537.69 428.565 539.112 427.964 540.424C427.417 541.736 426.624 542.885 425.585 543.869C424.601 544.853 423.425 545.646 422.058 546.248C420.746 546.795 419.324 547.068 417.793 547.068H417.465ZM444.027 559.536C443.207 560.52 442.195 561.012 440.992 561.012C439.899 561.012 438.969 560.629 438.203 559.864C437.438 559.098 437.055 558.169 437.055 557.075C437.055 556.091 437.328 555.298 437.875 554.696L457.807 527.874C458.737 526.616 459.967 525.605 461.498 524.839C463.03 524.019 464.67 523.609 466.42 523.609C468.06 523.609 469.619 523.964 471.095 524.675C472.572 525.386 473.775 526.37 474.704 527.628L494.636 554.286C494.965 554.669 495.238 555.106 495.457 555.599C495.675 556.036 495.785 556.528 495.785 557.075C495.785 558.169 495.402 559.098 494.636 559.864C493.871 560.629 492.941 561.012 491.848 561.012C490.535 561.012 489.496 560.493 488.731 559.454L469.619 533.944C469.236 533.506 468.744 533.042 468.142 532.55C467.596 532.003 467.021 531.729 466.42 531.729C465.818 531.729 465.217 532.003 464.615 532.55C464.069 533.042 463.631 533.506 463.303 533.944L444.027 559.536Z" fill="white"/>
<path fill-rule="evenodd" clip-rule="evenodd" d="M500 250C500 388.072 388.07 500 250 500C111.93 500 0 388.072 0 250C0 111.93 111.93 0 250 0C388.07 0 500 111.93 500 250ZM27.5 250C27.5 372.883 127.117 472.5 250 472.5C372.883 472.5 472.5 372.883 472.5 250C472.5 127.117 372.883 27.5 250 27.5C127.117 27.5 27.5 127.117 27.5 250ZM250.73 46.25L306.859 78.658V143.473L250.008 175.5V195H250.555C261.91 195 272.473 198.406 281.27 204.256L369.988 255.508L398.035 271.668L426.117 287.916V352.73L369.988 385.138L313.855 352.73L314.5 287.59L298.625 278.422C292.461 289.031 282.891 297.414 271.406 302.066L157.43 367.871L157.375 367.78L129.234 384.027L73.1055 351.619V286.805L129.234 254.398L185.367 287.59L201.836 278.08C197.199 269.967 194.551 260.571 194.551 250.557V250.33H194.453V111.441H194.598V78.658L250.73 46.25ZM230 250L250 270L270 250L250 230L230 250Z" fill="white"/>
</svg>
