<svg width="1449" height="865" viewBox="0 0 1449 865" fill="none" xmlns="http://www.w3.org/2000/svg">
<path fill-rule="evenodd" clip-rule="evenodd" d="M974 250C974 388.072 862.07 500 724 500C585.93 500 474 388.072 474 250C474 111.93 585.93 0 724 0C862.07 0 974 111.93 974 250ZM501.5 250C501.5 372.883 601.117 472.5 724 472.5C846.883 472.5 946.5 372.883 946.5 250C946.5 127.117 846.883 27.5 724 27.5C601.117 27.5 501.5 127.117 501.5 250ZM724.73 46.25L780.859 78.658V143.473L724.008 175.5V195H724.555C735.91 195 746.473 198.406 755.27 204.256L843.988 255.508L872.035 271.668L900.117 287.916V352.73L843.988 385.138L787.855 352.73L788.5 287.59L772.625 278.422C766.461 289.031 756.891 297.414 745.406 302.066L631.43 367.871L631.375 367.78L603.234 384.027L547.105 351.619V286.805L603.234 254.398L659.367 287.59L675.836 278.08C671.199 269.967 668.551 260.571 668.551 250.557V250.33H668.453V111.441H668.598V78.658L724.73 46.25ZM704 250L724 270L744 250L724 230L704 250Z" fill="white"/>
<path d="M1420.81 584.058V573.464H1426.05C1426.64 573.464 1427.2 573.598 1427.74 573.866C1428.28 574.125 1428.72 574.512 1429.06 575.029C1429.4 575.546 1429.58 576.182 1429.58 576.938C1429.58 577.694 1429.4 578.34 1429.05 578.876C1428.69 579.402 1428.23 579.804 1427.67 580.082C1427.11 580.359 1426.53 580.498 1425.92 580.498H1422.26V578.589H1425.28C1425.66 578.589 1426 578.45 1426.32 578.173C1426.63 577.895 1426.79 577.484 1426.79 576.938C1426.79 576.364 1426.63 575.962 1426.32 575.732C1426 575.503 1425.67 575.388 1425.33 575.388H1423.42V584.058H1420.81ZM1427.45 579.135L1429.95 584.058H1427.08L1424.71 579.135H1427.45ZM1424.93 590.374C1423.34 590.374 1421.85 590.078 1420.46 589.484C1419.07 588.891 1417.85 588.068 1416.8 587.015C1415.75 585.963 1414.93 584.742 1414.33 583.355C1413.74 581.967 1413.44 580.479 1413.44 578.891C1413.44 577.302 1413.74 575.814 1414.33 574.426C1414.93 573.039 1415.75 571.818 1416.8 570.766C1417.85 569.713 1419.07 568.89 1420.46 568.297C1421.85 567.703 1423.34 567.407 1424.93 567.407C1426.51 567.407 1428 567.703 1429.39 568.297C1430.78 568.89 1432 569.713 1433.05 570.766C1434.1 571.818 1434.93 573.039 1435.52 574.426C1436.11 575.814 1436.41 577.302 1436.41 578.891C1436.41 580.479 1436.11 581.967 1435.52 583.355C1434.93 584.742 1434.1 585.963 1433.05 587.015C1432 588.068 1430.78 588.891 1429.39 589.484C1428 590.078 1426.51 590.374 1424.93 590.374ZM1424.93 587.432C1426.5 587.432 1427.93 587.049 1429.22 586.283C1430.51 585.518 1431.54 584.489 1432.3 583.197C1433.08 581.895 1433.47 580.46 1433.47 578.891C1433.47 577.321 1433.08 575.89 1432.3 574.598C1431.54 573.297 1430.51 572.263 1429.22 571.498C1427.93 570.732 1426.5 570.349 1424.93 570.349C1423.35 570.349 1421.91 570.732 1420.62 571.498C1419.33 572.263 1418.29 573.297 1417.52 574.598C1416.75 575.89 1416.37 577.321 1416.37 578.891C1416.37 580.46 1416.75 581.891 1417.52 583.183C1418.29 584.474 1419.33 585.508 1420.62 586.283C1421.91 587.049 1423.35 587.432 1424.93 587.432Z" fill="white"/>
<path d="M161.84 576.314C164.216 573.462 167.147 572.036 170.633 572.036C173.802 572.036 176.495 573.145 178.713 575.363C180.931 577.581 182.04 580.274 182.04 583.443C182.04 586.295 181.248 588.592 179.664 590.335L179.426 590.573L121.915 668.047C119.063 671.691 115.419 674.701 110.983 677.077C106.705 679.295 102.031 680.405 96.9614 680.405C92.2084 680.405 87.693 679.375 83.4153 677.315C79.296 675.255 75.8105 672.404 72.9587 668.76L15.2096 591.523C14.259 590.414 13.4669 589.226 12.8331 587.959C12.1994 586.533 11.8825 585.027 11.8825 583.443C11.8825 580.274 12.9916 577.581 15.2096 575.363C17.4277 573.145 20.1211 572.036 23.2897 572.036C27.0921 572.036 30.1024 573.541 32.3205 576.551L87.693 650.461C88.802 651.728 90.1487 653.154 91.7331 654.738C93.4758 656.164 95.2186 656.877 96.9614 656.877C98.7041 656.877 100.368 656.164 101.952 654.738C103.695 653.154 105.041 651.728 105.992 650.461L161.84 576.314ZM205.902 583.443C205.902 580.274 207.011 577.581 209.229 575.363C211.447 573.145 214.14 572.036 217.309 572.036H385.803C388.972 572.036 391.665 573.145 393.883 575.363C396.101 577.581 397.21 580.274 397.21 583.443C397.21 586.612 396.101 589.305 393.883 591.523C391.665 593.741 388.972 594.85 385.803 594.85H217.309C214.14 594.85 211.447 593.741 209.229 591.523C207.011 589.305 205.902 586.612 205.902 583.443ZM234.895 675.652C231.41 675.652 227.924 674.939 224.439 673.513C220.953 671.928 217.864 669.789 215.17 667.096C212.477 664.403 210.259 661.155 208.516 657.352C206.773 653.55 205.902 649.272 205.902 644.519V623.131C205.902 618.853 207.09 616.001 209.467 614.575C212.001 613.149 215.883 612.437 221.111 612.437H380.575C383.744 612.437 386.437 613.546 388.655 615.764C390.873 617.982 391.982 620.675 391.982 623.844C391.982 627.012 390.873 629.706 388.655 631.924C386.437 634.142 383.744 635.251 380.575 635.251H228.716V646.896C228.716 648.48 229.35 649.906 230.617 651.174C232.043 652.283 233.865 652.837 236.083 652.837H385.803C388.972 652.837 391.665 653.946 393.883 656.164C396.101 658.382 397.21 661.076 397.21 664.244C397.21 667.413 396.101 670.106 393.883 672.324C391.665 674.542 388.972 675.652 385.803 675.652H234.895ZM582.88 583.443C582.88 580.274 583.989 577.581 586.207 575.363C588.426 573.145 591.119 572.036 594.288 572.036C597.456 572.036 600.15 573.145 602.368 575.363C604.586 577.581 605.695 580.274 605.695 583.443V652.599C605.695 659.095 603.477 664.561 599.041 668.997C594.763 673.433 589.376 675.652 582.88 675.652C580.662 675.652 578.444 675.335 576.226 674.701C574.166 674.067 572.265 673.196 570.522 672.087L461.679 605.545C458.668 603.802 456.133 602.455 454.074 601.505C452.173 600.396 450.588 599.841 449.321 599.841C446.944 599.841 445.439 601.346 444.805 604.356C444.172 607.367 443.855 611.724 443.855 617.427V664.244C443.855 667.413 442.746 670.106 440.528 672.324C438.31 674.542 435.616 675.652 432.448 675.652C429.279 675.652 426.586 674.542 424.367 672.324C422.149 670.106 421.04 667.413 421.04 664.244V595.088C421.04 588.592 423.179 583.126 427.457 578.69C431.893 574.254 437.359 572.036 443.855 572.036C446.073 572.036 448.212 572.353 450.271 572.987C452.489 573.62 454.47 574.492 456.213 575.601L565.057 642.143C568.067 643.886 570.522 645.311 572.424 646.421C574.483 647.371 576.147 647.846 577.414 647.846C579.791 647.846 581.296 646.341 581.93 643.331C582.563 640.321 582.88 635.964 582.88 630.26V583.443ZM804.359 572.036C807.528 572.036 810.221 573.145 812.44 575.363C814.658 577.581 815.767 580.274 815.767 583.443C815.767 586.612 814.658 589.305 812.44 591.523C810.221 593.741 807.528 594.85 804.359 594.85H734.015V664.244C734.015 667.413 732.906 670.106 730.688 672.324C728.47 674.542 725.776 675.652 722.608 675.652C719.439 675.652 716.746 674.542 714.528 672.324C712.309 670.106 711.2 667.413 711.2 664.244V594.85H639.905C637.053 594.534 634.598 593.345 632.538 591.286C630.479 589.068 629.449 586.453 629.449 583.443C629.449 580.274 630.558 577.581 632.776 575.363C634.994 573.145 637.687 572.036 640.856 572.036H804.359ZM862.296 623.844C862.296 626.696 862.613 629.864 863.247 633.35C864.039 636.677 865.385 639.766 867.287 642.618C869.346 645.47 872.04 647.926 875.367 649.985C878.852 651.886 883.368 652.837 888.913 652.837H983.498C988.884 652.837 993.321 651.886 996.806 649.985C1000.29 647.926 1002.99 645.47 1004.89 642.618C1006.95 639.766 1008.29 636.677 1008.93 633.35C1009.72 629.864 1010.11 626.696 1010.11 623.844V583.681C1010.11 580.512 1011.22 577.819 1013.44 575.601C1015.66 573.383 1018.35 572.274 1021.52 572.274C1024.69 572.274 1027.38 573.383 1029.6 575.601C1031.82 577.819 1032.93 580.512 1032.93 583.681V623.844C1032.93 629.864 1031.9 635.964 1029.84 642.143C1027.94 648.163 1025.09 653.708 1021.28 658.778C1017.48 663.69 1012.89 667.73 1007.5 670.899C1002.11 674.067 996.014 675.652 989.201 675.652H880.833C874.337 675.335 868.554 673.592 863.484 670.423C858.414 667.096 854.057 662.977 850.413 658.065C846.928 653.154 844.235 647.688 842.333 641.668C840.432 635.647 839.482 629.706 839.482 623.844V583.681C839.482 580.512 840.591 577.819 842.809 575.601C845.027 573.383 847.72 572.274 850.889 572.274C854.057 572.274 856.751 573.383 858.969 575.601C861.187 577.819 862.296 580.512 862.296 583.681V623.844ZM1209.52 635.251C1213.8 637.944 1218.15 640.875 1222.59 644.044C1227.02 647.054 1231.54 650.381 1236.13 654.025C1237.88 655.293 1239.38 656.798 1240.65 658.541C1241.92 660.125 1242.55 662.026 1242.55 664.244C1242.55 667.413 1241.44 670.106 1239.22 672.324C1237.01 674.542 1234.31 675.652 1231.14 675.652C1228.45 675.652 1225.76 674.542 1223.06 672.324C1216.57 667.571 1209.91 662.977 1203.1 658.541C1196.29 654.105 1189.16 650.144 1181.71 646.658C1174.42 643.173 1166.82 640.4 1158.9 638.34C1150.98 636.281 1142.74 635.251 1134.18 635.251H1086.89C1084.83 635.568 1083.09 636.518 1081.66 638.103C1080.24 639.687 1079.52 641.668 1079.52 644.044V664.244C1079.52 667.413 1078.34 670.106 1075.96 672.324C1073.74 674.542 1071.13 675.652 1068.12 675.652C1064.95 675.652 1062.25 674.542 1060.04 672.324C1057.82 670.106 1056.71 667.413 1056.71 664.244V641.43C1056.71 637.469 1057.42 633.746 1058.85 630.26C1060.43 626.616 1062.49 623.527 1065.03 620.992C1067.56 618.299 1070.57 616.239 1074.06 614.813C1077.54 613.229 1081.35 612.437 1085.46 612.437H1211.42C1213.8 612.437 1215.86 611.644 1217.6 610.06C1219.5 608.317 1220.45 606.178 1220.45 603.643C1220.45 601.267 1219.5 599.207 1217.6 597.465C1215.86 595.722 1213.8 594.85 1211.42 594.85H1068.12C1064.95 594.85 1062.25 593.741 1060.04 591.523C1057.82 589.305 1056.71 586.612 1056.71 583.443C1056.71 580.274 1057.82 577.581 1060.04 575.363C1062.25 573.145 1064.95 572.036 1068.12 572.036H1210.47C1214.9 572.036 1219.02 572.907 1222.83 574.65C1226.79 576.234 1230.19 578.452 1233.05 581.304C1236.06 584.156 1238.35 587.483 1239.94 591.286C1241.68 595.088 1242.55 599.207 1242.55 603.643C1242.55 608.08 1241.68 612.199 1239.94 616.001C1238.35 619.804 1236.06 623.131 1233.05 625.983C1230.19 628.834 1226.79 631.132 1222.83 632.874C1219.02 634.459 1214.9 635.251 1210.47 635.251H1209.52ZM1286.48 671.374C1284.1 674.226 1281.17 675.652 1277.68 675.652C1274.52 675.652 1271.82 674.542 1269.6 672.324C1267.39 670.106 1266.28 667.413 1266.28 664.244C1266.28 661.392 1267.07 659.095 1268.65 657.352L1326.4 579.641C1329.1 575.997 1332.66 573.066 1337.1 570.848C1341.53 568.471 1346.29 567.283 1351.36 567.283C1356.11 567.283 1360.62 568.313 1364.9 570.372C1369.18 572.432 1372.67 575.284 1375.36 578.928L1433.11 656.164C1434.06 657.273 1434.85 658.541 1435.48 659.967C1436.12 661.234 1436.44 662.66 1436.44 664.244C1436.44 667.413 1435.33 670.106 1433.11 672.324C1430.89 674.542 1428.2 675.652 1425.03 675.652C1421.23 675.652 1418.22 674.146 1416 671.136L1360.62 597.227C1359.52 595.959 1358.09 594.613 1356.35 593.187C1354.76 591.602 1353.1 590.81 1351.36 590.81C1349.61 590.81 1347.87 591.602 1346.13 593.187C1344.54 594.613 1343.28 595.959 1342.33 597.227L1286.48 671.374Z" fill="white"/>
<path d="M92.7427 731.288C92.4681 728.969 91.3544 727.169 89.4016 725.887C87.4489 724.606 85.0537 723.965 82.2161 723.965C80.1413 723.965 78.3258 724.301 76.7697 724.972C75.2289 725.643 74.0236 726.566 73.1541 727.741C72.2997 728.916 71.8726 730.25 71.8726 731.746C71.8726 732.996 72.17 734.072 72.765 734.972C73.3753 735.857 74.1533 736.597 75.0992 737.192C76.0451 737.772 77.0367 738.252 78.0741 738.634C79.1115 739 80.065 739.297 80.9346 739.526L85.6944 740.808C86.9149 741.128 88.2727 741.57 89.7678 742.135C91.2781 742.699 92.7198 743.47 94.0928 744.446C95.4811 745.407 96.6253 746.643 97.5254 748.153C98.4255 749.664 98.8756 751.517 98.8756 753.714C98.8756 756.247 98.2119 758.535 96.8847 760.579C95.5726 762.624 93.6504 764.248 91.1179 765.453C88.6007 766.659 85.5419 767.261 81.9415 767.261C78.5852 767.261 75.6789 766.72 73.2227 765.637C70.7818 764.553 68.8595 763.043 67.456 761.106C66.0677 759.168 65.282 756.918 65.0989 754.355H70.9572C71.1098 756.124 71.7047 757.589 72.7421 758.749C73.7948 759.893 75.1221 760.747 76.7239 761.312C78.3411 761.861 80.0802 762.135 81.9415 762.135C84.1078 762.135 86.0529 761.784 87.7769 761.083C89.5008 760.366 90.8662 759.374 91.8731 758.108C92.88 756.826 93.3834 755.331 93.3834 753.623C93.3834 752.066 92.9486 750.8 92.079 749.824C91.2095 748.847 90.0653 748.054 88.6465 747.444C87.2277 746.834 85.6944 746.3 84.0468 745.842L78.28 744.194C74.6186 743.142 71.72 741.639 69.5842 739.686C67.4483 737.733 66.3804 735.178 66.3804 732.02C66.3804 729.396 67.0898 727.108 68.5086 725.155C69.9427 723.187 71.8649 721.661 74.2754 720.578C76.7011 719.48 79.409 718.931 82.3992 718.931C85.4198 718.931 88.1049 719.472 90.4543 720.555C92.8037 721.623 94.6649 723.088 96.038 724.949C97.4262 726.81 98.1585 728.923 98.2348 731.288H92.7427ZM108.119 766.438V731.288H113.336V736.78H113.794C114.526 734.903 115.708 733.447 117.341 732.409C118.973 731.356 120.934 730.83 123.222 730.83C125.541 730.83 127.471 731.356 129.012 732.409C130.568 733.447 131.781 734.903 132.65 736.78H133.016C133.916 734.965 135.267 733.523 137.067 732.455C138.867 731.372 141.026 730.83 143.543 730.83C146.686 730.83 149.256 731.814 151.255 733.782C153.253 735.735 154.253 738.778 154.253 742.913V766.438H148.852V742.913C148.852 740.319 148.143 738.466 146.724 737.352C145.305 736.238 143.634 735.682 141.712 735.682C139.241 735.682 137.326 736.429 135.968 737.924C134.611 739.404 133.932 741.28 133.932 743.554V766.438H128.439V742.364C128.439 740.365 127.791 738.756 126.494 737.535C125.198 736.299 123.527 735.682 121.483 735.682C120.079 735.682 118.767 736.055 117.547 736.803C116.342 737.55 115.365 738.588 114.618 739.915C113.885 741.227 113.519 742.745 113.519 744.469V766.438H108.119ZM175.115 767.261C172.887 767.261 170.866 766.842 169.051 766.003C167.235 765.148 165.793 763.92 164.726 762.318C163.658 760.701 163.124 758.749 163.124 756.46C163.124 754.446 163.52 752.814 164.314 751.563C165.107 750.297 166.167 749.305 167.495 748.588C168.822 747.871 170.286 747.337 171.888 746.986C173.505 746.62 175.13 746.33 176.762 746.117C178.898 745.842 180.63 745.636 181.957 745.499C183.3 745.346 184.276 745.094 184.886 744.744C185.512 744.393 185.825 743.782 185.825 742.913V742.73C185.825 740.472 185.207 738.717 183.971 737.466C182.75 736.215 180.897 735.59 178.41 735.59C175.832 735.59 173.81 736.154 172.346 737.283C170.881 738.412 169.852 739.618 169.257 740.899L164.131 739.068C165.046 736.933 166.266 735.27 167.792 734.08C169.333 732.874 171.011 732.035 172.826 731.562C174.657 731.074 176.457 730.83 178.227 730.83C179.356 730.83 180.653 730.967 182.117 731.242C183.597 731.501 185.024 732.043 186.397 732.867C187.785 733.691 188.937 734.934 189.852 736.597C190.767 738.26 191.225 740.487 191.225 743.279V766.438H185.825V761.678H185.55C185.184 762.44 184.574 763.257 183.719 764.126C182.865 764.996 181.728 765.736 180.31 766.346C178.891 766.956 177.159 767.261 175.115 767.261ZM175.939 762.41C178.075 762.41 179.875 761.99 181.339 761.151C182.819 760.312 183.933 759.229 184.68 757.902C185.443 756.575 185.825 755.179 185.825 753.714V748.771C185.596 749.046 185.092 749.297 184.314 749.526C183.551 749.74 182.667 749.931 181.66 750.098C180.668 750.251 179.699 750.388 178.753 750.51C177.823 750.617 177.068 750.709 176.488 750.785C175.084 750.968 173.772 751.265 172.552 751.677C171.347 752.074 170.37 752.677 169.623 753.485C168.89 754.279 168.524 755.362 168.524 756.735C168.524 758.611 169.218 760.03 170.607 760.991C172.01 761.937 173.788 762.41 175.939 762.41ZM201.727 766.438V731.288H206.944V736.597H207.31C207.951 734.858 209.111 733.447 210.789 732.363C212.467 731.28 214.359 730.739 216.464 730.739C216.861 730.739 217.356 730.746 217.951 730.762C218.546 730.777 218.996 730.8 219.302 730.83V736.322C219.119 736.277 218.699 736.208 218.043 736.116C217.402 736.01 216.723 735.956 216.006 735.956C214.298 735.956 212.772 736.315 211.43 737.032C210.102 737.733 209.05 738.71 208.272 739.961C207.509 741.197 207.127 742.608 207.127 744.194V766.438H201.727ZM243.837 731.288V735.865H225.621V731.288H243.837ZM230.93 722.867H236.331V756.369C236.331 757.894 236.552 759.038 236.995 759.801C237.452 760.549 238.032 761.052 238.734 761.312C239.451 761.556 240.206 761.678 240.999 761.678C241.594 761.678 242.082 761.647 242.464 761.586C242.845 761.51 243.15 761.449 243.379 761.403L244.478 766.254C244.111 766.392 243.6 766.529 242.944 766.666C242.288 766.819 241.457 766.895 240.45 766.895C238.924 766.895 237.429 766.567 235.965 765.911C234.515 765.255 233.31 764.256 232.349 762.913C231.403 761.571 230.93 759.877 230.93 757.833V722.867ZM269.543 724.606V719.571H304.692V724.606H289.955V766.438H284.28V724.606H269.543ZM330.732 752.066V731.288H336.133V766.438H330.732V760.488H330.366C329.542 762.273 328.261 763.791 326.522 765.042C324.782 766.277 322.586 766.895 319.931 766.895C317.734 766.895 315.781 766.415 314.073 765.453C312.364 764.477 311.022 763.013 310.045 761.06C309.069 759.092 308.581 756.613 308.581 753.623V731.288H313.981V753.256C313.981 755.819 314.698 757.864 316.132 759.389C317.582 760.915 319.428 761.678 321.67 761.678C323.013 761.678 324.378 761.334 325.766 760.648C327.17 759.961 328.345 758.909 329.291 757.49C330.252 756.071 330.732 754.263 330.732 752.066ZM346.669 766.438V731.288H351.886V736.597H352.252C352.893 734.858 354.053 733.447 355.731 732.363C357.409 731.28 359.301 730.739 361.406 730.739C361.803 730.739 362.299 730.746 362.893 730.762C363.488 730.777 363.939 730.8 364.244 730.83V736.322C364.061 736.277 363.641 736.208 362.985 736.116C362.344 736.01 361.665 735.956 360.948 735.956C359.24 735.956 357.714 736.315 356.372 737.032C355.044 737.733 353.992 738.71 353.214 739.961C352.451 741.197 352.069 742.608 352.069 744.194V766.438H346.669ZM376.69 745.293V766.438H371.29V731.288H376.507V736.78H376.965C377.789 734.995 379.04 733.561 380.718 732.478C382.396 731.379 384.562 730.83 387.217 730.83C389.597 730.83 391.679 731.318 393.464 732.295C395.249 733.256 396.638 734.72 397.629 736.688C398.621 738.641 399.117 741.113 399.117 744.103V766.438H393.716V744.469C393.716 741.708 392.999 739.557 391.565 738.016C390.131 736.46 388.163 735.682 385.661 735.682C383.937 735.682 382.396 736.055 381.038 736.803C379.696 737.55 378.636 738.641 377.857 740.075C377.079 741.509 376.69 743.248 376.69 745.293ZM409.63 766.438V731.288H415.03V766.438H409.63ZM412.376 725.43C411.323 725.43 410.415 725.071 409.653 724.354C408.905 723.637 408.531 722.775 408.531 721.768C408.531 720.761 408.905 719.899 409.653 719.182C410.415 718.465 411.323 718.107 412.376 718.107C413.428 718.107 414.329 718.465 415.076 719.182C415.839 719.899 416.22 720.761 416.22 721.768C416.22 722.775 415.839 723.637 415.076 724.354C414.329 725.071 413.428 725.43 412.376 725.43ZM430.967 745.293V766.438H425.566V731.288H430.784V736.78H431.242C432.065 734.995 433.316 733.561 434.994 732.478C436.673 731.379 438.839 730.83 441.493 730.83C443.873 730.83 445.956 731.318 447.741 732.295C449.526 733.256 450.914 734.72 451.906 736.688C452.897 738.641 453.393 741.113 453.393 744.103V766.438H447.993V744.469C447.993 741.708 447.275 739.557 445.841 738.016C444.407 736.46 442.439 735.682 439.937 735.682C438.213 735.682 436.673 736.055 435.315 736.803C433.972 737.55 432.912 738.641 432.134 740.075C431.356 741.509 430.967 743.248 430.967 745.293ZM478.094 780.351C475.485 780.351 473.243 780.015 471.366 779.344C469.49 778.688 467.926 777.818 466.675 776.735C465.439 775.667 464.455 774.523 463.723 773.303L468.025 770.282C468.514 770.923 469.131 771.655 469.879 772.479C470.626 773.318 471.649 774.043 472.945 774.653C474.257 775.278 475.974 775.591 478.094 775.591C480.932 775.591 483.274 774.905 485.12 773.532C486.966 772.158 487.889 770.007 487.889 767.078V759.938H487.431C487.034 760.579 486.47 761.373 485.737 762.318C485.02 763.249 483.983 764.08 482.625 764.813C481.283 765.53 479.467 765.888 477.179 765.888C474.341 765.888 471.794 765.217 469.536 763.875C467.293 762.532 465.516 760.579 464.204 758.016C462.907 755.453 462.259 752.341 462.259 748.68C462.259 745.079 462.892 741.944 464.158 739.274C465.424 736.589 467.186 734.514 469.444 733.05C471.702 731.57 474.311 730.83 477.27 730.83C479.559 730.83 481.374 731.212 482.717 731.974C484.075 732.722 485.112 733.576 485.829 734.537C486.561 735.483 487.126 736.261 487.522 736.872H488.072V731.288H493.289V767.444C493.289 770.465 492.603 772.921 491.23 774.813C489.872 776.72 488.041 778.116 485.737 779.001C483.449 779.901 480.901 780.351 478.094 780.351ZM477.911 761.037C480.077 761.037 481.908 760.541 483.403 759.549C484.898 758.558 486.035 757.131 486.813 755.27C487.591 753.409 487.98 751.182 487.98 748.588C487.98 746.056 487.599 743.821 486.836 741.883C486.073 739.946 484.944 738.428 483.449 737.329C481.954 736.231 480.108 735.682 477.911 735.682C475.623 735.682 473.716 736.261 472.19 737.421C470.68 738.58 469.543 740.136 468.78 742.089C468.033 744.042 467.659 746.208 467.659 748.588C467.659 751.029 468.041 753.188 468.803 755.064C469.581 756.925 470.726 758.39 472.236 759.458C473.762 760.511 475.653 761.037 477.911 761.037ZM548.95 731.288C548.675 728.969 547.562 727.169 545.609 725.887C543.656 724.606 541.261 723.965 538.424 723.965C536.349 723.965 534.533 724.301 532.977 724.972C531.436 725.643 530.231 726.566 529.361 727.741C528.507 728.916 528.08 730.25 528.08 731.746C528.08 732.996 528.377 734.072 528.972 734.972C529.583 735.857 530.361 736.597 531.307 737.192C532.252 737.772 533.244 738.252 534.282 738.634C535.319 739 536.272 739.297 537.142 739.526L541.902 740.808C543.122 741.128 544.48 741.57 545.975 742.135C547.486 742.699 548.927 743.47 550.3 744.446C551.689 745.407 552.833 746.643 553.733 748.153C554.633 749.664 555.083 751.517 555.083 753.714C555.083 756.247 554.419 758.535 553.092 760.579C551.78 762.624 549.858 764.248 547.325 765.453C544.808 766.659 541.749 767.261 538.149 767.261C534.793 767.261 531.886 766.72 529.43 765.637C526.989 764.553 525.067 763.043 523.663 761.106C522.275 759.168 521.489 756.918 521.306 754.355H527.165C527.317 756.124 527.912 757.589 528.95 758.749C530.002 759.893 531.329 760.747 532.931 761.312C534.549 761.861 536.288 762.135 538.149 762.135C540.315 762.135 542.26 761.784 543.984 761.083C545.708 760.366 547.074 759.374 548.081 758.108C549.087 756.826 549.591 755.331 549.591 753.623C549.591 752.066 549.156 750.8 548.286 749.824C547.417 748.847 546.273 748.054 544.854 747.444C543.435 746.834 541.902 746.3 540.254 745.842L534.487 744.194C530.826 743.142 527.927 741.639 525.792 739.686C523.656 737.733 522.588 735.178 522.588 732.02C522.588 729.396 523.297 727.108 524.716 725.155C526.15 723.187 528.072 721.661 530.483 720.578C532.908 719.48 535.616 718.931 538.607 718.931C541.627 718.931 544.312 719.472 546.662 720.555C549.011 721.623 550.872 723.088 552.245 724.949C553.634 726.81 554.366 728.923 554.442 731.288H548.95ZM578.606 767.17C575.432 767.17 572.648 766.415 570.253 764.904C567.873 763.394 566.012 761.281 564.669 758.565C563.342 755.85 562.678 752.677 562.678 749.046C562.678 745.384 563.342 742.188 564.669 739.457C566.012 736.727 567.873 734.606 570.253 733.096C572.648 731.585 575.432 730.83 578.606 730.83C581.779 730.83 584.555 731.585 586.935 733.096C589.33 734.606 591.192 736.727 592.519 739.457C593.861 742.188 594.533 745.384 594.533 749.046C594.533 752.677 593.861 755.85 592.519 758.565C591.192 761.281 589.33 763.394 586.935 764.904C584.555 766.415 581.779 767.17 578.606 767.17ZM578.606 762.318C581.016 762.318 582.999 761.701 584.555 760.465C586.111 759.229 587.263 757.604 588.011 755.591C588.758 753.577 589.132 751.395 589.132 749.046C589.132 746.696 588.758 744.507 588.011 742.478C587.263 740.449 586.111 738.809 584.555 737.558C582.999 736.307 581.016 735.682 578.606 735.682C576.195 735.682 574.212 736.307 572.656 737.558C571.1 738.809 569.948 740.449 569.2 742.478C568.453 744.507 568.079 746.696 568.079 749.046C568.079 751.395 568.453 753.577 569.2 755.591C569.948 757.604 571.1 759.229 572.656 760.465C574.212 761.701 576.195 762.318 578.606 762.318ZM608.822 719.571V766.438H603.421V719.571H608.822ZM641.509 752.066V731.288H646.91V766.438H641.509V760.488H641.143C640.319 762.273 639.038 763.791 637.299 765.042C635.559 766.277 633.363 766.895 630.708 766.895C628.511 766.895 626.558 766.415 624.85 765.453C623.141 764.477 621.799 763.013 620.822 761.06C619.846 759.092 619.358 756.613 619.358 753.623V731.288H624.758V753.256C624.758 755.819 625.475 757.864 626.909 759.389C628.359 760.915 630.205 761.678 632.447 761.678C633.79 761.678 635.155 761.334 636.543 760.648C637.947 759.961 639.122 758.909 640.068 757.49C641.029 756.071 641.509 754.263 641.509 752.066ZM672.732 731.288V735.865H654.517V731.288H672.732ZM659.826 722.867H665.226V756.369C665.226 757.894 665.448 759.038 665.89 759.801C666.348 760.549 666.927 761.052 667.629 761.312C668.346 761.556 669.101 761.678 669.895 761.678C670.49 761.678 670.978 761.647 671.359 761.586C671.741 761.51 672.046 761.449 672.275 761.403L673.373 766.254C673.007 766.392 672.496 766.529 671.84 766.666C671.184 766.819 670.352 766.895 669.345 766.895C667.82 766.895 666.325 766.567 664.86 765.911C663.411 765.255 662.206 764.256 661.245 762.913C660.299 761.571 659.826 759.877 659.826 757.833V722.867ZM681.5 766.438V731.288H686.901V766.438H681.5ZM684.247 725.43C683.194 725.43 682.286 725.071 681.523 724.354C680.776 723.637 680.402 722.775 680.402 721.768C680.402 720.761 680.776 719.899 681.523 719.182C682.286 718.465 683.194 718.107 684.247 718.107C685.299 718.107 686.199 718.465 686.947 719.182C687.71 719.899 688.091 720.761 688.091 721.768C688.091 722.775 687.71 723.637 686.947 724.354C686.199 725.071 685.299 725.43 684.247 725.43ZM711.717 767.17C708.543 767.17 705.759 766.415 703.364 764.904C700.984 763.394 699.123 761.281 697.78 758.565C696.453 755.85 695.789 752.677 695.789 749.046C695.789 745.384 696.453 742.188 697.78 739.457C699.123 736.727 700.984 734.606 703.364 733.096C705.759 731.585 708.543 730.83 711.717 730.83C714.89 730.83 717.666 731.585 720.046 733.096C722.442 734.606 724.303 736.727 725.63 739.457C726.973 742.188 727.644 745.384 727.644 749.046C727.644 752.677 726.973 755.85 725.63 758.565C724.303 761.281 722.442 763.394 720.046 764.904C717.666 766.415 714.89 767.17 711.717 767.17ZM711.717 762.318C714.127 762.318 716.11 761.701 717.666 760.465C719.223 759.229 720.374 757.604 721.122 755.591C721.869 753.577 722.243 751.395 722.243 749.046C722.243 746.696 721.869 744.507 721.122 742.478C720.374 740.449 719.223 738.809 717.666 737.558C716.11 736.307 714.127 735.682 711.717 735.682C709.306 735.682 707.323 736.307 705.767 737.558C704.211 738.809 703.059 740.449 702.311 742.478C701.564 744.507 701.19 746.696 701.19 749.046C701.19 751.395 701.564 753.577 702.311 755.591C703.059 757.604 704.211 759.229 705.767 760.465C707.323 761.701 709.306 762.318 711.717 762.318ZM741.933 745.293V766.438H736.532V731.288H741.75V736.78H742.207C743.031 734.995 744.282 733.561 745.96 732.478C747.638 731.379 749.805 730.83 752.459 730.83C754.839 730.83 756.922 731.318 758.707 732.295C760.492 733.256 761.88 734.72 762.872 736.688C763.863 738.641 764.359 741.113 764.359 744.103V766.438H758.958V744.469C758.958 741.708 758.241 739.557 756.807 738.016C755.373 736.46 753.405 735.682 750.903 735.682C749.179 735.682 747.638 736.055 746.281 736.803C744.938 737.55 743.878 738.641 743.1 740.075C742.322 741.509 741.933 743.248 741.933 745.293ZM799.77 739.16L794.918 740.533C794.613 739.724 794.163 738.939 793.568 738.176C792.988 737.398 792.195 736.757 791.188 736.254C790.181 735.75 788.892 735.498 787.321 735.498C785.17 735.498 783.377 735.994 781.943 736.986C780.524 737.962 779.815 739.206 779.815 740.716C779.815 742.059 780.303 743.119 781.28 743.897C782.256 744.675 783.782 745.323 785.856 745.842L791.074 747.123C794.217 747.886 796.558 749.053 798.099 750.625C799.64 752.181 800.41 754.187 800.41 756.643C800.41 758.657 799.831 760.457 798.671 762.044C797.527 763.63 795.925 764.881 793.866 765.797C791.806 766.712 789.411 767.17 786.68 767.17C783.095 767.17 780.128 766.392 777.778 764.836C775.429 763.28 773.941 761.006 773.316 758.016L778.442 756.735C778.93 758.626 779.853 760.045 781.211 760.991C782.584 761.937 784.377 762.41 786.589 762.41C789.106 762.41 791.104 761.876 792.584 760.808C794.079 759.725 794.827 758.428 794.827 756.918C794.827 755.697 794.4 754.675 793.545 753.851C792.691 753.012 791.379 752.387 789.609 751.975L783.751 750.602C780.532 749.839 778.167 748.657 776.657 747.055C775.162 745.438 774.414 743.416 774.414 740.991C774.414 739.007 774.971 737.253 776.085 735.727C777.214 734.202 778.747 733.004 780.685 732.135C782.637 731.265 784.849 730.83 787.321 730.83C790.799 730.83 793.53 731.593 795.513 733.119C797.512 734.644 798.931 736.658 799.77 739.16ZM828.685 766.438V719.571H856.787V724.606H834.36V740.441H854.681V745.476H834.36V766.438H828.685ZM866.041 766.438V731.288H871.259V736.597H871.625C872.265 734.858 873.425 733.447 875.103 732.363C876.781 731.28 878.673 730.739 880.778 730.739C881.175 730.739 881.671 730.746 882.266 730.762C882.861 730.777 883.311 730.8 883.616 730.83V736.322C883.433 736.277 883.013 736.208 882.357 736.116C881.717 736.01 881.038 735.956 880.321 735.956C878.612 735.956 877.086 736.315 875.744 737.032C874.417 737.733 873.364 738.71 872.586 739.961C871.823 741.197 871.442 742.608 871.442 744.194V766.438H866.041ZM903.872 767.17C900.699 767.17 897.914 766.415 895.519 764.904C893.139 763.394 891.278 761.281 889.936 758.565C888.608 755.85 887.945 752.677 887.945 749.046C887.945 745.384 888.608 742.188 889.936 739.457C891.278 736.727 893.139 734.606 895.519 733.096C897.914 731.585 900.699 730.83 903.872 730.83C907.045 730.83 909.822 731.585 912.202 733.096C914.597 734.606 916.458 736.727 917.785 739.457C919.128 742.188 919.799 745.384 919.799 749.046C919.799 752.677 919.128 755.85 917.785 758.565C916.458 761.281 914.597 763.394 912.202 764.904C909.822 766.415 907.045 767.17 903.872 767.17ZM903.872 762.318C906.282 762.318 908.266 761.701 909.822 760.465C911.378 759.229 912.53 757.604 913.277 755.591C914.025 753.577 914.398 751.395 914.398 749.046C914.398 746.696 914.025 744.507 913.277 742.478C912.53 740.449 911.378 738.809 909.822 737.558C908.266 736.307 906.282 735.682 903.872 735.682C901.461 735.682 899.478 736.307 897.922 737.558C896.366 738.809 895.214 740.449 894.467 742.478C893.719 744.507 893.345 746.696 893.345 749.046C893.345 751.395 893.719 753.577 894.467 755.591C895.214 757.604 896.366 759.229 897.922 760.465C899.478 761.701 901.461 762.318 903.872 762.318ZM928.687 766.438V731.288H933.905V736.78H934.363C935.095 734.903 936.277 733.447 937.91 732.409C939.542 731.356 941.502 730.83 943.791 730.83C946.11 730.83 948.039 731.356 949.58 732.409C951.136 733.447 952.349 734.903 953.219 736.78H953.585C954.485 734.965 955.835 733.523 957.635 732.455C959.436 731.372 961.594 730.83 964.112 730.83C967.254 730.83 969.825 731.814 971.823 733.782C973.822 735.735 974.821 738.778 974.821 742.913V766.438H969.421V742.913C969.421 740.319 968.711 738.466 967.292 737.352C965.874 736.238 964.203 735.682 962.281 735.682C959.809 735.682 957.895 736.429 956.537 737.924C955.179 739.404 954.5 741.28 954.5 743.554V766.438H949.008V742.364C949.008 740.365 948.36 738.756 947.063 737.535C945.766 736.299 944.096 735.682 942.052 735.682C940.648 735.682 939.336 736.055 938.115 736.803C936.91 737.55 935.934 738.588 935.186 739.915C934.454 741.227 934.088 742.745 934.088 744.469V766.438H928.687ZM1030.47 731.288C1030.2 728.969 1029.08 727.169 1027.13 725.887C1025.18 724.606 1022.78 723.965 1019.94 723.965C1017.87 723.965 1016.05 724.301 1014.5 724.972C1012.96 725.643 1011.75 726.566 1010.88 727.741C1010.03 728.916 1009.6 730.25 1009.6 731.746C1009.6 732.996 1009.9 734.072 1010.49 734.972C1011.1 735.857 1011.88 736.597 1012.83 737.192C1013.77 737.772 1014.76 738.252 1015.8 738.634C1016.84 739 1017.79 739.297 1018.66 739.526L1023.42 740.808C1024.64 741.128 1026 741.57 1027.5 742.135C1029.01 742.699 1030.45 743.47 1031.82 744.446C1033.21 745.407 1034.35 746.643 1035.25 748.153C1036.15 749.664 1036.6 751.517 1036.6 753.714C1036.6 756.247 1035.94 758.535 1034.61 760.579C1033.3 762.624 1031.38 764.248 1028.85 765.453C1026.33 766.659 1023.27 767.261 1019.67 767.261C1016.31 767.261 1013.41 766.72 1010.95 765.637C1008.51 764.553 1006.59 763.043 1005.18 761.106C1003.8 759.168 1003.01 756.918 1002.83 754.355H1008.69C1008.84 756.124 1009.43 757.589 1010.47 758.749C1011.52 759.893 1012.85 760.747 1014.45 761.312C1016.07 761.861 1017.81 762.135 1019.67 762.135C1021.84 762.135 1023.78 761.784 1025.5 761.083C1027.23 760.366 1028.59 759.374 1029.6 758.108C1030.61 756.826 1031.11 755.331 1031.11 753.623C1031.11 752.066 1030.68 750.8 1029.81 749.824C1028.94 748.847 1027.79 748.054 1026.37 747.444C1024.96 746.834 1023.42 746.3 1021.77 745.842L1016.01 744.194C1012.35 743.142 1009.45 741.639 1007.31 739.686C1005.18 737.733 1004.11 735.178 1004.11 732.02C1004.11 729.396 1004.82 727.108 1006.24 725.155C1007.67 723.187 1009.59 721.661 1012 720.578C1014.43 719.48 1017.14 718.931 1020.13 718.931C1023.15 718.931 1025.83 719.472 1028.18 720.555C1030.53 721.623 1032.39 723.088 1033.77 724.949C1035.15 726.81 1035.89 728.923 1035.96 731.288H1030.47ZM1053.81 766.438L1043.1 731.288H1048.78L1056.37 758.199H1056.74L1064.25 731.288H1070.01L1077.43 758.108H1077.79L1085.39 731.288H1091.07L1080.36 766.438H1075.05L1067.36 739.435H1066.81L1059.12 766.438H1053.81ZM1098.85 766.438V731.288H1104.25V766.438H1098.85ZM1101.6 725.43C1100.54 725.43 1099.64 725.071 1098.87 724.354C1098.12 723.637 1097.75 722.775 1097.75 721.768C1097.75 720.761 1098.12 719.899 1098.87 719.182C1099.64 718.465 1100.54 718.107 1101.6 718.107C1102.65 718.107 1103.55 718.465 1104.3 719.182C1105.06 719.899 1105.44 720.761 1105.44 721.768C1105.44 722.775 1105.06 723.637 1104.3 724.354C1103.55 725.071 1102.65 725.43 1101.6 725.43ZM1130.07 731.288V735.865H1111.86V731.288H1130.07ZM1117.17 722.867H1122.57V756.369C1122.57 757.894 1122.79 759.038 1123.23 759.801C1123.69 760.549 1124.27 761.052 1124.97 761.312C1125.69 761.556 1126.44 761.678 1127.23 761.678C1127.83 761.678 1128.32 761.647 1128.7 761.586C1129.08 761.51 1129.39 761.449 1129.61 761.403L1130.71 766.254C1130.35 766.392 1129.84 766.529 1129.18 766.666C1128.52 766.819 1127.69 766.895 1126.69 766.895C1125.16 766.895 1123.67 766.567 1122.2 765.911C1120.75 765.255 1119.55 764.256 1118.58 762.913C1117.64 761.571 1117.17 759.877 1117.17 757.833V722.867ZM1137.83 766.438V762.318L1157.79 736.688V736.322H1138.47V731.288H1164.75V735.59L1145.34 761.037V761.403H1165.39V766.438H1137.83ZM1189.64 731.288V735.865H1171.42V731.288H1189.64ZM1176.73 722.867H1182.13V756.369C1182.13 757.894 1182.35 759.038 1182.79 759.801C1183.25 760.549 1183.83 761.052 1184.53 761.312C1185.25 761.556 1186 761.678 1186.8 761.678C1187.39 761.678 1187.88 761.647 1188.26 761.586C1188.64 761.51 1188.95 761.449 1189.18 761.403L1190.28 766.254C1189.91 766.392 1189.4 766.529 1188.74 766.666C1188.09 766.819 1187.26 766.895 1186.25 766.895C1184.72 766.895 1183.23 766.567 1181.76 765.911C1180.31 765.255 1179.11 764.256 1178.15 762.913C1177.2 761.571 1176.73 759.877 1176.73 757.833V722.867ZM1212.76 767.17C1209.38 767.17 1206.45 766.422 1204 764.927C1201.56 763.417 1199.67 761.312 1198.35 758.611C1197.03 755.896 1196.38 752.738 1196.38 749.137C1196.38 745.537 1197.03 742.364 1198.35 739.618C1199.67 736.856 1201.52 734.705 1203.88 733.164C1206.26 731.608 1209.04 730.83 1212.21 730.83C1214.04 730.83 1215.85 731.135 1217.64 731.746C1219.42 732.356 1221.05 733.347 1222.51 734.72C1223.98 736.078 1225.14 737.878 1226.01 740.121C1226.88 742.364 1227.32 745.125 1227.32 748.405V750.693H1200.22V746.025H1221.83C1221.83 744.042 1221.43 742.272 1220.64 740.716C1219.86 739.16 1218.74 737.932 1217.29 737.032C1215.86 736.132 1214.17 735.682 1212.21 735.682C1210.06 735.682 1208.2 736.215 1206.63 737.283C1205.07 738.336 1203.88 739.709 1203.04 741.403C1202.2 743.096 1201.78 744.911 1201.78 746.849V749.961C1201.78 752.616 1202.24 754.866 1203.15 756.712C1204.08 758.543 1205.37 759.938 1207.02 760.9C1208.67 761.845 1210.58 762.318 1212.76 762.318C1214.18 762.318 1215.46 762.12 1216.61 761.723C1217.77 761.312 1218.77 760.701 1219.61 759.893C1220.44 759.069 1221.09 758.047 1221.55 756.826L1226.77 758.291C1226.22 760.061 1225.3 761.617 1224 762.959C1222.7 764.286 1221.1 765.324 1219.19 766.071C1217.29 766.804 1215.14 767.17 1212.76 767.17ZM1236.18 766.438V731.288H1241.39V736.597H1241.76C1242.4 734.858 1243.56 733.447 1245.24 732.363C1246.92 731.28 1248.81 730.739 1250.91 730.739C1251.31 730.739 1251.81 730.746 1252.4 730.762C1253 730.777 1253.45 730.8 1253.75 730.83V736.322C1253.57 736.277 1253.15 736.208 1252.49 736.116C1251.85 736.01 1251.17 735.956 1250.46 735.956C1248.75 735.956 1247.22 736.315 1245.88 737.032C1244.55 737.733 1243.5 738.71 1242.72 739.961C1241.96 741.197 1241.58 742.608 1241.58 744.194V766.438H1236.18ZM1266.2 719.571V766.438H1260.8V719.571H1266.2ZM1287.08 767.261C1284.85 767.261 1282.83 766.842 1281.01 766.003C1279.2 765.148 1277.76 763.92 1276.69 762.318C1275.62 760.701 1275.09 758.749 1275.09 756.46C1275.09 754.446 1275.48 752.814 1276.28 751.563C1277.07 750.297 1278.13 749.305 1279.46 748.588C1280.78 747.871 1282.25 747.337 1283.85 746.986C1285.47 746.62 1287.09 746.33 1288.73 746.117C1290.86 745.842 1292.59 745.636 1293.92 745.499C1295.26 745.346 1296.24 745.094 1296.85 744.744C1297.47 744.393 1297.79 743.782 1297.79 742.913V742.73C1297.79 740.472 1297.17 738.717 1295.93 737.466C1294.71 736.215 1292.86 735.59 1290.37 735.59C1287.79 735.59 1285.77 736.154 1284.31 737.283C1282.84 738.412 1281.81 739.618 1281.22 740.899L1276.09 739.068C1277.01 736.933 1278.23 735.27 1279.76 734.08C1281.3 732.874 1282.97 732.035 1284.79 731.562C1286.62 731.074 1288.42 730.83 1290.19 730.83C1291.32 730.83 1292.62 730.967 1294.08 731.242C1295.56 731.501 1296.99 732.043 1298.36 732.867C1299.75 733.691 1300.9 734.934 1301.82 736.597C1302.73 738.26 1303.19 740.487 1303.19 743.279V766.438H1297.79V761.678H1297.51C1297.15 762.44 1296.54 763.257 1295.68 764.126C1294.83 764.996 1293.69 765.736 1292.27 766.346C1290.85 766.956 1289.12 767.261 1287.08 767.261ZM1287.9 762.41C1290.04 762.41 1291.84 761.99 1293.3 761.151C1294.78 760.312 1295.9 759.229 1296.64 757.902C1297.41 756.575 1297.79 755.179 1297.79 753.714V748.771C1297.56 749.046 1297.06 749.297 1296.28 749.526C1295.51 749.74 1294.63 749.931 1293.62 750.098C1292.63 750.251 1291.66 750.388 1290.72 750.51C1289.79 750.617 1289.03 750.709 1288.45 750.785C1287.05 750.968 1285.74 751.265 1284.51 751.677C1283.31 752.074 1282.33 752.677 1281.59 753.485C1280.85 754.279 1280.49 755.362 1280.49 756.735C1280.49 758.611 1281.18 760.03 1282.57 760.991C1283.97 761.937 1285.75 762.41 1287.9 762.41ZM1319.09 745.293V766.438H1313.69V731.288H1318.91V736.78H1319.37C1320.19 734.995 1321.44 733.561 1323.12 732.478C1324.8 731.379 1326.96 730.83 1329.62 730.83C1332 730.83 1334.08 731.318 1335.86 732.295C1337.65 733.256 1339.04 734.72 1340.03 736.688C1341.02 738.641 1341.52 741.113 1341.52 744.103V766.438H1336.12V744.469C1336.12 741.708 1335.4 739.557 1333.97 738.016C1332.53 736.46 1330.56 735.682 1328.06 735.682C1326.34 735.682 1324.8 736.055 1323.44 736.803C1322.1 737.55 1321.04 738.641 1320.26 740.075C1319.48 741.509 1319.09 743.248 1319.09 745.293ZM1365.3 767.17C1362.37 767.17 1359.79 766.43 1357.54 764.95C1355.3 763.455 1353.55 761.35 1352.28 758.634C1351.02 755.903 1350.38 752.677 1350.38 748.954C1350.38 745.262 1351.02 742.059 1352.28 739.343C1353.55 736.627 1355.31 734.53 1357.57 733.05C1359.83 731.57 1362.43 730.83 1365.39 730.83C1367.68 730.83 1369.49 731.212 1370.82 731.974C1372.16 732.722 1373.18 733.576 1373.88 734.537C1374.6 735.483 1375.16 736.261 1375.55 736.872H1376.01V719.571H1381.41V766.438H1376.2V761.037H1375.55C1375.16 761.678 1374.59 762.486 1373.86 763.463C1373.13 764.424 1372.08 765.286 1370.73 766.048C1369.37 766.796 1367.56 767.17 1365.3 767.17ZM1366.03 762.318C1368.2 762.318 1370.03 761.754 1371.53 760.625C1373.02 759.481 1374.16 757.902 1374.94 755.888C1375.71 753.859 1376.1 751.517 1376.1 748.863C1376.1 746.239 1375.72 743.943 1374.96 741.975C1374.2 739.991 1373.07 738.45 1371.57 737.352C1370.08 736.238 1368.23 735.682 1366.03 735.682C1363.75 735.682 1361.84 736.269 1360.31 737.444C1358.8 738.603 1357.67 740.182 1356.9 742.181C1356.16 744.164 1355.78 746.391 1355.78 748.863C1355.78 751.365 1356.16 753.638 1356.93 755.682C1357.71 757.711 1358.85 759.328 1360.36 760.533C1361.89 761.723 1363.78 762.318 1366.03 762.318Z" fill="white"/>
<path d="M126.385 851.812V810.774H149.228V813.098H128.889V830.111H148.006V832.435H128.889V849.488H149.709V851.812H126.385ZM178.874 827.666L176.609 828.267C176.249 827.145 175.734 826.177 175.066 825.362C174.398 824.547 173.557 823.919 172.541 823.478C171.539 823.024 170.337 822.797 168.934 822.797C166.677 822.797 164.827 823.358 163.384 824.48C161.954 825.602 161.24 827.065 161.24 828.868C161.24 830.338 161.727 831.554 162.702 832.515C163.678 833.464 165.167 834.185 167.171 834.68L171.9 835.862C174.332 836.463 176.162 837.438 177.391 838.787C178.62 840.123 179.234 841.787 179.234 843.777C179.234 845.474 178.773 846.977 177.852 848.286C176.93 849.595 175.654 850.617 174.024 851.352C172.408 852.086 170.524 852.454 168.373 852.454C165.501 852.454 163.143 851.786 161.3 850.45C159.456 849.101 158.274 847.17 157.753 844.659L160.097 844.058C160.538 846.061 161.453 847.591 162.843 848.646C164.245 849.688 166.082 850.209 168.353 850.209C170.865 850.209 172.889 849.615 174.425 848.426C175.975 847.237 176.749 845.714 176.749 843.857C176.749 842.441 176.295 841.246 175.387 840.27C174.478 839.295 173.102 838.58 171.259 838.126L166.35 836.924C163.838 836.309 161.954 835.327 160.699 833.978C159.443 832.616 158.815 830.939 158.815 828.949C158.815 827.292 159.249 825.836 160.118 824.58C160.986 823.324 162.181 822.343 163.704 821.635C165.227 820.926 166.971 820.572 168.934 820.572C171.539 820.572 173.664 821.187 175.307 822.416C176.95 823.645 178.139 825.395 178.874 827.666ZM199.802 852.454C197.184 852.454 194.879 851.766 192.889 850.39C190.898 849 189.342 847.103 188.22 844.699C187.111 842.294 186.557 839.569 186.557 836.523C186.557 833.477 187.118 830.752 188.24 828.347C189.362 825.943 190.918 824.046 192.909 822.656C194.899 821.267 197.19 820.572 199.782 820.572C201.732 820.572 203.509 820.973 205.112 821.775C206.729 822.576 208.065 823.692 209.12 825.121C210.189 826.551 210.87 828.207 211.164 830.091H208.679C208.278 828.007 207.276 826.283 205.673 824.921C204.084 823.545 202.126 822.857 199.802 822.857C197.718 822.857 195.861 823.445 194.231 824.62C192.601 825.782 191.319 827.392 190.384 829.45C189.449 831.493 188.981 833.838 188.981 836.483C188.981 839.088 189.435 841.426 190.344 843.497C191.252 845.554 192.521 847.184 194.151 848.386C195.781 849.588 197.665 850.189 199.802 850.189C201.312 850.189 202.688 849.889 203.93 849.288C205.186 848.686 206.234 847.832 207.076 846.723C207.918 845.614 208.472 844.318 208.739 842.835H211.224C210.93 844.732 210.262 846.402 209.22 847.845C208.178 849.288 206.849 850.416 205.232 851.231C203.616 852.046 201.806 852.454 199.802 852.454ZM231.566 852.454C229.028 852.454 226.77 851.772 224.793 850.41C222.816 849.034 221.26 847.144 220.124 844.739C218.989 842.334 218.421 839.596 218.421 836.523C218.421 833.437 218.989 830.699 220.124 828.307C221.26 825.903 222.816 824.012 224.793 822.636C226.77 821.26 229.028 820.572 231.566 820.572C234.104 820.572 236.362 821.26 238.339 822.636C240.316 824.012 241.873 825.903 243.008 828.307C244.144 830.712 244.711 833.451 244.711 836.523C244.711 839.596 244.144 842.334 243.008 844.739C241.873 847.144 240.316 849.034 238.339 850.41C236.362 851.772 234.104 852.454 231.566 852.454ZM231.566 850.189C233.717 850.189 235.594 849.582 237.197 848.366C238.813 847.15 240.063 845.507 240.944 843.436C241.839 841.366 242.287 839.061 242.287 836.523C242.287 833.985 241.839 831.687 240.944 829.63C240.049 827.559 238.8 825.916 237.197 824.7C235.594 823.471 233.717 822.857 231.566 822.857C229.415 822.857 227.538 823.471 225.935 824.7C224.332 825.916 223.083 827.559 222.188 829.63C221.293 831.687 220.846 833.985 220.846 836.523C220.846 839.061 221.286 841.366 222.168 843.436C223.063 845.507 224.312 847.15 225.915 848.366C227.532 849.582 229.415 850.189 231.566 850.189ZM253.697 851.812V821.033H256.082V825.682H256.322C256.91 824.133 257.925 822.904 259.368 821.995C260.811 821.087 262.547 820.633 264.578 820.633C266.809 820.633 268.606 821.167 269.968 822.236C271.344 823.304 272.333 824.754 272.934 826.584H273.154C273.755 824.781 274.831 823.338 276.381 822.256C277.944 821.174 279.867 820.633 282.152 820.633C285.131 820.633 287.402 821.574 288.965 823.458C290.541 825.328 291.329 827.893 291.329 831.153V851.812H288.885V831.153C288.885 828.588 288.27 826.571 287.041 825.101C285.812 823.632 284.008 822.897 281.631 822.897C279.092 822.897 277.142 823.692 275.779 825.282C274.417 826.871 273.735 828.895 273.735 831.353V851.812H271.291V830.992C271.291 828.601 270.69 826.658 269.487 825.161C268.285 823.652 266.481 822.897 264.077 822.897C262.447 822.897 261.038 823.271 259.849 824.019C258.673 824.767 257.758 825.796 257.103 827.105C256.462 828.414 256.142 829.917 256.142 831.614V851.812H253.697ZM310.194 852.474C308.417 852.474 306.787 852.12 305.304 851.412C303.835 850.704 302.653 849.668 301.757 848.306C300.876 846.943 300.435 845.287 300.435 843.336C300.435 842.054 300.662 840.925 301.116 839.95C301.57 838.975 302.272 838.133 303.22 837.425C304.169 836.717 305.384 836.136 306.867 835.682C308.35 835.214 310.12 834.853 312.177 834.599C313.74 834.412 315.137 834.232 316.366 834.058C317.595 833.871 318.556 833.584 319.251 833.197C319.959 832.809 320.313 832.222 320.313 831.433V830.151C320.313 827.907 319.605 826.123 318.189 824.801C316.773 823.478 314.823 822.817 312.338 822.817C310.134 822.817 308.277 823.304 306.767 824.28C305.271 825.241 304.222 826.484 303.621 828.007L301.317 827.145C301.904 825.676 302.753 824.453 303.862 823.478C304.984 822.503 306.266 821.775 307.709 821.294C309.165 820.813 310.688 820.572 312.278 820.572C313.654 820.572 314.963 820.766 316.205 821.154C317.461 821.541 318.576 822.129 319.552 822.917C320.54 823.705 321.322 824.714 321.896 825.943C322.471 827.158 322.758 828.615 322.758 830.311V851.812H320.313V846.262H320.133C319.598 847.411 318.864 848.459 317.929 849.408C317.007 850.343 315.891 851.091 314.582 851.652C313.286 852.2 311.823 852.474 310.194 852.474ZM310.434 850.209C312.358 850.209 314.061 849.742 315.544 848.807C317.04 847.858 318.209 846.562 319.051 844.919C319.892 843.276 320.313 841.413 320.313 839.329V834.8C320.006 835.067 319.558 835.307 318.971 835.521C318.396 835.722 317.742 835.902 317.007 836.062C316.285 836.209 315.524 836.343 314.722 836.463C313.934 836.57 313.166 836.67 312.418 836.764C310.174 837.031 308.343 837.445 306.927 838.006C305.525 838.554 304.496 839.275 303.841 840.17C303.2 841.065 302.88 842.147 302.88 843.416C302.88 845.514 303.601 847.17 305.044 848.386C306.487 849.602 308.283 850.209 310.434 850.209ZM344.453 821.033V823.218H331.007V821.033H344.453ZM335.556 813.659H337.98V844.539C337.98 845.794 338.221 846.823 338.702 847.624C339.196 848.413 339.837 849 340.625 849.388C341.427 849.762 342.282 849.949 343.19 849.949C343.631 849.949 344.012 849.916 344.332 849.849C344.666 849.782 344.98 849.695 345.274 849.588L345.875 851.812C345.501 851.946 345.087 852.06 344.633 852.153C344.179 852.26 343.644 852.313 343.03 852.313C341.747 852.313 340.532 852.026 339.383 851.452C338.247 850.877 337.326 850.042 336.618 848.947C335.91 847.852 335.556 846.529 335.556 844.979V813.659ZM354.205 851.812V821.033H356.629V851.812H354.205ZM355.427 815.583C354.893 815.583 354.425 815.396 354.024 815.022C353.637 814.648 353.443 814.194 353.443 813.659C353.443 813.125 353.637 812.671 354.024 812.297C354.412 811.923 354.879 811.735 355.427 811.735C355.961 811.735 356.422 811.923 356.81 812.297C357.21 812.671 357.411 813.125 357.411 813.659C357.411 814.194 357.217 814.648 356.83 815.022C356.442 815.396 355.975 815.583 355.427 815.583ZM378.975 852.454C376.357 852.454 374.053 851.766 372.062 850.39C370.072 849 368.515 847.103 367.393 844.699C366.284 842.294 365.73 839.569 365.73 836.523C365.73 833.477 366.291 830.752 367.413 828.347C368.535 825.943 370.092 824.046 372.082 822.656C374.073 821.267 376.364 820.572 378.955 820.572C380.906 820.572 382.683 820.973 384.286 821.775C385.902 822.576 387.238 823.692 388.293 825.121C389.362 826.551 390.043 828.207 390.337 830.091H387.852C387.452 828.007 386.45 826.283 384.847 824.921C383.257 823.545 381.3 822.857 378.975 822.857C376.891 822.857 375.035 823.445 373.405 824.62C371.775 825.782 370.492 827.392 369.557 829.45C368.622 831.493 368.155 833.838 368.155 836.483C368.155 839.088 368.609 841.426 369.517 843.497C370.426 845.554 371.695 847.184 373.325 848.386C374.954 849.588 376.838 850.189 378.975 850.189C380.485 850.189 381.861 849.889 383.103 849.288C384.359 848.686 385.408 847.832 386.249 846.723C387.091 845.614 387.645 844.318 387.913 842.835H390.397C390.103 844.732 389.436 846.402 388.394 847.845C387.352 849.288 386.022 850.416 384.406 851.231C382.789 852.046 380.979 852.454 378.975 852.454ZM407.543 833.457V818.669H414.276C415.145 818.669 415.933 818.856 416.641 819.23C417.349 819.591 417.903 820.112 418.304 820.793C418.718 821.461 418.925 822.256 418.925 823.177C418.925 824.113 418.718 824.934 418.304 825.642C417.89 826.337 417.322 826.885 416.601 827.285C415.893 827.673 415.091 827.866 414.196 827.866H408.626V826.203H413.836C414.757 826.203 415.492 825.936 416.04 825.402C416.601 824.867 416.881 824.126 416.881 823.177C416.881 822.216 416.601 821.501 416.04 821.033C415.492 820.566 414.764 820.332 413.856 820.332H409.487V833.457H407.543ZM415.88 826.704L419.527 833.457H417.362L413.775 826.704H415.88ZM412.814 842.274C410.596 842.274 408.519 841.86 406.582 841.032C404.645 840.204 402.941 839.055 401.472 837.585C400.002 836.116 398.853 834.412 398.025 832.475C397.197 830.538 396.783 828.461 396.783 826.243C396.783 824.026 397.197 821.948 398.025 820.011C398.853 818.074 400.002 816.371 401.472 814.902C402.941 813.432 404.645 812.283 406.582 811.455C408.519 810.627 410.596 810.213 412.814 810.213C415.031 810.213 417.109 810.627 419.046 811.455C420.983 812.283 422.686 813.432 424.155 814.902C425.625 816.371 426.774 818.074 427.602 820.011C428.43 821.948 428.844 824.026 428.844 826.243C428.844 828.461 428.43 830.538 427.602 832.475C426.774 834.412 425.625 836.116 424.155 837.585C422.686 839.055 420.983 840.204 419.046 841.032C417.109 841.86 415.031 842.274 412.814 842.274ZM412.814 840.13C415.379 840.13 417.71 839.509 419.807 838.266C421.918 837.024 423.594 835.354 424.837 833.257C426.079 831.146 426.7 828.808 426.7 826.243C426.7 823.678 426.072 821.347 424.817 819.25C423.574 817.153 421.904 815.483 419.807 814.24C417.71 812.985 415.379 812.357 412.814 812.357C410.249 812.357 407.911 812.978 405.8 814.22C403.703 815.463 402.033 817.139 400.791 819.25C399.548 821.347 398.927 823.678 398.927 826.243C398.927 828.795 399.548 831.126 400.791 833.237C402.033 835.348 403.703 837.024 405.8 838.266C407.911 839.509 410.249 840.13 412.814 840.13ZM476.808 821.033C476.594 818.482 475.552 816.418 473.682 814.841C471.825 813.265 469.42 812.477 466.468 812.477C464.478 812.477 462.708 812.844 461.158 813.579C459.608 814.314 458.393 815.316 457.511 816.585C456.629 817.854 456.188 819.31 456.188 820.953C456.188 822.009 456.389 822.964 456.789 823.819C457.204 824.66 457.785 825.415 458.533 826.083C459.281 826.738 460.169 827.312 461.198 827.806C462.227 828.301 463.362 828.735 464.605 829.109L469.093 830.431C470.629 830.899 472.045 831.44 473.341 832.055C474.65 832.669 475.786 833.404 476.748 834.259C477.723 835.1 478.478 836.089 479.012 837.224C479.56 838.36 479.834 839.669 479.834 841.152C479.834 843.316 479.273 845.253 478.151 846.963C477.042 848.673 475.459 850.022 473.401 851.011C471.357 851.986 468.946 852.474 466.168 852.474C463.522 852.474 461.218 852.026 459.254 851.131C457.304 850.236 455.761 848.994 454.625 847.404C453.49 845.801 452.849 843.957 452.702 841.873H455.267C455.4 843.57 455.941 845.039 456.89 846.282C457.852 847.511 459.127 848.459 460.717 849.127C462.307 849.795 464.124 850.129 466.168 850.129C468.372 850.129 470.315 849.755 471.999 849.007C473.682 848.246 474.998 847.19 475.946 845.841C476.895 844.492 477.369 842.922 477.369 841.132C477.369 839.689 477.028 838.454 476.347 837.425C475.666 836.396 474.657 835.508 473.321 834.76C471.999 834.012 470.356 833.344 468.392 832.756L463.603 831.313C460.396 830.338 457.945 829.009 456.248 827.325C454.565 825.642 453.724 823.545 453.724 821.033C453.724 818.923 454.285 817.052 455.407 815.423C456.529 813.779 458.052 812.49 459.976 811.555C461.913 810.62 464.097 810.152 466.528 810.152C468.973 810.152 471.13 810.627 473.001 811.575C474.871 812.51 476.354 813.799 477.449 815.443C478.545 817.072 479.152 818.936 479.273 821.033H476.808ZM489.435 863.355V821.033H491.82V827.907H492.121C492.602 826.584 493.276 825.368 494.144 824.26C495.026 823.151 496.115 822.262 497.411 821.594C498.72 820.913 500.256 820.572 502.02 820.572C504.504 820.572 506.669 821.254 508.512 822.616C510.356 823.979 511.785 825.863 512.8 828.267C513.816 830.659 514.323 833.404 514.323 836.503C514.323 839.602 513.809 842.354 512.78 844.759C511.765 847.15 510.336 849.034 508.492 850.41C506.662 851.772 504.518 852.454 502.06 852.454C500.31 852.454 498.773 852.12 497.451 851.452C496.142 850.784 495.04 849.895 494.144 848.787C493.263 847.665 492.588 846.436 492.121 845.1H491.88V863.355H489.435ZM491.84 836.483C491.84 839.101 492.241 841.446 493.042 843.517C493.844 845.574 494.993 847.204 496.489 848.406C497.985 849.595 499.769 850.189 501.839 850.189C503.937 850.189 505.733 849.588 507.23 848.386C508.739 847.17 509.888 845.527 510.676 843.456C511.478 841.386 511.879 839.061 511.879 836.483C511.879 833.905 511.484 831.587 510.696 829.53C509.908 827.472 508.766 825.849 507.27 824.66C505.773 823.458 503.963 822.857 501.839 822.857C499.742 822.857 497.945 823.451 496.449 824.64C494.966 825.816 493.824 827.432 493.022 829.49C492.234 831.534 491.84 833.865 491.84 836.483ZM535.342 852.454C532.563 852.454 530.145 851.766 528.088 850.39C526.031 849.014 524.441 847.13 523.319 844.739C522.197 842.348 521.636 839.622 521.636 836.563C521.636 833.491 522.197 830.752 523.319 828.347C524.454 825.943 526.011 824.046 527.988 822.656C529.965 821.267 532.223 820.572 534.761 820.572C536.484 820.572 538.114 820.92 539.65 821.614C541.2 822.296 542.562 823.284 543.738 824.58C544.927 825.876 545.855 827.439 546.523 829.269C547.205 831.099 547.545 833.157 547.545 835.441V836.964H523.178V834.74H545.101C545.101 832.509 544.646 830.498 543.738 828.708C542.83 826.918 541.594 825.495 540.031 824.44C538.468 823.385 536.711 822.857 534.761 822.857C532.717 822.857 530.893 823.431 529.29 824.58C527.7 825.716 526.438 827.252 525.503 829.189C524.581 831.126 524.1 833.29 524.06 835.682V836.683C524.06 839.248 524.508 841.553 525.403 843.597C526.311 845.627 527.607 847.237 529.29 848.426C530.973 849.602 532.991 850.189 535.342 850.189C537.025 850.189 538.461 849.909 539.65 849.348C540.852 848.773 541.834 848.079 542.596 847.264C543.357 846.449 543.932 845.661 544.319 844.899L546.543 845.801C546.076 846.83 545.348 847.858 544.359 848.887C543.384 849.902 542.142 850.75 540.632 851.432C539.136 852.113 537.372 852.454 535.342 852.454ZM568.068 852.454C565.45 852.454 563.145 851.766 561.155 850.39C559.164 849 557.608 847.103 556.486 844.699C555.377 842.294 554.822 839.569 554.822 836.523C554.822 833.477 555.384 830.752 556.506 828.347C557.628 825.943 559.184 824.046 561.175 822.656C563.165 821.267 565.456 820.572 568.048 820.572C569.998 820.572 571.775 820.973 573.378 821.775C574.995 822.576 576.33 823.692 577.386 825.121C578.455 826.551 579.136 828.207 579.43 830.091H576.945C576.544 828.007 575.542 826.283 573.939 824.921C572.349 823.545 570.392 822.857 568.068 822.857C565.984 822.857 564.127 823.445 562.497 824.62C560.867 825.782 559.585 827.392 558.65 829.45C557.715 831.493 557.247 833.838 557.247 836.483C557.247 839.088 557.701 841.426 558.61 843.497C559.518 845.554 560.787 847.184 562.417 848.386C564.047 849.588 565.93 850.189 568.068 850.189C569.577 850.189 570.953 849.889 572.196 849.288C573.452 848.686 574.5 847.832 575.342 846.723C576.184 845.614 576.738 844.318 577.005 842.835H579.49C579.196 844.732 578.528 846.402 577.486 847.845C576.444 849.288 575.115 850.416 573.498 851.231C571.882 852.046 570.072 852.454 568.068 852.454ZM588.51 851.812V821.033H590.935V851.812H588.51ZM589.733 815.583C589.198 815.583 588.731 815.396 588.33 815.022C587.943 814.648 587.749 814.194 587.749 813.659C587.749 813.125 587.943 812.671 588.33 812.297C588.717 811.923 589.185 811.735 589.733 811.735C590.267 811.735 590.728 811.923 591.115 812.297C591.516 812.671 591.717 813.125 591.717 813.659C591.717 814.194 591.523 814.648 591.135 815.022C590.748 815.396 590.28 815.583 589.733 815.583ZM609.895 852.474C608.118 852.474 606.488 852.12 605.005 851.412C603.536 850.704 602.354 849.668 601.458 848.306C600.577 846.943 600.136 845.287 600.136 843.336C600.136 842.054 600.363 840.925 600.817 839.95C601.271 838.975 601.973 838.133 602.921 837.425C603.87 836.717 605.085 836.136 606.568 835.682C608.051 835.214 609.821 834.853 611.878 834.599C613.441 834.412 614.837 834.232 616.067 834.058C617.296 833.871 618.257 833.584 618.952 833.197C619.66 832.809 620.014 832.222 620.014 831.433V830.151C620.014 827.907 619.306 826.123 617.89 824.801C616.474 823.478 614.524 822.817 612.039 822.817C609.835 822.817 607.978 823.304 606.468 824.28C604.972 825.241 603.923 826.484 603.322 828.007L601.018 827.145C601.605 825.676 602.454 824.453 603.562 823.478C604.685 822.503 605.967 821.775 607.41 821.294C608.866 820.813 610.389 820.572 611.979 820.572C613.355 820.572 614.664 820.766 615.906 821.154C617.162 821.541 618.277 822.129 619.253 822.917C620.241 823.705 621.023 824.714 621.597 825.943C622.172 827.158 622.459 828.615 622.459 830.311V851.812H620.014V846.262H619.834C619.299 847.411 618.565 848.459 617.63 849.408C616.708 850.343 615.592 851.091 614.283 851.652C612.987 852.2 611.524 852.474 609.895 852.474ZM610.135 850.209C612.059 850.209 613.762 849.742 615.245 848.807C616.741 847.858 617.91 846.562 618.752 844.919C619.593 843.276 620.014 841.413 620.014 839.329V834.8C619.707 835.067 619.259 835.307 618.672 835.521C618.097 835.722 617.442 835.902 616.708 836.062C615.986 836.209 615.225 836.343 614.423 836.463C613.635 836.57 612.867 836.67 612.119 836.764C609.875 837.031 608.044 837.445 606.628 838.006C605.226 838.554 604.197 839.275 603.542 840.17C602.901 841.065 602.581 842.147 602.581 843.416C602.581 845.514 603.302 847.17 604.745 848.386C606.188 849.602 607.984 850.209 610.135 850.209ZM635.717 810.774V851.812H633.273V810.774H635.717ZM646.521 851.812V821.033H648.946V851.812H646.521ZM647.744 815.583C647.209 815.583 646.742 815.396 646.341 815.022C645.954 814.648 645.76 814.194 645.76 813.659C645.76 813.125 645.954 812.671 646.341 812.297C646.729 811.923 647.196 811.735 647.744 811.735C648.278 811.735 648.739 811.923 649.126 812.297C649.527 812.671 649.728 813.125 649.728 813.659C649.728 814.194 649.534 814.648 649.146 815.022C648.759 815.396 648.292 815.583 647.744 815.583ZM679.308 827.666L677.043 828.267C676.683 827.145 676.168 826.177 675.5 825.362C674.832 824.547 673.991 823.919 672.975 823.478C671.974 823.024 670.771 822.797 669.369 822.797C667.111 822.797 665.261 823.358 663.818 824.48C662.388 825.602 661.674 827.065 661.674 828.868C661.674 830.338 662.161 831.554 663.137 832.515C664.112 833.464 665.601 834.185 667.605 834.68L672.334 835.862C674.766 836.463 676.596 837.438 677.825 838.787C679.054 840.123 679.668 841.787 679.668 843.777C679.668 845.474 679.207 846.977 678.286 848.286C677.364 849.595 676.088 850.617 674.458 851.352C672.842 852.086 670.958 852.454 668.807 852.454C665.935 852.454 663.577 851.786 661.734 850.45C659.89 849.101 658.708 847.17 658.187 844.659L660.532 844.058C660.972 846.061 661.887 847.591 663.277 848.646C664.68 849.688 666.516 850.209 668.787 850.209C671.299 850.209 673.323 849.615 674.859 848.426C676.409 847.237 677.184 845.714 677.184 843.857C677.184 842.441 676.729 841.246 675.821 840.27C674.913 839.295 673.537 838.58 671.693 838.126L666.784 836.924C664.272 836.309 662.388 835.327 661.133 833.978C659.877 832.616 659.249 830.939 659.249 828.949C659.249 827.292 659.683 825.836 660.552 824.58C661.42 823.324 662.616 822.343 664.138 821.635C665.661 820.926 667.405 820.572 669.369 820.572C671.974 820.572 674.098 821.187 675.741 822.416C677.384 823.645 678.573 825.395 679.308 827.666ZM699.575 821.033V823.218H686.129V821.033H699.575ZM690.678 813.659H693.102V844.539C693.102 845.794 693.343 846.823 693.824 847.624C694.318 848.413 694.959 849 695.747 849.388C696.549 849.762 697.404 849.949 698.312 849.949C698.753 849.949 699.134 849.916 699.455 849.849C699.789 849.782 700.102 849.695 700.396 849.588L700.998 851.812C700.623 851.946 700.209 852.06 699.755 852.153C699.301 852.26 698.767 852.313 698.152 852.313C696.87 852.313 695.654 852.026 694.505 851.452C693.37 850.877 692.448 850.042 691.74 848.947C691.032 847.852 690.678 846.529 690.678 844.979V813.659ZM728.213 827.666L725.949 828.267C725.588 827.145 725.074 826.177 724.406 825.362C723.738 824.547 722.896 823.919 721.881 823.478C720.879 823.024 719.677 822.797 718.274 822.797C716.016 822.797 714.166 823.358 712.723 824.48C711.294 825.602 710.579 827.065 710.579 828.868C710.579 830.338 711.067 831.554 712.042 832.515C713.017 833.464 714.507 834.185 716.511 834.68L721.24 835.862C723.671 836.463 725.501 837.438 726.73 838.787C727.959 840.123 728.574 841.787 728.574 843.777C728.574 845.474 728.113 846.977 727.191 848.286C726.269 849.595 724.993 850.617 723.364 851.352C721.747 852.086 719.864 852.454 717.713 852.454C714.841 852.454 712.483 851.786 710.639 850.45C708.796 849.101 707.613 847.17 707.092 844.659L709.437 844.058C709.878 846.061 710.793 847.591 712.182 848.646C713.585 849.688 715.422 850.209 717.693 850.209C720.204 850.209 722.228 849.615 723.764 848.426C725.314 847.237 726.089 845.714 726.089 843.857C726.089 842.441 725.635 841.246 724.726 840.27C723.818 839.295 722.442 838.58 720.598 838.126L715.689 836.924C713.177 836.309 711.294 835.327 710.038 833.978C708.782 832.616 708.154 830.939 708.154 828.949C708.154 827.292 708.589 825.836 709.457 824.58C710.325 823.324 711.521 822.343 713.044 821.635C714.567 820.926 716.31 820.572 718.274 820.572C720.879 820.572 723.003 821.187 724.646 822.416C726.289 823.645 727.478 825.395 728.213 827.666ZM777.178 830.131V832.455H748.964V830.131H777.178ZM797.384 813.098V810.774H826.139V813.098H813.014V851.812H810.509V813.098H797.384ZM841.948 852.454C839.409 852.454 837.152 851.772 835.175 850.41C833.197 849.034 831.641 847.144 830.506 844.739C829.37 842.334 828.802 839.596 828.802 836.523C828.802 833.437 829.37 830.699 830.506 828.307C831.641 825.903 833.197 824.012 835.175 822.636C837.152 821.26 839.409 820.572 841.948 820.572C844.486 820.572 846.743 821.26 848.721 822.636C850.698 824.012 852.254 825.903 853.389 828.307C854.525 830.712 855.093 833.451 855.093 836.523C855.093 839.596 854.525 842.334 853.389 844.739C852.254 847.144 850.698 849.034 848.721 850.41C846.743 851.772 844.486 852.454 841.948 852.454ZM841.948 850.189C844.098 850.189 845.975 849.582 847.578 848.366C849.195 847.15 850.444 845.507 851.326 843.436C852.221 841.366 852.668 839.061 852.668 836.523C852.668 833.985 852.221 831.687 851.326 829.63C850.43 827.559 849.181 825.916 847.578 824.7C845.975 823.471 844.098 822.857 841.948 822.857C839.797 822.857 837.92 823.471 836.317 824.7C834.714 825.916 833.465 827.559 832.569 829.63C831.674 831.687 831.227 833.985 831.227 836.523C831.227 839.061 831.668 841.366 832.549 843.436C833.445 845.507 834.694 847.15 836.297 848.366C837.913 849.582 839.797 850.189 841.948 850.189ZM875.52 852.454C872.982 852.454 870.724 851.772 868.747 850.41C866.77 849.034 865.214 847.144 864.078 844.739C862.943 842.334 862.375 839.596 862.375 836.523C862.375 833.437 862.943 830.699 864.078 828.307C865.214 825.903 866.77 824.012 868.747 822.636C870.724 821.26 872.982 820.572 875.52 820.572C878.058 820.572 880.316 821.26 882.293 822.636C884.27 824.012 885.827 825.903 886.962 828.307C888.098 830.712 888.665 833.451 888.665 836.523C888.665 839.596 888.098 842.334 886.962 844.739C885.827 847.144 884.27 849.034 882.293 850.41C880.316 851.772 878.058 852.454 875.52 852.454ZM875.52 850.189C877.671 850.189 879.548 849.582 881.151 848.366C882.767 847.15 884.017 845.507 884.898 843.436C885.793 841.366 886.241 839.061 886.241 836.523C886.241 833.985 885.793 831.687 884.898 829.63C884.003 827.559 882.754 825.916 881.151 824.7C879.548 823.471 877.671 822.857 875.52 822.857C873.369 822.857 871.492 823.471 869.889 824.7C868.286 825.916 867.037 827.559 866.142 829.63C865.247 831.687 864.8 833.985 864.8 836.523C864.8 839.061 865.24 841.366 866.122 843.436C867.017 845.507 868.266 847.15 869.869 848.366C871.486 849.582 873.369 850.189 875.52 850.189ZM900.096 810.774V851.812H897.651V810.774H900.096ZM928.076 851.812V810.774H930.581V830.111H955.308V810.774H957.813V851.812H955.308V832.435H930.581V851.812H928.076ZM981.386 852.454C978.608 852.454 976.19 851.766 974.132 850.39C972.075 849.014 970.485 847.13 969.363 844.739C968.241 842.348 967.68 839.622 967.68 836.563C967.68 833.491 968.241 830.752 969.363 828.347C970.499 825.943 972.055 824.046 974.032 822.656C976.009 821.267 978.267 820.572 980.805 820.572C982.529 820.572 984.158 820.92 985.695 821.614C987.244 822.296 988.607 823.284 989.783 824.58C990.971 825.876 991.9 827.439 992.568 829.269C993.249 831.099 993.59 833.157 993.59 835.441V836.964H969.223V834.74H991.145C991.145 832.509 990.691 830.498 989.783 828.708C988.874 826.918 987.638 825.495 986.075 824.44C984.512 823.385 982.756 822.857 980.805 822.857C978.761 822.857 976.938 823.431 975.335 824.58C973.745 825.716 972.483 827.252 971.547 829.189C970.626 831.126 970.145 833.29 970.105 835.682V836.683C970.105 839.248 970.552 841.553 971.447 843.597C972.356 845.627 973.652 847.237 975.335 848.426C977.018 849.602 979.035 850.189 981.386 850.189C983.07 850.189 984.506 849.909 985.695 849.348C986.897 848.773 987.879 848.079 988.64 847.264C989.402 846.449 989.976 845.661 990.364 844.899L992.588 845.801C992.12 846.83 991.392 847.858 990.404 848.887C989.429 849.902 988.186 850.75 986.677 851.432C985.18 852.113 983.417 852.454 981.386 852.454ZM1010.73 852.474C1008.95 852.474 1007.32 852.12 1005.84 851.412C1004.37 850.704 1003.18 849.668 1002.29 848.306C1001.41 846.943 1000.97 845.287 1000.97 843.336C1000.97 842.054 1001.19 840.925 1001.65 839.95C1002.1 838.975 1002.8 838.133 1003.75 837.425C1004.7 836.717 1005.92 836.136 1007.4 835.682C1008.88 835.214 1010.65 834.853 1012.71 834.599C1014.27 834.412 1015.67 834.232 1016.9 834.058C1018.13 833.871 1019.09 833.584 1019.78 833.197C1020.49 832.809 1020.85 832.222 1020.85 831.433V830.151C1020.85 827.907 1020.14 826.123 1018.72 824.801C1017.31 823.478 1015.35 822.817 1012.87 822.817C1010.67 822.817 1008.81 823.304 1007.3 824.28C1005.8 825.241 1004.75 826.484 1004.15 828.007L1001.85 827.145C1002.44 825.676 1003.28 824.453 1004.39 823.478C1005.52 822.503 1006.8 821.775 1008.24 821.294C1009.7 820.813 1011.22 820.572 1012.81 820.572C1014.19 820.572 1015.5 820.766 1016.74 821.154C1017.99 821.541 1019.11 822.129 1020.08 822.917C1021.07 823.705 1021.85 824.714 1022.43 825.943C1023 827.158 1023.29 828.615 1023.29 830.311V851.812H1020.85V846.262H1020.67C1020.13 847.411 1019.4 848.459 1018.46 849.408C1017.54 850.343 1016.42 851.091 1015.11 851.652C1013.82 852.2 1012.36 852.474 1010.73 852.474ZM1010.97 850.209C1012.89 850.209 1014.59 849.742 1016.08 848.807C1017.57 847.858 1018.74 846.562 1019.58 844.919C1020.42 843.276 1020.85 841.413 1020.85 839.329V834.8C1020.54 835.067 1020.09 835.307 1019.5 835.521C1018.93 835.722 1018.27 835.902 1017.54 836.062C1016.82 836.209 1016.06 836.343 1015.25 836.463C1014.47 836.57 1013.7 836.67 1012.95 836.764C1010.71 837.031 1008.88 837.445 1007.46 838.006C1006.06 838.554 1005.03 839.275 1004.37 840.17C1003.73 841.065 1003.41 842.147 1003.41 843.416C1003.41 845.514 1004.13 847.17 1005.58 848.386C1007.02 849.602 1008.82 850.209 1010.97 850.209ZM1044.66 852.454C1042.19 852.454 1040.04 851.772 1038.19 850.41C1036.35 849.047 1034.92 847.17 1033.9 844.779C1032.9 842.374 1032.4 839.616 1032.4 836.503C1032.4 833.417 1032.91 830.679 1033.92 828.287C1034.95 825.883 1036.39 823.999 1038.23 822.636C1040.08 821.26 1042.23 820.572 1044.68 820.572C1046.45 820.572 1047.98 820.913 1049.27 821.594C1050.58 822.262 1051.68 823.151 1052.56 824.26C1053.45 825.368 1054.14 826.584 1054.6 827.907H1054.84V810.774H1057.27V851.812H1054.9V845.1H1054.6C1054.11 846.422 1053.42 847.644 1052.54 848.767C1051.66 849.875 1050.56 850.77 1049.25 851.452C1047.94 852.12 1046.41 852.454 1044.66 852.454ZM1044.88 850.189C1046.97 850.189 1048.75 849.595 1050.24 848.406C1051.73 847.204 1052.87 845.574 1053.66 843.517C1054.46 841.446 1054.86 839.101 1054.86 836.483C1054.86 833.865 1054.46 831.534 1053.66 829.49C1052.87 827.432 1051.73 825.816 1050.24 824.64C1048.75 823.451 1046.97 822.857 1044.88 822.857C1042.77 822.857 1040.96 823.458 1039.45 824.66C1037.96 825.849 1036.81 827.472 1036.01 829.53C1035.22 831.587 1034.83 833.905 1034.83 836.483C1034.83 839.061 1035.22 841.386 1036.01 843.456C1036.81 845.527 1037.96 847.17 1039.45 848.386C1040.96 849.588 1042.77 850.189 1044.88 850.189ZM1088.39 827.666L1086.13 828.267C1085.77 827.145 1085.25 826.177 1084.58 825.362C1083.92 824.547 1083.07 823.919 1082.06 823.478C1081.06 823.024 1079.86 822.797 1078.45 822.797C1076.19 822.797 1074.34 823.358 1072.9 824.48C1071.47 825.602 1070.76 827.065 1070.76 828.868C1070.76 830.338 1071.25 831.554 1072.22 832.515C1073.2 833.464 1074.69 834.185 1076.69 834.68L1081.42 835.862C1083.85 836.463 1085.68 837.438 1086.91 838.787C1088.14 840.123 1088.75 841.787 1088.75 843.777C1088.75 845.474 1088.29 846.977 1087.37 848.286C1086.45 849.595 1085.17 850.617 1083.54 851.352C1081.93 852.086 1080.04 852.454 1077.89 852.454C1075.02 852.454 1072.66 851.786 1070.82 850.45C1068.97 849.101 1067.79 847.17 1067.27 844.659L1069.62 844.058C1070.06 846.061 1070.97 847.591 1072.36 848.646C1073.76 849.688 1075.6 850.209 1077.87 850.209C1080.38 850.209 1082.41 849.615 1083.94 848.426C1085.49 847.237 1086.27 845.714 1086.27 843.857C1086.27 842.441 1085.81 841.246 1084.9 840.27C1084 839.295 1082.62 838.58 1080.78 838.126L1075.87 836.924C1073.36 836.309 1071.47 835.327 1070.22 833.978C1068.96 832.616 1068.33 830.939 1068.33 828.949C1068.33 827.292 1068.77 825.836 1069.64 824.58C1070.5 823.324 1071.7 822.343 1073.22 821.635C1074.75 820.926 1076.49 820.572 1078.45 820.572C1081.06 820.572 1083.18 821.187 1084.82 822.416C1086.47 823.645 1087.66 825.395 1088.39 827.666ZM1137.36 830.131V832.455H1109.14V830.131H1137.36ZM1160.29 851.812V810.774H1162.79V849.488H1182.83V851.812H1160.29ZM1199.89 852.474C1198.11 852.474 1196.48 852.12 1195 851.412C1193.53 850.704 1192.35 849.668 1191.45 848.306C1190.57 846.943 1190.13 845.287 1190.13 843.336C1190.13 842.054 1190.36 840.925 1190.81 839.95C1191.26 838.975 1191.96 838.133 1192.91 837.425C1193.86 836.717 1195.08 836.136 1196.56 835.682C1198.04 835.214 1199.81 834.853 1201.87 834.599C1203.43 834.412 1204.83 834.232 1206.06 834.058C1207.29 833.871 1208.25 833.584 1208.94 833.197C1209.65 832.809 1210.01 832.222 1210.01 831.433V830.151C1210.01 827.907 1209.3 826.123 1207.88 824.801C1206.47 823.478 1204.52 822.817 1202.03 822.817C1199.83 822.817 1197.97 823.304 1196.46 824.28C1194.96 825.241 1193.92 826.484 1193.31 828.007L1191.01 827.145C1191.6 825.676 1192.45 824.453 1193.55 823.478C1194.68 822.503 1195.96 821.775 1197.4 821.294C1198.86 820.813 1200.38 820.572 1201.97 820.572C1203.35 820.572 1204.66 820.766 1205.9 821.154C1207.15 821.541 1208.27 822.129 1209.24 822.917C1210.23 823.705 1211.01 824.714 1211.59 825.943C1212.16 827.158 1212.45 828.615 1212.45 830.311V851.812H1210.01V846.262H1209.83C1209.29 847.411 1208.56 848.459 1207.62 849.408C1206.7 850.343 1205.58 851.091 1204.28 851.652C1202.98 852.2 1201.52 852.474 1199.89 852.474ZM1200.13 850.209C1202.05 850.209 1203.75 849.742 1205.24 848.807C1206.73 847.858 1207.9 846.562 1208.74 844.919C1209.59 843.276 1210.01 841.413 1210.01 839.329V834.8C1209.7 835.067 1209.25 835.307 1208.66 835.521C1208.09 835.722 1207.43 835.902 1206.7 836.062C1205.98 836.209 1205.22 836.343 1204.42 836.463C1203.63 836.57 1202.86 836.67 1202.11 836.764C1199.87 837.031 1198.04 837.445 1196.62 838.006C1195.22 838.554 1194.19 839.275 1193.53 840.17C1192.89 841.065 1192.57 842.147 1192.57 843.416C1192.57 845.514 1193.29 847.17 1194.74 848.386C1196.18 849.602 1197.98 850.209 1200.13 850.209ZM1234.15 821.033V823.218H1220.7V821.033H1234.15ZM1225.25 813.659H1227.67V844.539C1227.67 845.794 1227.91 846.823 1228.39 847.624C1228.89 848.413 1229.53 849 1230.32 849.388C1231.12 849.762 1231.97 849.949 1232.88 849.949C1233.32 849.949 1233.7 849.916 1234.03 849.849C1234.36 849.782 1234.67 849.695 1234.97 849.588L1235.57 851.812C1235.19 851.946 1234.78 852.06 1234.33 852.153C1233.87 852.26 1233.34 852.313 1232.72 852.313C1231.44 852.313 1230.22 852.026 1229.08 851.452C1227.94 850.877 1227.02 850.042 1226.31 848.947C1225.6 847.852 1225.25 846.529 1225.25 844.979V813.659ZM1246.88 831.854V851.812H1244.44V810.774H1246.88V825.903H1247.12C1247.85 824.3 1248.99 823.024 1250.57 822.075C1252.16 821.114 1254.06 820.633 1256.28 820.633C1258.35 820.633 1260.18 821.073 1261.75 821.955C1263.33 822.823 1264.56 824.073 1265.44 825.702C1266.33 827.319 1266.78 829.256 1266.78 831.513V851.812H1264.36V831.614C1264.36 828.982 1263.58 826.871 1262.01 825.282C1260.45 823.692 1258.39 822.897 1255.82 822.897C1254.1 822.897 1252.56 823.271 1251.21 824.019C1249.86 824.767 1248.8 825.816 1248.03 827.165C1247.26 828.501 1246.88 830.064 1246.88 831.854ZM1289.46 852.454C1286.68 852.454 1284.27 851.766 1282.21 850.39C1280.15 849.014 1278.56 847.13 1277.44 844.739C1276.32 842.348 1275.76 839.622 1275.76 836.563C1275.76 833.491 1276.32 830.752 1277.44 828.347C1278.58 825.943 1280.13 824.046 1282.11 822.656C1284.09 821.267 1286.34 820.572 1288.88 820.572C1290.61 820.572 1292.24 820.92 1293.77 821.614C1295.32 822.296 1296.68 823.284 1297.86 824.58C1299.05 825.876 1299.98 827.439 1300.65 829.269C1301.33 831.099 1301.67 833.157 1301.67 835.441V836.964H1277.3V834.74H1299.22C1299.22 832.509 1298.77 830.498 1297.86 828.708C1296.95 826.918 1295.72 825.495 1294.15 824.44C1292.59 823.385 1290.83 822.857 1288.88 822.857C1286.84 822.857 1285.02 823.431 1283.41 824.58C1281.82 825.716 1280.56 827.252 1279.62 829.189C1278.7 831.126 1278.22 833.29 1278.18 835.682V836.683C1278.18 839.248 1278.63 841.553 1279.52 843.597C1280.43 845.627 1281.73 847.237 1283.41 848.426C1285.1 849.602 1287.11 850.189 1289.46 850.189C1291.15 850.189 1292.58 849.909 1293.77 849.348C1294.97 848.773 1295.96 848.079 1296.72 847.264C1297.48 846.449 1298.05 845.661 1298.44 844.899L1300.67 845.801C1300.2 846.83 1299.47 847.858 1298.48 848.887C1297.51 849.902 1296.26 850.75 1294.75 851.432C1293.26 852.113 1291.49 852.454 1289.46 852.454ZM1330.2 827.666L1327.94 828.267C1327.58 827.145 1327.07 826.177 1326.4 825.362C1325.73 824.547 1324.89 823.919 1323.87 823.478C1322.87 823.024 1321.67 822.797 1320.27 822.797C1318.01 822.797 1316.16 823.358 1314.72 824.48C1313.29 825.602 1312.57 827.065 1312.57 828.868C1312.57 830.338 1313.06 831.554 1314.03 832.515C1315.01 833.464 1316.5 834.185 1318.5 834.68L1323.23 835.862C1325.66 836.463 1327.49 837.438 1328.72 838.787C1329.95 840.123 1330.57 841.787 1330.57 843.777C1330.57 845.474 1330.1 846.977 1329.18 848.286C1328.26 849.595 1326.99 850.617 1325.36 851.352C1323.74 852.086 1321.86 852.454 1319.7 852.454C1316.83 852.454 1314.47 851.786 1312.63 850.45C1310.79 849.101 1309.61 847.17 1309.08 844.659L1311.43 844.058C1311.87 846.061 1312.78 847.591 1314.17 848.646C1315.58 849.688 1317.41 850.209 1319.68 850.209C1322.2 850.209 1324.22 849.615 1325.76 848.426C1327.31 847.237 1328.08 845.714 1328.08 843.857C1328.08 842.441 1327.63 841.246 1326.72 840.27C1325.81 839.295 1324.43 838.58 1322.59 838.126L1317.68 836.924C1315.17 836.309 1313.29 835.327 1312.03 833.978C1310.77 832.616 1310.15 830.939 1310.15 828.949C1310.15 827.292 1310.58 825.836 1311.45 824.58C1312.32 823.324 1313.51 822.343 1315.04 821.635C1316.56 820.926 1318.3 820.572 1320.27 820.572C1322.87 820.572 1324.99 821.187 1326.64 822.416C1328.28 823.645 1329.47 825.395 1330.2 827.666Z" fill="white"/>
</svg>
